<?xml version="1.0" standalone="no"?>
<!DOCTYPE svg PUBLIC "-//W3C//DTD SVG 20010904//EN"
 "http://www.w3.org/TR/2001/REC-SVG-20010904/DTD/svg10.dtd">
<svg width="1366" height="1366" viewBox="0 0 1366 1366" fill="none" xmlns="http://www.w3.org/2000/svg">
<rect x="1" width="1364" height="1365" rx="175.5" fill="#00A587"/>
<path d="M910.851 685.544C923.399 784.016 935.045 876.47 947.134 968.825C948.567 979.888 946.275 983.792 933.885 984.412C859.269 988.119 859.311 988.415 832.338 920.47C821.108 892.198 810.164 863.813 798.203 835.824C795.571 831.223 794.599 825.881 795.447 820.668C796.295 815.455 798.913 810.678 802.873 807.115C838.168 768.555 872.547 728.952 910.851 685.544Z" fill="white"/>
<path d="M472.28 768.073C482.966 822.277 493.508 873.225 502.791 924.399C505.656 940.24 518.548 960.365 507.518 971.077C498.007 980.28 476.892 967.257 460.663 967.849C417.546 969.456 397.478 949.527 390.473 907.684C386.362 883.119 384.542 866.108 405.127 847.081C429.154 822.141 451.582 795.753 472.28 768.073V768.073Z" fill="white"/>
<path d="M594.026 866.94C594.026 836.497 593.553 806.055 594.255 775.627C594.527 763.676 591.146 759.645 578.24 759.222C490.192 756.357 402.164 752.88 314.154 748.793C300.331 748.159 294.874 752.021 291.937 765.466C278.358 827.731 262.944 889.63 249.68 951.966C245.956 969.47 239.166 975.925 220.558 973.938C199.912 971.832 179.127 971.361 158.404 972.529C142.791 973.304 139.783 966.891 140.012 953.516C141.358 860.02 143.349 766.523 142.433 673.054C142.264 644.292 152.026 616.326 170.122 593.736C218.825 527.143 265.738 459.353 312.923 391.732C315.467 387.102 319.473 383.411 324.335 381.215C329.197 379.018 334.653 378.436 339.881 379.555C515.814 398.074 691.814 416.016 867.881 433.379C878.893 434.678 889.408 438.633 898.492 444.893C1003.26 511.88 1107.84 579.106 1213.14 645.276C1228.9 655.141 1229.33 660.779 1214.19 669.7C1210.93 671.432 1208.02 673.734 1205.59 676.493C1175.27 715.039 1139.7 713.306 1096.73 696.224C1044.79 675.633 990.011 661.977 936.752 644.473C931.684 642.451 926.188 641.685 920.748 642.243C915.308 642.801 910.09 644.665 905.554 647.672C856.564 677.606 807.35 707.175 757.912 736.377C753.459 738.723 749.655 742.104 746.832 746.225C744.008 750.347 742.25 755.084 741.711 760.026C730.867 824.292 718.462 888.277 708.492 952.713C705.627 971.176 698.938 977.024 680.288 975.742C656.602 974.363 632.856 974.326 609.167 975.629C595.114 976.249 591.519 971.401 591.977 958.224C592.894 927.796 592.264 897.325 592.264 866.883L594.026 866.94Z" fill="white"/>
</svg>


