<svg viewBox="0 0 96 96" fill="none" xmlns="http://www.w3.org/2000/svg">
    <path fill-rule="evenodd" clip-rule="evenodd"
        d="M1.65527 47.9998C1.65527 73.5962 22.4045 94.345 48.0001 94.345C73.5957 94.345 94.345 73.5962 94.345 47.9998C94.345 22.4042 73.5957 1.65497 48.0001 1.65497C22.4045 1.65497 1.65527 22.4042 1.65527 47.9998Z"
        fill="white" />
    <path fill-rule="evenodd" clip-rule="evenodd"
        d="M47.9997 11.5861C68.1103 11.5861 84.4135 27.8893 84.4135 47.9999C84.4135 68.1113 68.1103 84.4137 47.9997 84.4137C27.8891 84.4137 11.5859 68.1113 11.5859 47.9999C11.5859 27.8893 27.8891 11.5861 47.9997 11.5861Z"
        fill="#1A8CFF" />
    <path opacity="0.5" fill-rule="evenodd" clip-rule="evenodd"
        d="M48 96C21.4903 96 0 74.5105 0 48C0 21.4903 21.4903 0 48 0C74.5097 0 96 21.4903 96 48C96 74.5105 74.5097 96 48 96ZM48.0003 1.65497C22.4018 1.65497 1.6554 22.407 1.6554 47.9998C1.6554 73.5931 22.4016 94.345 48.0003 94.345C73.5989 94.345 94.345 73.5931 94.345 47.9998C94.345 22.407 73.5987 1.65497 48.0003 1.65497Z"
        fill="black" />
    <path fill-rule="evenodd" clip-rule="evenodd"
        d="M88.5521 47.1725C88.5521 24.7764 70.3965 6.62079 48.0004 6.62079C25.6043 6.62079 7.44867 24.7764 7.44867 47.1725C7.44867 59.6933 13.1232 70.8887 22.0402 78.3275C14.5899 71.3784 9.93137 61.4747 9.93137 50.4829C9.93137 29.4579 26.9755 12.4139 48.0004 12.4139C69.0253 12.4139 86.0694 29.4579 86.0694 50.4829C86.0694 61.4747 81.4109 71.3784 73.96 78.3273C82.8776 70.8887 88.5521 59.6933 88.5521 47.1725ZM94.345 48.0001C94.345 47.1672 94.323 46.3394 94.28 45.5173L94.246 46.0818C92.677 70.2569 72.5718 89.3794 48.0001 89.3794C23.2374 89.3794 3.01067 69.9584 1.72057 45.5173C1.67717 46.3394 1.65527 47.1672 1.65527 48.0001C1.65527 73.5956 22.4046 94.345 48.0001 94.345C73.5956 94.345 94.345 73.5956 94.345 48.0001Z"
        fill="black" fill-opacity="0.0524476" />
    <path opacity="0.256138" fill-rule="evenodd" clip-rule="evenodd"
        d="M47.9997 11.5862C27.8864 11.5862 11.5859 27.892 11.5859 48C11.5859 68.1084 27.8862 84.4138 47.9997 84.4138C68.1133 84.4138 84.4135 68.1084 84.4135 48C84.4135 27.892 68.113 11.5862 47.9997 11.5862ZM47.9993 82.7584C28.8028 82.7584 13.2407 67.197 13.2407 47.9998C13.2407 28.8033 28.8028 13.2412 47.9993 13.2412C67.1958 13.2412 82.7579 28.8033 82.7579 47.9998C82.7579 67.197 67.1958 82.7584 47.9993 82.7584Z"
        fill="black" />
    <path fill-rule="evenodd" clip-rule="evenodd"
        d="M19.0342 48.1844C19.0342 32.003 32.0027 19.0345 48.1841 19.0345C64.0566 19.0345 76.9652 32.0633 76.9652 48.1844C76.9652 63.9975 63.997 76.9655 48.1841 76.9655C32.0628 76.9655 19.0342 64.0574 19.0342 48.1844ZM75.3096 48.1832C75.3096 32.9171 63.0821 20.6896 48.1825 20.6896C32.9163 20.6896 20.6889 32.9171 20.6889 48.1832C20.6889 63.0836 32.9163 75.3103 48.1825 75.3103C63.0821 75.3103 75.3096 63.0836 75.3096 48.1832Z"
        fill="black" fill-opacity="0.25" />
    <path fill-rule="evenodd" clip-rule="evenodd"
        d="M48.1836 20.6895C63.0832 20.6895 75.3106 32.9169 75.3106 48.1831C75.3106 63.0835 63.0832 75.3101 48.1836 75.3101C32.9174 75.3101 20.6899 63.0835 20.6899 48.1831C20.6899 32.9169 32.9174 20.6895 48.1836 20.6895Z"
        fill="#F7F7F7" />
    <path fill-rule="evenodd" clip-rule="evenodd"
        d="M60.4135 47.9996C60.4135 54.8555 54.8557 60.4134 47.9997 60.4134C41.1438 60.4134 35.5859 54.8555 35.5859 47.9996C35.5859 41.1437 41.1438 35.5858 47.9997 35.5858C54.8557 35.5858 60.4135 41.1437 60.4135 47.9996Z"
        fill="black" fill-opacity="0.05" />
    <path fill-rule="evenodd" clip-rule="evenodd"
        d="M33.9307 47.9998C33.9307 40.2298 40.2296 33.9308 47.9996 33.9308C55.7697 33.9308 62.0686 40.2298 62.0686 47.9998C62.0686 55.7698 55.7697 62.0688 47.9996 62.0688C40.2296 62.0688 33.9307 55.7698 33.9307 47.9998ZM60.4131 47.9995C60.4131 41.1436 54.8553 35.5857 47.9993 35.5857C41.1434 35.5857 35.5855 41.1436 35.5855 47.9995C35.5855 54.8553 41.1434 60.4133 47.9993 60.4133C54.8553 60.4133 60.4131 54.8553 60.4131 47.9995Z"
        fill="white" />
    <path fill-rule="evenodd" clip-rule="evenodd"
        d="M60.4135 47.9996C60.4135 41.1437 54.8557 35.5858 47.9997 35.5858C41.1438 35.5858 35.5859 41.1437 35.5859 47.9996C35.5859 54.8555 41.1438 60.4134 47.9997 60.4134C54.8557 60.4134 60.4135 54.8555 60.4135 47.9996ZM37.2407 47.9994C37.2407 42.0577 42.0575 37.2408 47.9993 37.2408C53.9411 37.2408 58.7579 42.0577 58.7579 47.9994C58.7579 53.9412 53.9411 58.758 47.9993 58.758C42.0575 58.758 37.2407 53.9412 37.2407 47.9994Z"
        fill="black" fill-opacity="0.15" />
    <path fill-rule="evenodd" clip-rule="evenodd"
        d="M43.3847 26.4825H52.6153C54.6611 26.4825 56.2758 28.2739 56.2758 30.432V49.0846C56.2758 49.8969 55.9828 50.6817 55.4518 51.2708L54.095 52.7761C54.0634 52.8112 54.0634 52.9098 54.095 52.9449L55.4518 54.4501C55.9828 55.0392 56.2758 55.8241 56.2758 56.6364V65.5676C56.2758 67.7257 54.6611 69.517 52.6153 69.517H43.3847C41.3388 69.517 39.7241 67.7257 39.7241 65.5676V46.915C39.7241 46.1027 40.0171 45.3178 40.5482 44.7287L41.905 43.2235C41.9366 43.1884 41.9366 43.0898 41.905 43.0547L40.5482 41.5494C40.0171 40.9603 39.7241 40.1755 39.7241 39.3632V30.432C39.7241 28.2739 41.3388 26.4825 43.3847 26.4825ZM54.6209 30.5608C54.6209 29.24 53.676 28.1693 52.5103 28.1693H43.4901C42.3245 28.1693 41.3795 29.24 41.3795 30.5608V39.4238C41.3795 39.8467 41.5278 40.2522 41.7916 40.5512L43.1108 42.046C43.6602 42.6686 43.6602 43.6781 43.1108 44.3008L41.7916 45.7955C41.5278 46.0945 41.3795 46.5 41.3795 46.9229V65.4394C41.3795 66.7602 42.3245 67.8309 43.4901 67.8309H52.5103C53.676 67.8309 54.6209 66.7602 54.6209 65.4394V56.5764C54.6209 56.1535 54.4727 55.748 54.2088 55.449L52.8897 53.9542C52.3402 53.3316 52.3402 52.3221 52.8897 51.6994L54.2088 50.2047C54.4727 49.9057 54.6209 49.5002 54.6209 49.0773V30.5608Z"
        fill="white" />
    <path fill-rule="evenodd" clip-rule="evenodd"
        d="M41.3794 39.4098V30.5328C41.3794 29.2099 42.3243 28.1375 43.49 28.1375H52.5102C53.6758 28.1375 54.6208 29.2099 54.6208 30.5328V49.0785C54.6208 49.502 54.4725 49.9082 54.2087 50.2077L52.8895 51.7047C52.3401 52.3284 52.3401 53.3395 52.8895 53.9631L54.2087 55.4602C54.4725 55.7596 54.6208 56.1658 54.6208 56.5893V65.4663C54.6208 66.7892 53.6758 67.8617 52.5102 67.8617H43.49C42.3243 67.8617 41.3794 66.7892 41.3794 65.4663V46.9207C41.3794 46.4972 41.5276 46.091 41.7915 45.7915L43.1106 44.2944C43.6601 43.6708 43.6601 42.6597 43.1106 42.0361L41.7915 40.539C41.5276 40.2395 41.3794 39.8333 41.3794 39.4098Z"
        fill="#0A2D4D" />
    <path fill-rule="evenodd" clip-rule="evenodd"
        d="M54.6208 30.5328C54.6208 29.2099 53.6758 28.1375 52.5102 28.1375H43.49C42.3243 28.1375 41.3794 29.2099 41.3794 30.5328V39.4098C41.3794 39.8333 41.5276 40.2395 41.7915 40.539L43.1106 42.0361C43.6601 42.6597 43.6601 43.6708 43.1106 44.2944L41.7915 45.7915C41.5276 46.091 41.3794 46.4972 41.3794 46.9207V65.4663C41.3794 66.7892 42.3243 67.8617 43.49 67.8617H52.5102C53.6758 67.8617 54.6208 66.7892 54.6208 65.4663V56.5893C54.6208 56.1658 54.4725 55.7596 54.2087 55.4602L52.8895 53.9631C52.3401 53.3395 52.3401 52.3284 52.8895 51.7047L54.2087 50.2077C54.4725 49.9082 54.6208 49.502 54.6208 49.0785V30.5328ZM43.7279 29.8264L52.2713 29.8375L52.3426 29.8422C52.6731 29.8861 52.9651 30.2307 52.9651 30.6931V49.0806L52.9615 49.1165C52.957 49.1383 52.949 49.1552 52.941 49.1638L51.559 50.6487L51.4473 50.7755C50.4413 51.9819 50.4785 53.801 51.559 54.962L52.941 56.4469L52.9526 56.4656C52.9597 56.4816 52.9651 56.5043 52.9651 56.5301V65.3279L52.9607 65.4251C52.9203 65.8697 52.6059 66.1835 52.2713 66.1835L43.7279 66.1724L43.6566 66.1677C43.3261 66.1238 43.0341 65.7791 43.0341 65.3168V46.9293L43.0377 46.8933C43.0422 46.8715 43.0502 46.8546 43.0583 46.846L44.4402 45.3612L44.552 45.2343C45.5579 44.028 45.5207 42.2088 44.4402 41.0478L43.0583 39.563L43.0467 39.5443C43.0395 39.5282 43.0341 39.5056 43.0341 39.4797V30.682L43.0385 30.5848C43.0789 30.1402 43.3933 29.8264 43.7279 29.8264Z"
        fill="black" fill-opacity="0.4" />
</svg>