<svg viewBox="0 0 240 234" fill="none" xmlns="http://www.w3.org/2000/svg">
    <path
        d="M197.5 0H42.5C19.0279 0 0 19.0279 0 42.5V191.5C0 214.972 19.0279 234 42.5 234H197.5C220.972 234 240 214.972 240 191.5V42.5C240 19.0279 220.972 0 197.5 0Z"
        fill="#001E36" />
    <path
        d="M54.0417 164.095V61.2163C54.0417 60.4665 54.3639 60.0893 55.008 60.0893C56.7233 60.0893 58.2896 60.0641 60.6519 60.0087C63.0117 59.956 65.5609 59.9024 68.2993 59.8478C71.0367 59.7949 73.9348 59.7412 76.9937 59.6867C80.0523 59.634 83.0843 59.6071 86.0899 59.6061C94.2456 59.6061 101.115 60.6258 106.698 62.6652C111.734 64.3687 116.326 67.1738 120.142 70.8762C123.376 74.0853 125.875 77.9579 127.467 82.2267C128.973 86.3811 129.736 90.7682 129.721 95.1872C129.721 103.776 127.736 110.86 123.764 116.439C119.767 122.042 114.147 126.284 107.664 128.595C100.902 131.118 93.3877 131.974 85.1241 131.974C82.7618 131.974 81.0981 131.947 80.1329 131.893C79.1671 131.84 77.7182 131.813 75.7862 131.812V163.934C75.8143 164.131 75.7962 164.332 75.7333 164.52C75.6704 164.709 75.5644 164.88 75.4238 165.021C75.2832 165.162 75.1118 165.268 74.9232 165.33C74.7345 165.393 74.5338 165.411 74.337 165.383H55.1686C54.4167 165.383 54.0417 164.956 54.0417 164.095ZM75.7861 79.4092V112.964C77.1797 113.072 78.4676 113.126 79.6499 113.125H84.9629C88.8721 113.112 92.7557 112.492 96.4746 111.287C99.6643 110.34 102.514 108.496 104.686 105.974C106.778 103.507 107.825 100.072 107.825 95.6704C107.91 92.556 107.1 89.4827 105.49 86.8152C103.798 84.2358 101.353 82.2402 98.4868 81.0998C94.7445 79.6451 90.747 78.9606 86.7339 79.0874C84.1577 79.0874 81.877 79.1142 79.8916 79.1677C77.9043 79.2231 76.5358 79.3036 75.7861 79.4092Z"
        fill="#31A8FF" />
    <path
        d="M191.971 106.863C188.945 105.308 185.723 104.171 182.392 103.482C178.721 102.64 174.968 102.208 171.202 102.194C169.165 102.139 167.131 102.383 165.165 102.918C163.913 103.197 162.801 103.91 162.025 104.931C161.5 105.747 161.221 106.697 161.22 107.668C161.25 108.61 161.589 109.515 162.186 110.244C163.126 111.344 164.276 112.247 165.567 112.9C167.862 114.137 170.228 115.239 172.651 116.201C178.054 118.01 183.217 120.47 188.026 123.526C191.302 125.594 194.013 128.443 195.916 131.818C197.515 135.013 198.316 138.549 198.25 142.122C198.346 146.84 196.998 151.474 194.386 155.404C191.59 159.394 187.706 162.495 183.196 164.34C178.311 166.486 172.274 167.559 165.084 167.56C160.517 167.606 155.957 167.174 151.479 166.272C147.952 165.625 144.518 164.544 141.256 163.052C140.904 162.87 140.611 162.592 140.411 162.25C140.212 161.908 140.114 161.516 140.129 161.12V143.732C140.109 143.562 140.137 143.389 140.208 143.233C140.279 143.077 140.391 142.944 140.532 142.846C140.67 142.768 140.829 142.734 140.987 142.748C141.145 142.763 141.295 142.825 141.417 142.927C145.269 145.198 149.451 146.855 153.814 147.837C157.659 148.801 161.603 149.314 165.567 149.367C169.323 149.367 172.087 148.884 173.858 147.918C174.658 147.552 175.335 146.961 175.807 146.218C176.278 145.475 176.524 144.612 176.515 143.732C176.515 142.338 175.71 140.997 174.1 139.707C172.49 138.419 169.216 136.863 164.279 135.038C159.224 133.278 154.43 130.841 150.03 127.793C146.883 125.604 144.292 122.71 142.463 119.34C140.88 116.168 140.08 112.662 140.129 109.117C140.12 104.857 141.29 100.678 143.51 97.0419C146.041 93.0381 149.675 89.8512 153.975 87.8649C158.697 85.5053 164.6 84.3246 171.685 84.3229C175.834 84.2896 179.98 84.5856 184.082 85.2084C187.053 85.5852 189.957 86.3708 192.713 87.5429C192.931 87.6056 193.132 87.7182 193.3 87.8719C193.468 88.0256 193.597 88.2161 193.679 88.4284C193.787 88.8216 193.842 89.2279 193.84 89.6359V105.897C193.851 106.086 193.812 106.275 193.727 106.444C193.643 106.614 193.515 106.758 193.357 106.863C193.142 106.97 192.904 107.026 192.664 107.026C192.424 107.026 192.186 106.97 191.971 106.863Z"
        fill="#31A8FF" />
</svg>