<svg viewBox="0 0 240 234" fill="none" xmlns="http://www.w3.org/2000/svg">
    <path
        d="M42.5 0H197.5C221 0 240 19 240 42.5V191.5C240 215 221 234 197.5 234H42.5C19 234 0 215 0 191.5V42.5C0 19 19 0 42.5 0Z"
        fill="#49021F" />
    <path
        d="M87.2 61.2V163.8C87.2 164.9 86.7 165.4 85.8 165.4H66.2C65.3 165.4 64.9 164.9 64.9 163.8V61.2C64.9 60.3 65.4 59.9 66.3 59.9H85.8C86.4 59.8 87 60.2 87.1 60.9C87.2 61 87.2 61.1 87.2 61.2Z"
        fill="#FF3366" />
    <path
        d="M144.8 167C137.4 167.1 130 165.6 123.3 162.5C117 159.6 111.8 154.8 108.2 148.9C104.5 142.8 102.7 135.2 102.7 126.1C102.6 118.7 104.5 111.4 108.2 105C112 98.5 117.5 93.1 124.1 89.5C131.1 85.6 139.5 83.7 149.4 83.7C149.9 83.7 150.6 83.7 151.5 83.8C152.4 83.9 153.4 83.9 154.6 84V52.4C154.6 51.7 154.9 51.3 155.6 51.3H175.9C176.4 51.2 176.8 51.6 176.9 52C176.9 52.1 176.9 52.2 176.9 52.2V147.4C176.9 149.2 177 151.2 177.1 153.4C177.3 155.5 177.4 157.5 177.5 159.2C177.5 159.9 177.2 160.5 176.5 160.8C171.3 163 165.8 164.6 160.2 165.6C155.2 166.5 150 167 144.8 167ZM154.6 147V103C153.7 102.8 152.8 102.6 151.9 102.5C150.8 102.4 149.7 102.3 148.6 102.3C144.7 102.3 140.8 103.1 137.3 104.9C133.9 106.6 131 109.1 128.8 112.3C126.6 115.5 125.5 119.8 125.5 125C125.4 128.5 126 132 127.2 135.3C128.2 138 129.7 140.4 131.7 142.4C133.6 144.2 135.9 145.6 138.5 146.4C141.2 147.3 144 147.7 146.8 147.7C148.3 147.7 149.7 147.6 151 147.5C152.3 147.6 153.5 147.4 154.6 147Z"
        fill="#FF3366" />
</svg>