<svg viewBox="0 0 263 149" fill="none" xmlns="http://www.w3.org/2000/svg">
    <path
        d="M191.91 110.775C185.885 110.775 180.984 105.87 180.984 99.8449C180.984 93.8197 185.885 88.9187 191.91 88.9187C197.936 88.9187 202.837 93.8197 202.837 99.8449C202.837 105.87 197.936 110.775 191.91 110.775ZM71.1361 110.775C65.1107 110.775 60.2099 105.87 60.2099 99.8449C60.2099 93.8197 65.1107 88.9187 71.1361 88.9187C77.1613 88.9187 82.0624 93.8197 82.0624 99.8449C82.0624 105.87 77.1613 110.775 71.1361 110.775ZM195.829 44.9546L217.667 7.13283C218.919 4.95891 218.175 2.18214 216.004 0.926732C213.834 -0.325128 211.054 0.419603 209.798 2.58996L187.687 40.8905C170.778 33.1736 151.787 28.8755 131.523 28.8755C111.259 28.8755 92.2687 33.1736 75.3597 40.8905L53.2483 2.58996C51.9929 0.419603 49.2126 -0.325128 47.0422 0.926732C44.8719 2.18214 44.1236 4.95891 45.379 7.13283L67.2172 44.9546C29.7183 65.3496 4.07113 103.313 0.319153 148.164H262.727C258.972 103.313 233.325 65.3496 195.829 44.9546Z"
        fill="#3DDB85" />
</svg>