<svg viewBox="0 0 90 90" fill="none"
    xmlns="http://www.w3.org/2000/svg">
    <path d="M58.6 0C67.6 0 72.1 0 77 1.5C82.3 3.4 86.5 7.6 88.4 12.9C90 17.8 90 22.4 90 31.4V58.6C90 67.6 90 72.1 88.5 77C86.6 82.3 82.4 86.5 77.1 88.4C72.2 90 67.6 90 58.6 90H31.4C22.4 90 17.9 90 13 88.5C7.7 86.5 3.5 82.4 1.6 77C-1.19209e-07 72.2 0 67.7 0 58.6V31.4C0 22.4 0 17.9 1.5 13C3.5 7.7 7.7 3.5 13 1.6C17.8 -1.19209e-07 22.4 0 31.4 0H58.6Z" fill="url(#paint0_linear_1_11)"/>
    <path d="M73.9 64.5C73.8 64.5 73.6 64.6 73.5 64.6H16.5C16.4 64.6 16.2 64.6 16.1 64.5L33.9 46.7L37.7 50.6C41.8 54.8 48.3 54.8 52.4 50.6L56.2 46.7L73.9 64.5ZM75 62.6V27.3C75 27.1 75 26.9 74.9 26.8C74.8 27 57.2 45.2 57.2 45.2L75 63C75 62.8 75 62.7 75 62.6ZM15 62.7V27.5C15 27.3 15 27.1 15.1 27C15.2 27.2 32.8 45.4 32.8 45.4L15.1 63.1C15 63 15 62.8 15 62.7ZM74 25.6L51.3 48.8C47.8 52.3 42.2 52.3 38.8 48.8L16.1 25.6C16 25.5 74 25.6 74 25.6Z" fill="white"/>
    <defs>
        <linearGradient id="paint0_linear_1_11" x1="44.998" y1="0.028" x2="44.998" y2="89.998" gradientUnits="userSpaceOnUse">
            <stop stop-color="#1E51EE"/>
            <stop offset="1" stop-color="#19E6FF"/>
        </linearGradient>
    </defs>
</svg>
