<svg viewBox="0 0 14 17" fill="none" xmlns="http://www.w3.org/2000/svg">
    <path
        d="M13.0729 5.6825C12.552 6.00141 12.1206 6.44725 11.8189 6.97831C11.5172 7.50937 11.3553 8.10829 11.3481 8.719C11.3502 9.40636 11.5538 10.078 11.9338 10.6508C12.3138 11.2235 12.8535 11.6722 13.486 11.9413C13.2366 12.7459 12.8676 13.5084 12.3912 14.2031C11.7096 15.1843 10.9969 16.1654 9.9125 16.1654C8.8281 16.1654 8.5492 15.5354 7.2995 15.5354C6.0808 15.5354 5.647 16.1861 4.6555 16.1861C3.664 16.1861 2.9721 15.2772 2.1768 14.1618C1.12627 12.5992 0.54891 10.7667 0.514 8.8842C0.514 5.7858 2.528 4.1437 4.5109 4.1437C5.5644 4.1437 6.4423 4.8356 7.1033 4.8356C7.7333 4.8356 8.7145 4.1023 9.9125 4.1023C10.5285 4.08641 11.1389 4.22222 11.69 4.49778C12.2411 4.77334 12.716 5.18019 13.0729 5.6825ZM9.3445 2.7907C9.8726 2.16946 10.1715 1.38583 10.1914 0.570702C10.1923 0.463244 10.1819 0.35599 10.1604 0.250702C9.25326 0.339316 8.4144 0.771676 7.8159 1.4591C7.28271 2.05559 6.9725 2.81829 6.938 3.6176C6.9384 3.71481 6.94879 3.81172 6.969 3.9068C7.04051 3.92032 7.11312 3.92725 7.1859 3.9275C7.60397 3.89423 8.01092 3.77631 8.382 3.58088C8.75308 3.38546 9.08055 3.11662 9.3445 2.7907Z"
        fill="currentColor" />
</svg>