<svg viewBox="0 0 90 90" fill="none"
    xmlns="http://www.w3.org/2000/svg">
    <path d="M75.4 62.3C72.3 62.3 69.8 64.8 69.8 67.9C69.8 71 72.3 73.5 75.4 73.5C78.5 73.5 81 71 81 67.9C81 64.8 78.5 62.3 75.4 62.3ZM75.4 72.8C72.7 72.8 70.5 70.6 70.5 67.9C70.5 65.2 72.7 63 75.4 63C78.1 63 80.3 65.2 80.3 67.9C80.3 70.6 78.1 72.8 75.4 72.8Z" fill="white"/>
    <path d="M75.4 19.5C72.3 19.5 69.8 22 69.8 25.1C69.8 28.2 72.3 30.7 75.4 30.7C78.5 30.7 81 28.2 81 25.1C81 22 78.5 19.5 75.4 19.5ZM75.4 30C72.7 30 70.5 27.8 70.5 25.1C70.5 22.4 72.7 20.2 75.4 20.2C78.1 20.2 80.3 22.4 80.3 25.1C80.3 27.8 78.1 30 75.4 30Z" fill="white"/>
    <path d="M75.4 40.9C72.3 40.9 69.8 43.4 69.8 46.5C69.8 49.6 72.3 52.1 75.4 52.1C78.5 52.1 81 49.6 81 46.5C81 43.4 78.5 40.9 75.4 40.9ZM75.4 51.4C72.7 51.4 70.5 49.2 70.5 46.5C70.5 43.8 72.7 41.6 75.4 41.6C78.1 41.6 80.3 43.8 80.3 46.5C80.3 49.2 78.1 51.4 75.4 51.4Z" fill="white"/>
    <path d="M88.5 13C86.6 7.7 82.4 3.5 77.1 1.6C72.2 -1.19209e-07 67.7 0 58.6 0H31.4C22.4 0 17.8 0 13 1.5C8 3.3 4 7.1 2 12H61.1H61.5V12.8H61.1H1.6V12.9C-1.19209e-07 17.8 0 22.3 0 31.4V34.5H61.1H61.5V35.2H61.1H0V55.5H61.1H61.5V56.2H61.1H0V58.6C0 67.6 0 72.2 1.5 77C1.6 77.3 1.8 77.7 1.9 78H61.1H61.5V78.8H61.1H2.3C4.4 83.2 8.3 86.7 12.9 88.4C17.8 90 22.3 90 31.4 90H58.6C67.6 90 72.2 90 77 88.5C82.3 86.6 86.5 82.4 88.4 77.1C90 72.2 90 67.7 90 58.6V31.4C90 22.4 90 17.8 88.5 13ZM75.4 74.3C71.9 74.3 69 71.4 69 67.9C69 64.4 71.9 61.5 75.4 61.5C78.9 61.5 81.8 64.4 81.8 67.9C81.8 71.4 78.9 74.3 75.4 74.3ZM75.4 52.9C71.9 52.9 69 50 69 46.5C69 43 71.9 40.1 75.4 40.1C78.9 40.1 81.8 43 81.8 46.5C81.8 50 78.9 52.9 75.4 52.9ZM75.4 31.5C71.9 31.5 69 28.6 69 25.1C69 21.6 71.9 18.7 75.4 18.7C78.9 18.7 81.8 21.6 81.8 25.1C81.8 28.6 78.9 31.5 75.4 31.5Z" fill="white"/>
    <path d="M61.5 78.8V78H61.1H1.89999C1.99999 78.3 2.09999 78.5 2.19999 78.8H61H61.5Z" fill="#B7B7B7"/>
    <path d="M61.5 56.2V55.5H61.1H0V56.2H61.1H61.5Z" fill="#B7B7B7"/>
    <path d="M61.5 35.2V34.5H61.1H0V35.2H61.1H61.5Z" fill="#B7B7B7"/>
    <path d="M61.5 12.8V12H61.1H2C1.9 12.3 1.8 12.5 1.7 12.8H61.2H61.5Z" fill="#B7B7B7"/>
    <path d="M78.864 28.5652C80.7776 26.6516 80.7776 23.5491 78.864 21.6356C76.9505 19.722 73.848 19.722 71.9345 21.6356C70.0209 23.5491 70.0209 26.6516 71.9345 28.5652C73.848 30.4787 76.9505 30.4787 78.864 28.5652Z" fill="#FF9500"/>
    <path d="M75.4 18.7C71.9 18.7 69 21.6 69 25.1C69 28.6 71.9 31.5 75.4 31.5C78.9 31.5 81.8 28.6 81.8 25.1C81.8 21.6 78.9 18.7 75.4 18.7ZM75.4 30.7C72.3 30.7 69.8 28.2 69.8 25.1C69.8 22 72.3 19.5 75.4 19.5C78.5 19.5 81 22 81 25.1C81 28.2 78.5 30.7 75.4 30.7Z" fill="#FF9500"/>
    <path d="M79.9295 48.3745C80.9652 45.8743 79.7779 43.0078 77.2777 41.9722C74.7774 40.9365 71.911 42.1238 70.8753 44.6241C69.8397 47.1243 71.0269 49.9907 73.5272 51.0264C76.0275 52.0621 78.8939 50.8748 79.9295 48.3745Z" fill="#1BADF8"/>
    <path d="M75.4 40.1C71.9 40.1 69 43 69 46.5C69 50 71.9 52.9 75.4 52.9C78.9 52.9 81.8 50 81.8 46.5C81.8 43 78.9 40.1 75.4 40.1ZM75.4 52.1C72.3 52.1 69.8 49.6 69.8 46.5C69.8 43.4 72.3 40.9 75.4 40.9C78.5 40.9 81 43.4 81 46.5C81 49.6 78.5 52.1 75.4 52.1Z" fill="#1BADF8"/>
    <path d="M75.4 61.5C71.9 61.5 69 64.4 69 67.9C69 71.4 71.9 74.3 75.4 74.3C78.9 74.3 81.8 71.4 81.8 67.9C81.8 64.4 78.9 61.5 75.4 61.5ZM75.4 73.5C72.3 73.5 69.8 71 69.8 67.9C69.8 64.8 72.3 62.3 75.4 62.3C78.5 62.3 81 64.8 81 67.9C81 71 78.5 73.5 75.4 73.5Z" fill="#63DA38"/>
    <path d="M76.5256 72.6613C79.1593 72.0394 80.7902 69.4002 80.1683 66.7665C79.5464 64.1329 76.9072 62.502 74.2736 63.1239C71.6399 63.7458 70.009 66.3849 70.6309 69.0186C71.2528 71.6523 73.892 73.2831 76.5256 72.6613Z" fill="#63DA38"/>
</svg>
