<svg viewBox="0 0 300 300" fill="none"
    xmlns="http://www.w3.org/2000/svg">
    <path fill-rule="evenodd" clip-rule="evenodd" d="M294.1 260C291.2 267.4 284.5 277.8 274.9 285.2C269.4 289.4 262.8 293.5 253.8 296.2C244.2 299.1 232.3 300 217.5 300H82.5C67.7 300 55.9 299 46.2 296.2C37.2 293.5 30.6 289.5 25.1 285.2C15.6 277.9 8.8 267.4 5.9 260C0.0999999 245.1 0 228.2 0 217.5V82.5C0 71.8 0.0999999 54.9 5.9 40C8.8 32.6 15.5 22.2 25.1 14.8C30.6 10.6 37.2 6.5 46.2 3.8C55.9 1 67.7 0 82.5 0H217.5C232.3 0 244.1 1 253.8 3.8C262.8 6.5 269.4 10.5 274.9 14.8C284.4 22.1 291.2 32.6 294.1 40C300 54.9 300 71.9 300 82.5V217.5C300 228.2 299.9 245.1 294.1 260Z" fill="url(#paint0_linear_1_69)"/>
    <path d="M175.7 181.1C175.3 177.5 174.1 174.9 171.7 172.5C167.2 167.8 159.3 164.7 150 164.7C140.7 164.7 132.8 167.7 128.3 172.5C126 175 124.7 177.5 124.3 181.1C123.5 188.1 124 194.1 124.8 203.8C125.6 213 127.1 225.3 129 237.7C130.4 246.6 131.5 251.4 132.5 254.8C134.2 260.4 140.3 265.2 150 265.2C159.7 265.2 165.9 260.3 167.5 254.8C168.5 251.4 169.6 246.6 171 237.7C172.9 225.2 174.4 213 175.2 203.8C176.1 194.1 176.5 188.1 175.7 181.1Z" fill="white"/>
    <path d="M174.6 130.1C174.6 143.7 163.6 154.7 150 154.7C136.4 154.7 125.4 143.7 125.4 130.1C125.4 116.5 136.4 105.5 150 105.5C163.6 105.5 174.6 116.6 174.6 130.1Z" fill="white"/>
    <path d="M149.7 33.2C92.3 33.4 45.3 80 44.5 137.4C43.9 183.9 73.6 223.7 115.1 238.3C116.1 238.7 117.1 237.8 117 236.8C116.5 233.2 115.9 229.6 115.5 226C115.3 224.7 114.5 223.7 113.4 223.1C80.6 208.8 57.7 175.9 58.1 137.8C58.6 87.8 99.4 47.1 149.3 46.7C200.4 46.3 242.1 87.7 242.1 138.7C242.1 176.4 219.3 208.8 186.8 223.1C185.6 223.6 184.8 224.7 184.7 226C184.2 229.6 183.7 233.2 183.2 236.8C183 237.9 184.1 238.7 185.1 238.3C226.2 223.9 255.7 184.7 255.7 138.7C255.5 80.5 208 33.1 149.7 33.2Z" fill="white"/>
    <path d="M147.3 68.2C109.9 69.6 79.9 100.5 79.4 137.9C79.1 162.5 91.4 184.3 110.3 197.2C111.2 197.8 112.5 197.1 112.5 196C112.2 191.7 112.2 187.9 112.4 183.9C112.5 182.6 112 181.4 111 180.5C99.5 169.7 92.5 154.3 92.9 137.3C93.7 107.3 117.8 82.9 147.8 81.7C180.4 80.4 207.2 106.6 207.2 138.8C207.2 155.2 200.2 170 189.1 180.5C188.2 181.4 187.7 182.6 187.7 183.9C187.9 187.8 187.8 191.6 187.6 195.9C187.5 197 188.8 197.8 189.8 197.1C208.4 184.4 220.7 162.9 220.7 138.7C220.8 98.9 187.5 66.6 147.3 68.2Z" fill="white"/>
    <defs>
        <linearGradient id="paint0_linear_1_69" x1="150" y1="0" x2="150" y2="300" gradientUnits="userSpaceOnUse">
            <stop stop-color="#F452FF"/>
            <stop offset="1" stop-color="#832BC1"/>
        </linearGradient>
    </defs>
</svg>
