<svg viewBox="0 0 90 90" fill="none"
    xmlns="http://www.w3.org/2000/svg">
    <path d="M58.6 0C67.6 0 72.1 0 77 1.5C82.3 3.4 86.5 7.6 88.4 12.9C90 17.8 90 22.4 90 31.4V58.6C90 67.6 90 72.1 88.5 77C86.6 82.3 82.4 86.5 77.1 88.4C72.1 90 67.6 90 58.6 90H31.4C22.4 90 17.9 90 13 88.5C7.6 86.5 3.5 82.4 1.5 77C0 72.2 0 67.7 0 58.6V31.4C0 22.4 0 17.9 1.5 13C3.5 7.7 7.6 3.5 13 1.6C17.8 -1.19209e-07 22.3 0 31.4 0H58.6Z" fill="url(#paint0_linear_1_21)"/>
    <path d="M38.5 70.7C40.6 71 42.7 71.2 44.9 71.2C63.1 71.2 77.9 58.9 77.9 43.8C77.9 28.7 63.2 16.5 45 16.5C26.8 16.5 12 28.8 12 43.9C12 53.8 18.3 62.4 27.7 67.2C27.7 67.5 27.7 67.8 27.7 68.2C27.7 71.1 22.9 74.9 23.2 74.9C28 74.9 31.4 71.9 33.7 71.2C35.6 70.7 36.7 70.6 38.5 70.7Z" fill="white"/>
    <defs>
        <linearGradient id="paint0_linear_1_21" x1="44.986" y1="0.028" x2="44.986" y2="89.998" gradientUnits="userSpaceOnUse">
            <stop stop-color="#67FF81"/>
            <stop offset="1" stop-color="#01B41F"/>
        </linearGradient>
    </defs>
</svg>
