<svg viewBox="0 0 75 64" fill="none" xmlns="http://www.w3.org/2000/svg">
    <path fill-rule="evenodd" clip-rule="evenodd"
        d="M36.08 4.09C38.89 4.09 41.45 5.71001 42.66 8.25001L52.3 28.53C52.3 28.53 52.3 28.54 52.29 28.54C52.29 28.54 52.29 28.53 52.3 28.53C54.56 25.76 56.2 22.5 56.9 19C57.69 15.05 61.53 12.5 65.48 13.28C66.4191 13.4676 67.3119 13.8384 68.1077 14.3711C68.9034 14.9039 69.5863 15.5882 70.1175 16.385C70.6487 17.1818 71.0177 18.0754 71.2034 19.0148C71.3892 19.9542 71.388 20.921 71.2 21.86C69.58 29.95 65.06 37.18 58.94 42.49L62.44 49.85C64.38 53.93 62.35 58.92 58.05 60.2L57.92 60.24C57.28 60.42 56.62 60.51 55.98 60.51C53.25 60.51 50.64 58.97 49.39 56.35L46.28 49.81L39.95 36.49L36.84 29.95C36.7724 29.8084 36.6661 29.6888 36.5334 29.605C36.4007 29.5213 36.2469 29.4769 36.09 29.4769C35.9331 29.4769 35.7793 29.5213 35.6466 29.605C35.5139 29.6888 35.4076 29.8084 35.34 29.95L32.16 36.63C27.31 35.6 22.43 32.6 19.67 28.95L29.5 8.27001C30.0852 7.01924 31.0152 5.96147 32.1808 5.22101C33.3464 4.48056 34.6991 4.08819 36.08 4.09ZM8.53 22.07C12.26 20.56 16.51 22.36 18.02 26.1C18.41 27.07 18.97 28.02 19.66 28.93L19.67 28.94L20 29.36C20.03 29.4 20.06 29.43 20.09 29.47L20.18 29.58C20.23 29.63 20.27 29.69 20.32 29.74C20.33 29.75 20.34 29.76 20.34 29.77L20.32 29.74C20.51 29.97 20.72 30.19 20.93 30.41C20.94 30.42 20.94 30.43 20.95 30.43C21.64 31.15 22.41 31.83 23.24 32.46C23.63 32.76 24.03 33.04 24.44 33.32C24.48 33.34 24.51 33.37 24.55 33.39C26.86 34.91 29.51 36.05 32.15 36.61C33.27 36.85 34.39 36.98 35.48 36.99H35.62C37.07 36.99 38.52 36.81 39.94 36.47L46.27 49.79C42.85 50.94 39.26 51.57 35.62 51.57C32.34 51.57 29.02 51 25.8 49.97L22.77 56.34C22.3469 57.2297 21.7477 58.0244 21.0088 58.676C20.2699 59.3275 19.4065 59.8225 18.4708 60.131C17.5352 60.4394 16.5467 60.555 15.5651 60.4706C14.5835 60.3862 13.6293 60.1036 12.76 59.64C9.28001 57.79 8.01 53.43 9.7 49.87L13.02 42.89C9.27 39.72 6.28001 35.87 4.55001 31.69L4.5 31.56C3 27.83 4.8 23.58 8.53 22.07Z"
        fill="black" />
    <path fill-rule="evenodd" clip-rule="evenodd"
        d="M36.08 4.09C38.89 4.09 41.45 5.71001 42.66 8.25001L52.3 28.53C52.3 28.53 52.3 28.54 52.29 28.54C52.29 28.54 52.29 28.53 52.3 28.53C54.56 25.76 56.2 22.5 56.9 19C57.69 15.05 61.53 12.5 65.48 13.28C66.4191 13.4676 67.3119 13.8384 68.1077 14.3711C68.9034 14.9039 69.5863 15.5882 70.1175 16.385C70.6487 17.1818 71.0177 18.0754 71.2034 19.0148C71.3892 19.9542 71.388 20.921 71.2 21.86C69.58 29.95 65.06 37.18 58.94 42.49L62.44 49.85C64.38 53.93 62.35 58.92 58.05 60.2L57.92 60.24C57.28 60.42 56.62 60.51 55.98 60.51C53.25 60.51 50.64 58.97 49.39 56.35L46.28 49.81L39.95 36.49L36.84 29.95C36.7724 29.8084 36.6661 29.6888 36.5334 29.605C36.4007 29.5213 36.2469 29.4769 36.09 29.4769C35.9331 29.4769 35.7793 29.5213 35.6466 29.605C35.5139 29.6888 35.4076 29.8084 35.34 29.95L32.16 36.63C27.31 35.6 22.43 32.6 19.67 28.95L29.5 8.27001C30.0852 7.01924 31.0152 5.96147 32.1808 5.22101C33.3464 4.48056 34.6991 4.08819 36.08 4.09ZM8.53 22.07C12.26 20.56 16.51 22.36 18.02 26.1C18.41 27.07 18.97 28.02 19.66 28.93L19.67 28.94L20 29.36C20.03 29.4 20.06 29.43 20.09 29.47L20.18 29.58C20.23 29.63 20.27 29.69 20.32 29.74C20.33 29.75 20.34 29.76 20.34 29.77L20.32 29.74C20.51 29.97 20.72 30.19 20.93 30.41C20.94 30.42 20.94 30.43 20.95 30.43C21.64 31.15 22.41 31.83 23.24 32.46C23.63 32.76 24.03 33.04 24.44 33.32C24.48 33.34 24.51 33.37 24.55 33.39C26.86 34.91 29.51 36.05 32.15 36.61C33.27 36.85 34.39 36.98 35.48 36.99H35.62C37.07 36.99 38.52 36.81 39.94 36.47L46.27 49.79C42.85 50.94 39.26 51.57 35.62 51.57C32.34 51.57 29.02 51 25.8 49.97L22.77 56.34C22.3469 57.2297 21.7477 58.0244 21.0088 58.676C20.2699 59.3275 19.4065 59.8225 18.4708 60.131C17.5352 60.4394 16.5467 60.555 15.5651 60.4706C14.5835 60.3862 13.6293 60.1036 12.76 59.64C9.28001 57.79 8.01 53.43 9.7 49.87L13.02 42.89C9.27 39.72 6.28001 35.87 4.55001 31.69L4.5 31.56C3 27.83 4.8 23.58 8.53 22.07Z"
        fill="white" />
    <path
        d="M52.3 28.53L42.66 8.25001C41.45 5.71001 38.89 4.09 36.08 4.09C34.6991 4.08819 33.3464 4.48056 32.1808 5.22101C31.0152 5.96147 30.0852 7.01924 29.5 8.27001L19.67 28.95C22.43 32.6 27.31 35.6 32.16 36.63L35.34 29.95C35.4076 29.8084 35.5139 29.6888 35.6466 29.605C35.7793 29.5213 35.9331 29.4769 36.09 29.4769C36.2469 29.4769 36.4007 29.5213 36.5334 29.605C36.6661 29.6888 36.7724 29.8084 36.84 29.95L39.95 36.49M52.3 28.53C52.3 28.53 52.3 28.54 52.29 28.54C52.29 28.54 52.29 28.53 52.3 28.53ZM52.3 28.53C54.56 25.76 56.2 22.5 56.9 19C57.69 15.05 61.53 12.5 65.48 13.28C66.4191 13.4676 67.3119 13.8384 68.1077 14.3711C68.9034 14.9039 69.5863 15.5882 70.1175 16.385C70.6487 17.1818 71.0177 18.0754 71.2034 19.0148C71.3892 19.9542 71.388 20.921 71.2 21.86C69.58 29.95 65.06 37.18 58.94 42.49L62.44 49.85C64.38 53.93 62.35 58.92 58.05 60.2L57.92 60.24C57.28 60.42 56.62 60.51 55.98 60.51C53.25 60.51 50.64 58.97 49.39 56.35L46.28 49.81L39.95 36.49M39.95 36.49H39.97M20.32 29.74C20.27 29.69 20.23 29.63 20.18 29.58L20.09 29.47C20.06 29.43 20.03 29.4 20 29.36L19.67 28.94L19.66 28.93C18.97 28.02 18.41 27.07 18.02 26.1C16.51 22.36 12.26 20.56 8.53 22.07C4.8 23.58 3 27.83 4.5 31.56L4.55001 31.69C6.28001 35.87 9.27 39.72 13.02 42.89L9.7 49.87C8.01 53.43 9.28001 57.79 12.76 59.64C13.6293 60.1036 14.5835 60.3862 15.5651 60.4706C16.5467 60.555 17.5352 60.4394 18.4708 60.131C19.4065 59.8225 20.2699 59.3275 21.0088 58.676C21.7477 58.0244 22.3469 57.2297 22.77 56.34L25.8 49.97C29.02 51 32.34 51.57 35.62 51.57C39.26 51.57 42.85 50.94 46.27 49.79L39.94 36.47C38.52 36.81 37.07 36.99 35.62 36.99H35.48C34.39 36.98 33.27 36.85 32.15 36.61C29.51 36.05 26.86 34.91 24.55 33.39C24.51 33.37 24.48 33.34 24.44 33.32C24.03 33.04 23.63 32.76 23.24 32.46C22.41 31.83 21.64 31.15 20.95 30.43C20.94 30.43 20.94 30.42 20.93 30.41C20.72 30.19 20.51 29.97 20.32 29.74ZM20.32 29.74C20.33 29.75 20.34 29.76 20.34 29.77L20.32 29.74Z"
        stroke="white" stroke-width="6.87" stroke-linejoin="round" />
    <path fill-rule="evenodd" clip-rule="evenodd"
        d="M25.8 49.97L32.15 36.61C27.3 35.58 22.42 32.58 19.66 28.93L13.02 42.89C16.71 46.02 21.14 48.48 25.8 49.97Z"
        fill="#1A007F" />
    <path fill-rule="evenodd" clip-rule="evenodd"
        d="M52.3 28.53C49.11 32.44 44.68 35.34 39.94 36.47L46.27 49.79C50.89 48.23 55.21 45.71 58.94 42.48L52.3 28.53Z"
        fill="#4E000A" />
    <path fill-rule="evenodd" clip-rule="evenodd"
        d="M13.02 42.89L9.7 49.87C8.01 53.42 9.28 57.79 12.76 59.64C16.45 61.6 20.99 60.07 22.77 56.34L25.8 49.97C21.121 48.4616 16.7803 46.0569 13.02 42.89Z"
        fill="#1A007F" />
    <path fill-rule="evenodd" clip-rule="evenodd"
        d="M65.48 13.29C64.541 13.102 63.5742 13.1008 62.6348 13.2866C61.6954 13.4723 60.8018 13.8413 60.005 14.3725C59.2082 14.9037 58.5239 15.5866 57.9911 16.3824C57.4584 17.1781 57.0876 18.071 56.9 19.01C56.2 22.51 54.56 25.77 52.3 28.54L58.93 42.5C65.05 37.19 69.57 29.96 71.19 21.87C71.98 17.91 69.42 14.07 65.48 13.29Z"
        fill="#FF9396" />
    <path fill-rule="evenodd" clip-rule="evenodd"
        d="M39.94 36.47C38.52 36.81 37.07 36.99 35.62 36.99C34.49 36.99 33.32 36.86 32.15 36.61C27.3 35.58 22.42 32.58 19.66 28.93C18.97 28.02 18.41 27.07 18.02 26.1C16.51 22.37 12.26 20.57 8.53 22.07C4.8 23.58 3 27.83 4.5 31.56C6.21 35.8 9.23 39.69 13.02 42.89C16.7767 46.0567 21.1141 48.4615 25.79 49.97C29 51 32.33 51.57 35.61 51.57C39.25 51.57 42.84 50.94 46.26 49.79L39.94 36.47Z"
        fill="#002DC8" />
    <path fill-rule="evenodd" clip-rule="evenodd"
        d="M62.43 49.84L58.93 42.48L52.3 28.53L52.29 28.54C52.29 28.54 52.29 28.53 52.3 28.53L42.66 8.25C42.0682 7.00581 41.1361 5.95472 39.9716 5.21848C38.807 4.48223 37.4578 4.09096 36.08 4.09C33.27 4.09 30.71 5.71 29.5 8.25L19.67 28.93C22.43 32.58 27.31 35.58 32.16 36.61L35.34 29.93C35.64 29.3 36.54 29.3 36.84 29.93L39.95 36.47L46.28 49.79L49.39 56.33C49.9813 57.5766 50.9147 58.6295 52.0815 59.3661C53.2482 60.1026 54.6002 60.4924 55.98 60.49C56.63 60.49 57.28 60.4 57.92 60.22C62.31 59.01 64.39 53.96 62.43 49.84Z"
        fill="#FF536A" />
    <path fill-rule="evenodd" clip-rule="evenodd"
        d="M25.8 49.97L32.15 36.61C27.3 35.58 22.42 32.58 19.66 28.93L13.02 42.89C16.71 46.02 21.14 48.48 25.8 49.97Z"
        fill="#1A007F" />
    <path fill-rule="evenodd" clip-rule="evenodd"
        d="M52.3 28.53C49.11 32.44 44.68 35.34 39.94 36.47L46.27 49.79C50.89 48.23 55.21 45.71 58.94 42.48L52.3 28.53Z"
        fill="#4E000A" />
    <path fill-rule="evenodd" clip-rule="evenodd"
        d="M13.02 42.89L9.70001 49.87C8.01001 53.42 9.28001 57.79 12.76 59.64C16.45 61.6 20.99 60.07 22.77 56.34L25.8 49.97C21.121 48.4616 16.7803 46.0569 13.02 42.89Z"
        fill="#1A007F" />
    <path fill-rule="evenodd" clip-rule="evenodd"
        d="M65.48 13.29C64.541 13.102 63.5742 13.1008 62.6348 13.2866C61.6954 13.4723 60.8018 13.8413 60.005 14.3725C59.2082 14.9037 58.5239 15.5866 57.9911 16.3824C57.4584 17.1781 57.0876 18.071 56.9 19.01C56.2 22.51 54.56 25.77 52.3 28.54L58.93 42.5C65.05 37.19 69.57 29.96 71.19 21.87C71.98 17.91 69.42 14.07 65.48 13.29Z"
        fill="#FF9396" />
    <path fill-rule="evenodd" clip-rule="evenodd"
        d="M39.94 36.47C38.52 36.81 37.07 36.99 35.62 36.99C34.49 36.99 33.32 36.86 32.15 36.61C27.3 35.58 22.42 32.58 19.66 28.93C18.97 28.02 18.41 27.07 18.02 26.1C16.51 22.37 12.26 20.57 8.53 22.07C4.8 23.58 3 27.83 4.5 31.56C6.21 35.8 9.23 39.69 13.02 42.89C16.7767 46.0567 21.1141 48.4615 25.79 49.97C29 51 32.33 51.57 35.61 51.57C39.25 51.57 42.84 50.94 46.26 49.79L39.94 36.47Z"
        fill="#002DC8" />
    <path fill-rule="evenodd" clip-rule="evenodd"
        d="M62.43 49.84L58.93 42.48L52.3 28.53L52.29 28.54C52.29 28.54 52.29 28.53 52.3 28.53L42.66 8.25C42.0682 7.0058 41.1361 5.95471 39.9716 5.21847C38.807 4.48223 37.4578 4.09096 36.08 4.09C33.27 4.09 30.71 5.71 29.5 8.25L19.67 28.93C22.43 32.58 27.31 35.58 32.16 36.61L35.34 29.93C35.64 29.3 36.54 29.3 36.84 29.93L39.95 36.47L46.28 49.79L49.39 56.33C49.9813 57.5766 50.9147 58.6295 52.0815 59.3661C53.2482 60.1026 54.6002 60.4924 55.98 60.49C56.63 60.49 57.28 60.4 57.92 60.22C62.31 59.01 64.39 53.96 62.43 49.84Z"
        fill="#FF536A" />
</svg>