<svg viewBox="0 0 24 30" fill="none"
    xmlns="http://www.w3.org/2000/svg">
    <path d="M7.70883 25.552C6.35819 24.3131 5.9639 21.71 6.52661 19.8242C7.50233 21.0132 8.85426 21.3898 10.2546 21.6024C12.4164 21.9305 14.5395 21.8078 16.5477 20.8163C16.7774 20.7028 16.9897 20.5519 17.2407 20.399C17.4292 20.9475 17.4782 21.5014 17.4124 22.065C17.2524 23.4378 16.5716 24.4982 15.4887 25.302C15.0557 25.6235 14.5975 25.9109 14.1503 26.2141C12.7765 27.1459 12.4048 28.2384 12.921 29.8277C12.9333 29.8664 12.9443 29.9051 12.972 29.9996C12.2705 29.6846 11.7582 29.226 11.3678 28.6229C10.9554 27.9864 10.7592 27.2823 10.7489 26.5205C10.7437 26.1498 10.7437 25.7757 10.694 25.4103C10.5727 24.5192 10.1559 24.1202 9.37051 24.0972C8.56451 24.0736 7.92694 24.5736 7.75787 25.361C7.74497 25.4214 7.72625 25.4811 7.70754 25.5513L7.70883 25.552Z" fill="currentColor"/>
    <path d="M0 19.5103C0 19.5103 3.99947 17.5552 8.01012 17.5552L11.034 8.16461C11.1472 7.71047 11.4778 7.40185 11.8509 7.40185C12.2241 7.40185 12.5547 7.71047 12.6679 8.16461L15.6918 17.5552C20.4418 17.5552 23.7019 19.5103 23.7019 19.5103C23.7019 19.5103 16.9085 0.939907 16.8952 0.902648C16.7002 0.353607 16.3711 0 15.9273 0H7.77531C7.33154 0 7.01567 0.353607 6.80741 0.902648C6.79274 0.939204 0 19.5103 0 19.5103Z" fill="currentColor"/>
</svg>