<svg viewBox="0 0 64 62" fill="none"
    xmlns="http://www.w3.org/2000/svg">
    <path d="M3.18998 46.9998C2.53998 48.0598 1.80998 49.2898 1.23998 50.2698C0.973211 50.7206 0.893949 51.2581 1.01923 51.7667C1.14452 52.2753 1.46435 52.7145 1.90998 52.9898L14.91 60.9898C15.1359 61.1293 15.3873 61.2224 15.6495 61.2637C15.9118 61.305 16.1797 61.2936 16.4375 61.2304C16.6953 61.1671 16.938 61.0531 17.1513 60.895C17.3646 60.737 17.5443 60.538 17.68 60.3098C18.19 59.4398 18.86 58.3098 19.59 57.0998C24.74 48.5998 29.93 49.6398 39.26 54.0998L52.15 60.2298C52.3916 60.3448 52.6539 60.4102 52.9212 60.422C53.1886 60.4338 53.4556 60.3918 53.7064 60.2986C53.9573 60.2053 54.1868 60.0627 54.3815 59.8791C54.5763 59.6955 54.7321 59.4747 54.84 59.2298L61.03 45.2298C61.2402 44.7492 61.2532 44.2052 61.0661 43.7152C60.879 43.2251 60.5069 42.8281 60.03 42.6098C57.31 41.3298 51.9 38.7698 47.03 36.4298C29.47 27.8898 14.58 28.4498 3.18998 46.9998Z" fill="url(#paint0_linear_227_247)"/>
    <path d="M61.48 15.1997C62.13 14.1397 62.86 12.8997 63.48 11.9297C63.7459 11.4777 63.8236 10.9394 63.6964 10.4306C63.5693 9.9219 63.2473 9.48345 62.8 9.20974L49.8 1.20974C49.5745 1.07185 49.3239 0.980022 49.0627 0.939572C48.8015 0.899122 48.5348 0.910854 48.2782 0.974087C48.0215 1.03732 47.78 1.1508 47.5674 1.30796C47.3549 1.46513 47.1757 1.66287 47.04 1.88974C46.52 2.75974 45.85 3.88974 45.12 5.09974C39.97 13.5997 34.79 12.5597 25.45 8.09974L12.52 1.99975C12.2789 1.88632 12.0175 1.82223 11.7513 1.81124C11.485 1.80024 11.2192 1.84257 10.9696 1.93573C10.7199 2.02889 10.4914 2.171 10.2974 2.35372C10.1034 2.53644 9.94792 2.75608 9.84003 2.99975L3.65003 16.9997C3.43982 17.4803 3.42685 18.0243 3.6139 18.5144C3.80095 19.0044 4.17306 19.4014 4.65003 19.6197C7.37003 20.8997 12.79 23.4497 17.65 25.7997C35.2 34.2697 50.09 33.7097 61.48 15.1997Z" fill="url(#paint1_linear_227_247)"/>
    <defs>
        <linearGradient id="paint0_linear_227_247" x1="60.64" y1="65.0898" x2="21.31" y2="42.4798" gradientUnits="userSpaceOnUse">
            <stop stop-color="#0050D3"/>
            <stop offset="0.94" stop-color="#007FFC"/>
            <stop offset="1" stop-color="#0082FF"/>
        </linearGradient>
        <linearGradient id="paint1_linear_227_247" x1="4.03003" y1="-2.92025" x2="43.36" y2="19.6797" gradientUnits="userSpaceOnUse">
            <stop stop-color="#0050D3"/>
            <stop offset="0.94" stop-color="#007FFC"/>
            <stop offset="1" stop-color="#0082FF"/>
        </linearGradient>
    </defs>
</svg>
