<svg viewBox="0 0 46 40" fill="none"
    xmlns="http://www.w3.org/2000/svg">
    <path d="M24.1639 4.25188C15.1961 4.25188 8.4483 10.5231 4.09609 22.8146C3.65663 23.8525 2.48539 24.369 1.42268 23.9938C0.359966 23.6185 -0.227167 22.481 0.0825144 21.3974C5.09948 7.19934 13.2019 0 24.1639 0C25.1545 0 25.1545 4.25188 24.1639 4.25188Z" fill="currentColor"/>
    <path d="M24.1638 39.9978C16.6852 40.0964 9.53228 36.9432 4.5601 31.356C4.02903 30.7662 3.86956 29.9301 4.1462 29.1862C5.48824 25.574 9.16317 17.1706 13.7536 17.1455C16.0865 17.1455 17.8299 19.0018 19.2347 20.4818C19.7005 20.9982 20.199 21.4842 20.7272 21.9367C22.6983 19.4431 24.3422 16.7076 25.6188 13.7967C26.148 12.7912 27.3728 12.3774 28.4035 12.8559C29.4341 13.3344 29.9084 14.537 29.4818 15.5902C24.4649 26.3391 21.7808 26.3391 20.9028 26.3391C18.9462 26.3391 17.5289 24.834 16.1618 23.3916C15.5472 22.7394 14.2679 21.3848 13.7787 21.3848C12.6875 21.573 10.317 25.3231 8.6113 29.437C12.7213 33.5639 18.3407 35.8298 24.1638 35.7082C32.5798 35.7082 38.8636 33.413 41.5727 29.437C40.6446 18.8136 34.7496 4.25188 24.1638 4.25188C23.1733 4.25188 23.1733 0 24.1638 0C38.4747 0 45.1097 18.2868 45.8748 29.8259C45.9069 30.2619 45.811 30.6978 45.5988 31.0801C42.2626 36.812 34.6493 39.9978 24.1638 39.9978Z" fill="currentColor"/>
</svg>
