<svg viewBox="0 0 100 97" fill="none" xmlns="http://www.w3.org/2000/svg">
    <path fill-rule="evenodd" clip-rule="evenodd"
        d="M50 0C77.6142 0 100 22.3858 100 50C100 71.2527 86.7403 89.4084 68.0424 96.6456C66.5432 94.3298 65.4168 92.6549 65.1876 92.315L65.1495 92.2587C65.1447 92.2515 57.0425 79.7253 56.4402 71.5563C55.444 58.0465 79.661 71.5932 85.483 50.0522C86.8426 45.0219 85.5205 42.8261 81.5165 43.465C56.9404 36.8838 67.4686 25.6634 40.6155 28.3894C37.2657 24.7965 33.7874 23 30.1808 23C25.8195 23 26.852 33.2764 26.852 33.2764C19.1205 41.3215 12.435 55.2893 6.7954 75.1799C2.47505 67.786 0 59.182 0 50C0 22.3858 22.3858 0 50 0Z"
        fill="#DD4C4F" />
</svg>