<svg viewBox="0 0 41 22" fill="none" xmlns="http://www.w3.org/2000/svg">
    <path
        d="M39.7 19.2C40.2 19.9 40.1 20.8 39.5 21.3C38.8 21.8 37.8 21.7 37.3 21.1L33.8 16.6L30.4 21C29.9 21.7 28.9 21.7 28.2 21.2C27.5 20.7 27.4 19.8 27.9 19.1L31.9 13.9L27.9 8.7C27.4 8 27.6 7 28.2 6.5C28.9 6 29.9 6.2 30.4 6.8L33.8 11.3L37.3 7C37.8 6.3 38.7 6.2 39.5 6.7C40.2 7.2 40.2 8.2 39.7 8.9L35.8 14L39.7 19.2ZM21.5 18.6C18.9 18.6 16.8 16.6 16.8 14C16.8 11.5 18.9 9.4 21.5 9.4C24.1 9.4 26.2 11.5 26.2 14C26.1 16.6 24 18.6 21.5 18.6ZM7.7 18.6C5.1 18.6 3 16.6 3 14C3 11.5 5.1 9.4 7.7 9.4C10.3 9.4 12.4 11.5 12.4 14C12.4 16.6 10.3 18.6 7.7 18.6ZM21.5 6.4C18.6 6.4 16 8 14.7 10.4C13.4 8 10.8 6.4 7.8 6.4C6 6.4 4.4 7 3.1 7.9V1.5C3.1 0.7 2.4 0 1.6 0C0.7 0 0 0.7 0 1.5V14.1C0.1 18.3 3.5 21.6 7.7 21.6C10.7 21.6 13.3 19.9 14.6 17.5C15.9 19.9 18.5 21.6 21.4 21.6C25.7 21.6 29.2 18.2 29.2 13.9C29.3 9.8 25.8 6.4 21.5 6.4Z"
        fill="currentColor" />
</svg>