<svg viewBox="0 0 80 70" fill="none"
    xmlns="http://www.w3.org/2000/svg">
    <path d="M71.09 20.74C70.93 20.57 70.76 20.4 70.59 20.24C70.42 20.08 70.26 19.9 70.09 19.74C69.92 19.58 69.76 19.4 69.59 19.24C69.42 19.08 69.26 18.9 69.09 18.74C68.92 18.58 68.76 18.4 68.59 18.24C68.42 18.08 68.26 17.9 68.09 17.74C67.92 17.58 67.76 17.4 67.59 17.24C72.5502 22.1147 75.3918 28.7463 75.5 35.7C75.5 52.27 58.68 65.75 38 65.75C26.42 65.75 16.06 61.52 9.17004 54.89L9.67004 55.39L10.17 55.89L10.67 56.39L11.17 56.89L11.67 57.39L12.17 57.89L12.67 58.39C19.55 65.3 30.14 69.75 42 69.75C62.68 69.75 79.5 56.27 79.5 39.75C79.5 32.69 76.46 26 71.09 20.74Z" fill="black"/>
    <path d="M73 35.7C73 50.91 57.33 63.24 38 63.24C18.67 63.24 3 50.91 3 35.7C3 26.27 9 17.94 18.22 13C27.44 8.06 33.18 3 38 3C42.82 3 46.94 7.13 57.78 13C67 17.94 73 26.27 73 35.7Z" fill="#FBF0DF"/>
    <path d="M73 35.6999C72.9951 33.746 72.726 31.8017 72.2 29.9199C69.47 63.2199 28.85 64.8199 12.88 54.8599C20.059 60.4243 28.9181 63.3797 38 63.2399C57.3 63.2399 73 50.8899 73 35.6999Z" fill="#F6DECE"/>
    <path d="M24.53 11.17C29 8.49 34.94 3.46 40.78 3.45C39.8816 3.1596 38.9442 3.00786 38 3C35.58 3 33 4.25 29.75 6.13C28.62 6.79 27.45 7.52 26.21 8.28C23.88 9.72 21.21 11.35 18.21 12.98C8.69 18.13 3 26.62 3 35.7C3 36.1 3 36.5 3 36.89C9.06 15.48 20.07 13.85 24.53 11.17Z" fill="#FFFEFC"/>
    <path fill-rule="evenodd" clip-rule="evenodd" d="M35.12 5.53004C35.134 7.89126 34.6382 10.2277 33.6666 12.3798C32.695 14.5319 31.2703 16.4489 29.49 18C29.21 18.25 29.43 18.73 29.79 18.59C33.16 17.28 37.71 13.36 35.79 5.45004C35.71 5.00004 35.12 5.12004 35.12 5.53004ZM37.39 5.53004C38.6136 7.52647 39.3909 9.76388 39.6688 12.0889C39.9467 14.4139 39.7186 16.7715 39 19C38.88 19.35 39.31 19.65 39.55 19.36C41.74 16.56 43.65 11 37.93 5.00004C37.64 4.74004 37.19 5.14004 37.39 5.49004V5.53004ZM40.15 5.36004C42.0661 6.71659 43.6691 8.46827 44.8507 10.4969C46.0324 12.5256 46.7653 14.7841 47 17.12C46.9899 17.2042 47.0125 17.2891 47.0633 17.357C47.114 17.4249 47.189 17.4707 47.2726 17.4848C47.3561 17.499 47.442 17.4804 47.5123 17.433C47.5825 17.3855 47.6318 17.3129 47.65 17.23C48.57 13.74 48.05 7.79004 40.48 4.70004C40.08 4.54004 39.82 5.08004 40.15 5.32004V5.36004ZM21.69 15.76C23.9692 15.0791 26.0795 13.9258 27.8835 12.3751C29.6874 10.8244 31.1445 8.91123 32.16 6.76004C32.34 6.40004 32.91 6.54004 32.82 6.94004C31.09 14.94 25.3 16.61 21.7 16.39C21.32 16.4 21.33 15.87 21.69 15.76Z" fill="#CCBEA7"/>
    <path d="M38 65.75C17.32 65.75 0.5 52.27 0.5 35.7C0.5 25.7 6.68 16.37 17.03 10.78C20.03 9.18 22.6 7.57 24.89 6.16C26.15 5.38 27.34 4.65 28.49 3.97C32 1.89 35 0.5 38 0.5C41 0.5 43.62 1.7 46.9 3.64C47.9 4.21 48.9 4.83 49.97 5.51C52.46 7.05 55.27 8.79 58.97 10.78C69.32 16.37 75.5 25.69 75.5 35.7C75.5 52.27 58.68 65.75 38 65.75ZM38 3C35.58 3 33 4.25 29.75 6.13C28.62 6.79 27.45 7.52 26.21 8.28C23.88 9.72 21.21 11.35 18.21 12.98C8.69 18.13 3 26.62 3 35.7C3 50.89 18.7 63.25 38 63.25C57.3 63.25 73 50.89 73 35.7C73 26.62 67.31 18.13 57.78 13C54 11 51.05 9.12 48.66 7.64C47.57 6.97 46.57 6.35 45.66 5.8C42.63 4 40.42 3 38 3Z" fill="black"/>
    <path d="M45.0501 43C44.6009 44.8399 43.5783 46.4894 42.1301 47.71C41.0429 48.764 39.6354 49.4255 38.1301 49.59C36.5796 49.4516 35.1227 48.7884 34.0001 47.71C32.5667 46.4836 31.5585 44.8348 31.1201 43C31.1056 42.8911 31.1162 42.7803 31.1511 42.6761C31.186 42.5719 31.2443 42.4771 31.3215 42.3989C31.3987 42.3207 31.4928 42.2612 31.5966 42.225C31.7003 42.1888 31.811 42.1768 31.9201 42.19H44.2601C44.3684 42.1785 44.4779 42.1917 44.5804 42.2286C44.6829 42.2656 44.7756 42.3253 44.8517 42.4033C44.9278 42.4812 44.9851 42.5755 45.0195 42.6788C45.0539 42.7822 45.0643 42.892 45.0501 43Z" fill="#B71422"/>
    <path d="M34.0001 47.7902C35.1204 48.8691 36.572 49.5386 38.1201 49.6902C39.6646 49.5364 41.1123 48.8671 42.2301 47.7902C42.5876 47.4569 42.9217 47.0994 43.2301 46.7202C42.614 46.0213 41.8616 45.4558 41.0189 45.0586C40.1762 44.6613 39.2612 44.4407 38.3301 44.4102C37.3338 44.4338 36.3581 44.6991 35.4871 45.1834C34.6162 45.6677 33.8759 46.3563 33.3301 47.1902C33.5601 47.4002 33.7601 47.6002 34.0001 47.7902Z" fill="#FF6164"/>
    <path d="M34.16 47.0002C34.6558 46.3593 35.2904 45.8392 36.0162 45.4789C36.7419 45.1187 37.5398 44.9276 38.35 44.9202C39.8476 44.9643 41.2745 45.5672 42.35 46.6102C42.58 46.3602 42.8 46.1002 43.01 45.8402C41.7378 44.6286 40.0566 43.9397 38.3 43.9102C37.3613 43.9183 36.436 44.1341 35.5905 44.5421C34.7451 44.9501 34.0004 45.5403 33.41 46.2702C33.6465 46.527 33.8969 46.7707 34.16 47.0002Z" fill="black"/>
    <path d="M38.0901 50.1901C36.4237 50.0441 34.8555 49.3393 33.6401 48.1901C32.0921 46.8808 31.0026 45.1116 30.5301 43.1401C30.4962 42.9646 30.5019 42.7837 30.5469 42.6107C30.5919 42.4377 30.675 42.2769 30.7901 42.1401C30.9271 41.9746 31.1002 41.8426 31.296 41.7542C31.4918 41.6658 31.7053 41.6234 31.9201 41.6301H44.2601C44.4745 41.6256 44.6872 41.669 44.8827 41.7572C45.0783 41.8455 45.2516 41.9763 45.3901 42.1401C45.504 42.2774 45.5857 42.4385 45.6289 42.6116C45.6722 42.7847 45.676 42.9653 45.6401 43.1401C45.1676 45.1116 44.078 46.8808 42.5301 48.1901C41.3172 49.3372 39.7529 50.0419 38.0901 50.1901ZM31.9201 42.7901C31.7601 42.7901 31.7201 42.8601 31.7101 42.8801C32.1328 44.5898 33.089 46.1204 34.4401 47.2501C35.428 48.2234 36.7125 48.8393 38.0901 49.0001C39.464 48.8411 40.7471 48.233 41.7401 47.2701C43.0869 46.1385 44.0394 44.6082 44.4601 42.9001C44.4382 42.8681 44.408 42.8428 44.3727 42.8269C44.3374 42.811 44.2984 42.8052 44.2601 42.8101L31.9201 42.7901Z" fill="black"/>
    <path d="M53.22 43.62C56.4509 43.62 59.07 42.0798 59.07 40.18C59.07 38.2801 56.4509 36.74 53.22 36.74C49.9891 36.74 47.37 38.2801 47.37 40.18C47.37 42.0798 49.9891 43.62 53.22 43.62Z" fill="#FEBBD0"/>
    <path d="M22.95 43.62C26.1808 43.62 28.8 42.0798 28.8 40.18C28.8 38.2801 26.1808 36.74 22.95 36.74C19.7191 36.74 17.1 38.2801 17.1 40.18C17.1 42.0798 19.7191 43.62 22.95 43.62Z" fill="#FEBBD0"/>
    <path fill-rule="evenodd" clip-rule="evenodd" d="M25.7 38.8C26.7901 38.802 27.8564 38.4805 28.7639 37.8763C29.6713 37.272 30.3791 36.4122 30.7977 35.4055C31.2162 34.3989 31.3268 33.2907 31.1153 32.2212C30.9038 31.1517 30.3798 30.169 29.6096 29.3974C28.8395 28.6258 27.8577 28.1001 26.7886 27.8866C25.7195 27.6732 24.6111 27.7818 23.6037 28.1985C22.5963 28.6152 21.7351 29.3215 21.1293 30.2278C20.5234 31.1341 20.2 32.1998 20.2 33.29C20.1999 34.7496 20.7791 36.1496 21.8103 37.1827C22.8414 38.2157 24.2403 38.7974 25.7 38.8ZM50.47 38.8C51.5614 38.8079 52.6306 38.4915 53.542 37.8909C54.4533 37.2903 55.1658 36.4326 55.589 35.4265C56.0121 34.4204 56.127 33.3113 55.9189 32.2398C55.7108 31.1683 55.1892 30.1828 54.4203 29.4082C53.6513 28.6336 52.6696 28.1049 51.5997 27.889C50.5298 27.6731 49.4199 27.7799 48.4107 28.1957C47.4016 28.6116 46.5386 29.3178 45.9314 30.2247C45.3242 31.1317 45 32.1986 45 33.29C44.9973 34.7453 45.5715 36.1422 46.5967 37.175C47.622 38.2078 49.0147 38.7921 50.47 38.8Z" fill="black"/>
    <path fill-rule="evenodd" clip-rule="evenodd" d="M23.9999 33.64C24.4098 33.642 24.811 33.5222 25.1527 33.296C25.4944 33.0697 25.7613 32.7472 25.9195 32.3691C26.0777 31.991 26.1201 31.5745 26.0414 31.1723C25.9626 30.7701 25.7663 30.4003 25.4772 30.1098C25.1881 29.8193 24.8193 29.6212 24.4175 29.5405C24.0157 29.4598 23.5989 29.5002 23.2201 29.6566C22.8413 29.813 22.5174 30.0783 22.2895 30.4189C22.0616 30.7595 21.9399 31.1601 21.9399 31.57C21.9399 32.1172 22.1567 32.6422 22.5427 33.0302C22.9287 33.4181 23.4527 33.6373 23.9999 33.64ZM48.7699 33.64C49.1798 33.642 49.581 33.5222 49.9227 33.296C50.2644 33.0697 50.5313 32.7472 50.6895 32.3691C50.8477 31.991 50.8901 31.5745 50.8114 31.1723C50.7326 30.7701 50.5363 30.4003 50.2472 30.1098C49.9581 29.8193 49.5893 29.6212 49.1875 29.5405C48.7857 29.4598 48.3689 29.5002 47.9901 29.6566C47.6113 29.813 47.2874 30.0783 47.0595 30.4189C46.8316 30.7595 46.7099 31.1601 46.7099 31.57C46.7099 32.1138 46.9239 32.6358 47.3056 33.0232C47.6873 33.4105 48.2062 33.6321 48.7499 33.64H48.7699Z" fill="white"/>
</svg>
