<svg viewBox="0 0 209 221" fill="none" xmlns="http://www.w3.org/2000/svg">
    <path
        d="M196.771 101.334C181.215 81.13 187.224 62.2311 190.53 55.0473C191.144 53.8008 191.823 52.5836 192.557 51.4035C196.737 44.645 205.413 30.5618 191.331 20.7229C183.045 14.9185 176.769 17.1829 169.497 19.7662C162.265 22.6338 154.576 24.1913 146.794 24.3667C124.409 24.8105 107.804 4.90426 107.678 4.76341L104.425 0.729004L101.119 4.7448C100.959 4.93882 84.3878 24.7387 62.003 24.3507C54.2209 24.1727 46.5323 22.6152 39.3004 19.7502C31.991 17.1669 25.7151 14.884 17.4309 20.7229C3.36763 30.5618 12.0978 44.645 16.2051 51.4035C16.9716 52.5836 17.6766 53.7981 18.3202 55.0473C21.6264 62.2311 27.6352 81.1114 12.0791 101.334C1.41276 115.26 -2.32339 136.721 2.90562 154.594C7.56312 170.844 19.9146 183.842 35.9568 189.378C49.1495 194.192 59.7998 197.182 68.351 199.571C84.6736 204.134 93.6681 206.648 101.028 216.275L104.407 220.697L107.785 216.275C115.148 206.648 124.142 204.134 140.465 199.571C149.016 197.182 159.685 194.263 172.859 189.378C188.891 183.861 201.247 170.891 205.929 154.664C211.174 136.652 207.494 115.26 196.771 101.334ZM197.768 152.24C193.927 165.943 183.491 176.893 169.943 181.435C157.07 186.141 146.58 189.06 138.171 191.414C122.791 195.714 112.782 198.492 104.391 207.196C96.0156 198.526 86.0062 195.714 70.6076 191.414C62.2006 189.06 51.7106 186.107 38.8383 181.435C25.3092 176.879 14.8965 165.932 11.0669 152.24C6.55097 136.759 9.6622 118.375 18.817 106.485C37.698 81.9433 29.1308 58.2153 26.0356 51.5285C25.2584 49.9631 24.3931 48.4455 23.4397 46.9811C17.5725 37.4426 15.9007 32.1352 22.3021 27.641C23.9231 26.3254 25.9367 25.5733 28.0278 25.4989C30.9067 25.7726 33.7215 26.5088 36.3654 27.6755C44.4653 30.8541 53.0672 32.579 61.7733 32.773C82.1472 33.2328 97.8636 20.1383 104.444 13.6109C110.987 20.1383 126.631 33.2487 147.115 32.773C155.818 32.579 164.42 30.8541 172.52 27.6755C179.151 25.3048 181.907 24.3135 186.583 27.6755C192.985 32.1538 191.313 37.4798 185.445 47.0157C184.495 48.4801 183.627 49.9976 182.85 51.563C179.773 58.2498 171.187 81.9964 190.068 106.519C199.172 118.375 202.284 136.759 197.768 152.24Z"
        fill="currentColor" />
    <path
        d="M78.0933 92.5396C82.698 92.5396 86.4309 88.8247 86.4309 84.2422C86.4309 79.6597 82.698 75.9448 78.0933 75.9448C73.4886 75.9448 69.7557 79.6597 69.7557 84.2422C69.7557 88.8247 73.4886 92.5396 78.0933 92.5396Z"
        fill="currentColor" />
    <path
        d="M78.0933 101.584C73.5186 101.584 69.7557 105.328 69.7557 109.881V145.447H86.4148V109.793C86.3668 105.281 82.628 101.592 78.0933 101.584Z"
        fill="currentColor" />
    <path
        d="M104.407 92.5396C109.011 92.5396 112.744 88.8247 112.744 84.2422C112.744 79.6597 109.011 75.9448 104.407 75.9448C99.8018 75.9448 96.069 79.6597 96.069 84.2422C96.069 88.8247 99.8018 92.5396 104.407 92.5396Z"
        fill="currentColor" />
    <path
        d="M104.407 101.584C99.8345 101.584 96.069 105.328 96.069 109.881V145.447H112.728V109.793C112.68 105.281 108.941 101.592 104.407 101.584Z"
        fill="currentColor" />
    <path
        d="M130.739 92.5396C135.343 92.5396 139.076 88.8247 139.076 84.2422C139.076 79.6597 135.343 75.9448 130.739 75.9448C126.134 75.9448 122.401 79.6597 122.401 84.2422C122.401 88.8247 126.134 92.5396 130.739 92.5396Z"
        fill="currentColor" />
    <path
        d="M130.739 101.584C126.164 101.584 122.401 105.328 122.401 109.881V145.447H139.06V109.793C139.012 105.281 135.273 101.592 130.739 101.584Z"
        fill="currentColor" />
</svg>