<svg viewBox="0 0 376 120" fill="none" xmlns="http://www.w3.org/2000/svg">
    <path fill-rule="evenodd" clip-rule="evenodd"
        d="M316 0H256V120H312V14C312 12.9391 312.421 11.9217 313.172 11.1716C313.922 10.4214 314.939 10 316 10C317.061 10 318.078 10.4214 318.828 11.1716C319.579 11.9217 320 12.9391 320 14V120H376V60C376 26.863 349.137 0 316 0ZM188 120C221.137 120 248 93.137 248 60C248 26.863 221.137 0 188 0C154.863 0 128 26.863 128 60C128 93.137 154.863 120 188 120ZM188 10C186.939 10 185.922 10.4214 185.172 11.1716C184.421 11.9217 184 12.9391 184 14V106C184 107.061 184.421 108.078 185.172 108.828C185.922 109.579 186.939 110 188 110C189.061 110 190.078 109.579 190.828 108.828C191.579 108.078 192 107.061 192 106V14C192 12.9391 191.579 11.9217 190.828 11.1716C190.078 10.4214 189.061 10 188 10ZM120 0.131C88.728 2.19 64 28.207 64 60V120H120V0.131ZM56 0.131V119.87C24.728 117.81 0 91.793 0 60C0 28.207 24.728 2.19 56 0.131Z"
        fill="currentColor" />
</svg>