<svg viewBox="0 0 29 39" fill="none" xmlns="http://www.w3.org/2000/svg">
    <path
        d="M28.8772 12.5473C28.8772 12.3056 28.6355 12.064 28.2964 11.9673L24.233 10.4697C23.5563 10.1797 22.7823 10.518 22.7823 11.002V28.0271C22.7823 28.2688 23.024 28.5588 23.2657 28.6555L27.4258 30.1532C28.0548 30.3948 28.8772 30.0565 28.8772 29.5241V12.5473ZM21.2826 6.5982C21.2826 6.3558 21.0409 6.11413 20.7019 6.01749L16.6392 4.51982C15.9618 4.22981 15.1878 4.56816 15.1878 5.05217V15.4018C15.1878 15.6434 15.4294 15.9334 15.6711 16.0308L19.8312 17.5285C20.4602 17.7708 21.2826 17.4318 21.2826 16.9001V6.5982ZM21.2826 25.2211C21.2826 24.9794 21.0409 24.7377 20.7019 24.641L16.6392 23.1434C15.9618 22.8534 15.1878 23.1917 15.1878 23.6757V34.0253C15.1878 34.267 15.4294 34.557 15.6711 34.6536L19.8312 36.1513C20.4602 36.3936 21.2826 36.0546 21.2826 35.5223V25.2211ZM13.6881 27.3015C13.6881 27.0598 13.4464 26.8174 13.1074 26.7208L9.04457 25.2231C8.36383 24.9331 7.59319 25.2714 7.59319 25.7554V36.7837C7.59319 37.0254 7.83486 37.3161 8.07654 37.4128L12.2367 38.9104C12.8657 39.1528 13.6881 38.8138 13.6881 38.2821V27.3015ZM13.6881 2.1957C13.6881 1.95404 13.4464 1.71236 13.1074 1.6157L9.04457 0.118026C8.36383 -0.171978 7.59319 0.166359 7.59319 0.650382V11.6787C7.59319 11.921 7.83486 12.2111 8.07654 12.3077L12.2367 13.8054C12.8657 14.047 13.6881 13.7087 13.6881 13.1763V2.1957ZM6.09486 2.63139C6.09486 2.38972 5.85317 2.14737 5.51416 2.05071L1.45138 0.553031C0.774022 0.263028 0 0.601366 0 1.08539V36.3957C0 36.6374 0.241673 36.9274 0.484023 37.0241L4.64347 38.5217C5.27248 38.7634 6.09486 38.4251 6.09486 37.8927V2.63139Z"
        fill="#09363F" />
</svg>