<svg viewBox="0 0 41 41" fill="none" xmlns="http://www.w3.org/2000/svg">
    <path fill-rule="evenodd" clip-rule="evenodd"
        d="M35.2634 0H5.65517C4.15613 0.00260931 2.71923 0.599258 1.65924 1.65924C0.599258 2.71923 0.00260931 4.15613 0 5.65517V35.2634C0.00260931 36.7624 0.599258 38.1993 1.65924 39.2593C2.71923 40.3193 4.15613 40.916 5.65517 40.9186H35.2634C36.7624 40.916 38.1993 40.3193 39.2593 39.2593C40.3193 38.1993 40.916 36.7624 40.9186 35.2634V5.65517C40.916 4.15613 40.3193 2.71923 39.2593 1.65924C38.1993 0.599258 36.7624 0.00260931 35.2634 0ZM38.1157 35.2239C38.113 35.9787 37.8114 36.7016 37.2768 37.2344C36.7421 37.7672 36.0182 38.0663 35.2634 38.0663H5.65517C4.90212 38.0637 4.18066 37.7634 3.64817 37.2309C3.11568 36.6984 2.81538 35.977 2.81278 35.2239V5.61569C2.81539 4.86094 3.11705 4.13798 3.65167 3.60522C4.18629 3.07245 4.91028 2.7733 5.66504 2.7733H12.0407V25.0979C12.0178 25.2624 12.0431 25.43 12.1135 25.5804C12.1839 25.7308 12.2965 25.8576 12.4375 25.9453C12.5785 26.0331 12.7419 26.078 12.908 26.0748C13.0741 26.0715 13.2356 26.0201 13.373 25.9269L19.7388 22.9661C20.1669 22.7973 20.6431 22.7973 21.0712 22.9661L27.5455 25.9269C27.6838 26.0157 27.8444 26.0635 28.0087 26.0647C28.173 26.0659 28.3343 26.0204 28.4738 25.9336C28.6133 25.8468 28.7253 25.7222 28.7969 25.5743C28.8684 25.4264 28.8965 25.2612 28.8779 25.0979V2.81278H35.2535C36.0083 2.81277 36.7323 3.11192 37.2669 3.64469C37.8015 4.17746 38.1032 4.90042 38.1058 5.65517L38.1157 35.2239Z"
        fill="#4EC1FC" />
</svg>