<svg viewBox="0 0 31 24" fill="none" xmlns="http://www.w3.org/2000/svg">
    <path
        d="M26.0015 1.9529C24.0021 1.03845 21.8787 0.37198 19.6623 0C19.3833 0.48048 19.0733 1.13144 18.8563 1.64292C16.4989 1.30193 14.1585 1.30193 11.8336 1.64292C11.6166 1.13144 11.2911 0.48048 11.0276 0C8.79575 0.37198 6.67235 1.03845 4.6869 1.9529C0.672601 7.8736 -0.41235 13.6548 0.130124 19.3585C2.79599 21.2959 5.36889 22.4739 7.89682 23.2489C8.51679 22.4119 9.07477 21.5129 9.55525 20.5675C8.64079 20.2265 7.77283 19.808 6.93587 19.312C7.15286 19.1571 7.36986 18.9866 7.57135 18.8161C12.6241 21.1255 18.0969 21.1255 23.0876 18.8161C23.3046 18.9866 23.5061 19.1571 23.7231 19.312C22.8861 19.808 22.0182 20.2265 21.1037 20.5675C21.5842 21.5129 22.1422 22.4119 22.7621 23.2489C25.2885 22.4739 27.8769 21.2959 30.5288 19.3585C31.1952 12.7559 29.4733 7.0212 26.0015 1.9529ZM10.2527 15.8402C8.73376 15.8402 7.49382 14.4608 7.49382 12.7714C7.49382 11.082 8.70276 9.7025 10.2527 9.7025C11.7871 9.7025 13.0425 11.082 13.0115 12.7714C13.0115 14.4608 11.7871 15.8402 10.2527 15.8402ZM20.4373 15.8402C18.9183 15.8402 17.6768 14.4608 17.6768 12.7714C17.6768 11.082 18.8873 9.7025 20.4373 9.7025C21.9717 9.7025 23.2271 11.082 23.1961 12.7714C23.1961 14.4608 21.9872 15.8402 20.4373 15.8402Z"
        fill="currentColor" />
</svg>