<svg viewBox="0 0 110 103" fill="none" xmlns="http://www.w3.org/2000/svg">
    <path
        d="M30.1 65.9H13.4C15.6 73.5 19.7 80.3 25.8 86.3C35.4 95.9 46.9 100.7 60.5 100.7C63.2 100.7 65.8 100.5 68.4 100.1C78.6 98.6 87.5 94 95.1 86.3C101.2 80.3 105.3 73.5 107.5 65.9H100.7H90.8H30.1Z"
        fill="#2C2255" />
    <path
        d="M20.9 43.2H12.2C11.9 45.1 11.7 47.0999 11.6 49.0999H22H27.2H102.5H109.4C109.3 47.0999 109.1 45.1 108.8 43.2"
        fill="#2C2255" />
    <path
        d="M11.5 54.6C11.6 56.6 11.8 58.6 12.1 60.5H21.2H28.1H101.7H108.5C108.8 58.6 109 56.6 109.1 54.6"
        fill="#2C2255" />
    <path
        d="M107.4 37.7C105.2 30.1 101 23.2 95 17.2C87.3 9.60003 78.5 5.00002 68.3 3.50002C65.7 3.10002 63.1 2.90002 60.4 2.90002C46.9 2.90002 35.4 7.70003 25.7 17.2C19.7 23.3 15.6 30.1 13.3 37.7"
        fill="#2C2255" />
    <path
        d="M8.60001 51.8C8.60001 26 28 4.50001 53.2 0.800009C52.6 0.800009 51.9 0.800009 51.3 0.800009C23 0.700009 0.100006 23.6 0.100006 51.8C0.100006 80 23.1 102.9 51.4 102.9C52 102.9 52.7 102.9 53.3 102.9C28 99.1 8.60001 77.7 8.60001 51.8Z"
        fill="#F7941E" />
    <path
        d="M93.7 49.0999C93.5 47.0999 93.2 45.1 92.7 43.2H28.1C27.6 45.1 27.3 47.0999 27.1 49.0999H93.7Z"
        fill="url(#paint0_linear_112_284)" />
    <path d="M93.7 54.6H27.1C27.3 56.6 27.6 58.6 28.1 60.5H92.6C93.1 58.6 93.5 56.6 93.7 54.6Z"
        fill="url(#paint1_linear_112_284)" />
    <path
        d="M60.4 85.1999C73.8 85.1999 85.3 77.2999 90.7 65.8999H30.1C35.4 77.2999 47 85.1999 60.4 85.1999Z"
        fill="url(#paint2_linear_112_284)" />
    <path
        d="M22.2 54.5999H27.1H93.8H102.6H109.3C109.3 53.6999 109.4 52.9 109.4 52C109.4 51 109.4 50.1 109.3 49.2H102.7H93.9H27.1H21.9H11.5C11.4 50.1 11.4 51.1 11.4 52C11.4 52.9 11.4 53.7999 11.5 54.5999H22.2Z"
        fill="white" />
    <path
        d="M29.9 37.7H13.4C12.9 39.5 12.5 41.3 12.2 43.2H20.7H28H92.7H101.9H108.4C108.1 41.3 107.6 39.5 107.1 37.7"
        fill="white" />
    <path
        d="M102 60.5H92.8H28.2H21.3H12.2C12.5 62.4 12.9 64.2 13.4 66H30.2H90.9H100.9H107.4C107.9 64.2 108.4 62.4 108.7 60.5H102Z"
        fill="white" />
    <defs>
        <linearGradient id="paint0_linear_112_284" x1="60.4" y1="107.424" x2="60.4" y2="33.7889"
            gradientUnits="userSpaceOnUse">
            <stop offset="0.3033" stop-color="#473788" />
            <stop offset="0.872" stop-color="#2C2255" />
        </linearGradient>
        <linearGradient id="paint1_linear_112_284" x1="60.4" y1="107.425" x2="60.4" y2="33.7899"
            gradientUnits="userSpaceOnUse">
            <stop offset="0.3033" stop-color="#473788" />
            <stop offset="0.872" stop-color="#2C2255" />
        </linearGradient>
        <linearGradient id="paint2_linear_112_284" x1="60.4" y1="107.423" x2="60.4" y2="33.7915"
            gradientUnits="userSpaceOnUse">
            <stop offset="0.3033" stop-color="#473788" />
            <stop offset="0.8631" stop-color="#2C2255" />
        </linearGradient>
    </defs>
</svg>