<svg viewBox="0 0 34 40" fill="none" xmlns="http://www.w3.org/2000/svg">
    <path
        d="M10.5162 8.93549C10.5162 9.32258 10.4839 9.96774 10.0968 10.3871C9.67745 10.7742 9.03229 10.8065 8.64519 10.8065H4.51616C3.32261 10.8065 2.61293 10.8065 2.12906 10.871C1.871 10.9032 1.54841 11.0323 1.38712 11.0968C1.32261 11.129 1.32261 11.0968 1.35487 11.0645L10.7742 1.48387C10.8065 1.45161 10.8387 1.45161 10.8065 1.51613C10.742 1.67742 10.6129 2 10.5807 2.25807C10.5162 2.74194 10.5162 3.45161 10.5162 4.64516V8.93549ZM19.2903 37.9032C18.1936 37.1935 17.6129 36.2581 17.3871 35.6774C17.1613 35.129 17.0323 34.5161 17.0323 33.9032C17.0323 31.2258 19.2258 29.0323 21.9355 29.0323C22.742 29.0323 23.3871 29.6774 23.3871 30.4839C23.3871 31.0323 23.0968 31.4839 22.6452 31.7419C22.4839 31.8387 22.2581 31.9032 22.0968 31.9355C21.9355 31.9677 21.3226 32.0323 21.0323 32.2903C20.7097 32.5484 20.4516 32.9677 20.4516 33.4194C20.4516 33.9032 20.6452 34.3548 20.9678 34.6774C21.5484 35.2581 22.3226 35.5806 23.1613 35.5806C25.3549 35.5806 27.1291 33.8065 27.1291 31.6129C27.1291 29.6452 25.8065 27.9032 24.0645 27.129C23.8065 27 23.3871 26.9032 23 26.8065C22.5162 26.7097 22.0645 26.6452 22.0323 26.6452C20.6774 26.4839 17.2903 25.4194 17.0645 22.4194C17.0645 22.4194 16.0645 26.9355 14.0645 28.1613C13.871 28.2581 13.6129 28.3548 13.3226 28.4194C13.0323 28.4839 12.7097 28.5161 12.6129 28.5161C9.35487 28.7097 5.90325 27.6774 3.51616 25.2258C3.51616 25.2258 1.90325 23.9032 1.06454 20.1936C0.870995 19.2903 0.483899 17.6774 0.258092 16.1613C0.161318 15.6129 0.12906 15.1936 0.0968018 14.8065C0.0968018 13.2258 1.06454 12.1613 2.29035 12C2.32261 12 2.41938 12 2.4839 12C3.22583 12 8.871 12 8.871 12C10 12 10.6452 11.7097 11.0645 11.3226C11.6129 10.8065 11.742 10.0645 11.742 9.19355C11.742 9.19355 11.742 3.32258 11.742 2.58065C11.742 2.54839 11.742 2.41936 11.742 2.3871C11.9033 1.19355 12.9678 0.19355 14.5484 0.19355C14.5484 0.19355 15.0323 0.19355 15.3226 0.19355C15.6452 0.19355 16.0323 0.225808 16.3871 0.258066C16.6452 0.290324 16.871 0.35484 17.2581 0.451615C19.2258 0.935486 19.6452 2.93549 19.6452 2.93549C19.6452 2.93549 23.3549 3.58065 25.2258 3.90323C27 4.22581 31.3871 4.51613 32.2258 8.93549C34.1936 19.4516 33 29.6452 32.9033 29.6452C31.5162 39.5806 23.2581 39.0968 23.2581 39.0968C21.4839 39.0968 20.1613 38.5161 19.2903 37.9032ZM26.7097 16.7742C25.6452 16.6774 24.742 17.0968 24.4194 17.9032C24.3549 18.0645 24.2903 18.2581 24.3226 18.3548C24.3549 18.4516 24.4194 18.4839 24.4839 18.5161C24.871 18.7097 25.5162 18.8065 26.4516 18.9032C27.3871 19 28.0323 19.0645 28.4516 19C28.5162 19 28.5807 18.9677 28.6452 18.871C28.7097 18.7742 28.6774 18.5806 28.6774 18.4194C28.5484 17.5161 27.7742 16.9032 26.7097 16.7742Z"
        fill="#00A82D" />
</svg>