<svg viewBox="0 0 20 18" fill="none" xmlns="http://www.w3.org/2000/svg">
    <path
        d="M9.258 6.342C9.416 6.112 9.589 6.082 9.73 6.082C9.87 6.082 10.104 6.112 10.262 6.342C12.322 9.148 16.594 16.55 16.989 16.953C17.574 17.55 18.377 17.178 18.843 16.501C19.303 15.834 19.43 15.366 19.43 14.867C19.43 14.527 12.777 2.253 12.106 1.231C11.462 0.248 11.252 0 10.15 0H9.325C8.225 0 8.066 0.248 7.422 1.23C6.75 2.254 0.0970001 14.528 0.0970001 14.868C0.0970001 15.368 0.224 15.835 0.684 16.502C1.15 17.179 1.953 17.552 2.538 16.954C2.933 16.551 7.199 9.149 9.258 6.344V6.342Z"
        fill="currentColor" />
</svg>