<svg viewBox="0 0 1000 804" fill="none" xmlns="http://www.w3.org/2000/svg">
    <path fill-rule="evenodd" clip-rule="evenodd"
        d="M259.805 804C147.542 804 75.9069 740.907 75.9069 653.23C75.9069 624.373 84.4659 589.094 117.61 517.458H0L107.975 286.51H859.593C876.711 286.51 888.466 273.695 888.466 258.729C888.466 243.763 876.711 230.932 859.593 230.932H251.262L304.704 116.55C337.848 45.9745 409.483 0 487.526 0H743.059C890.602 0 999.669 101.568 999.669 234.144C999.669 391.305 855.322 517.458 688.542 517.458H194.593C179.611 548.483 196.729 573.068 233.068 573.068H626.525C691.737 573.068 741.983 619.026 741.983 677.847C741.983 745.195 676.787 804 603 804H259.805Z"
        fill="#DA3940" />
</svg>