<svg viewBox="0 0 20 20" fill="none" xmlns="http://www.w3.org/2000/svg">
    <mask id="mask0_149_206" style="mask-type:luminance" maskUnits="userSpaceOnUse" x="0" y="0"
        width="20" height="20">
        <path
            d="M0 3.78571C0 1.69492 1.69492 0 3.78571 0H16.2143C18.3051 0 20 1.69492 20 3.78571V16.2143C20 18.3051 18.3051 20 16.2143 20H3.78571C1.69492 20 0 18.3051 0 16.2143V3.78571Z"
            fill="white" />
        <path
            d="M15.2857 2.14258H12.7143C11.2152 2.14258 10 3.35781 10 4.85686V15.1426C10 16.6416 11.2152 17.8569 12.7143 17.8569H15.2857C16.7848 17.8569 18 16.6416 18 15.1426V4.85686C18 3.35781 16.7848 2.14258 15.2857 2.14258Z"
            fill="black" />
    </mask>
    <g mask="url(#mask0_149_206)">
        <path
            d="M0 3.78571C0 1.69492 1.69492 0 3.78571 0H16.2143C18.3051 0 20 1.69492 20 3.78571V16.2143C20 18.3051 18.3051 20 16.2143 20H3.78571C1.69492 20 0 18.3051 0 16.2143V3.78571Z"
            fill="currentColor" />
    </g>
</svg>