<svg viewBox="0 0 39 54" fill="none"
    xmlns="http://www.w3.org/2000/svg">
    <mask id="mask0_223_85" style="mask-type:luminance" maskUnits="userSpaceOnUse" x="0" y="0" width="39" height="54">
        <path d="M33.56 12.4901C33.5084 12.1751 33.3344 11.8933 33.076 11.706C32.8175 11.5187 32.4955 11.4411 32.18 11.4901C31.9322 11.5231 31.7029 11.6395 31.53 11.8201L25.29 18.0501L20.41 8.73014C20.3372 8.5902 20.2376 8.46598 20.1167 8.36459C19.9959 8.2632 19.8562 8.18663 19.7058 8.13926C19.5553 8.09189 19.397 8.07466 19.2399 8.08853C19.0827 8.10241 18.9299 8.14714 18.79 8.22014C18.5781 8.34231 18.4022 8.51823 18.28 8.73014L15.62 13.8301L8.91003 1.31014C8.83479 1.17265 8.73313 1.05137 8.61089 0.953278C8.48864 0.855184 8.34822 0.782205 8.19769 0.738533C8.04716 0.694861 7.88949 0.681356 7.73373 0.698794C7.57796 0.716231 7.42718 0.764268 7.29003 0.840145C7.12724 0.927049 6.98608 1.04947 6.87702 1.19834C6.76796 1.34721 6.6938 1.51872 6.66003 1.70014L0.160034 43.2201L17.51 53.0001C18.0449 53.2934 18.6451 53.4471 19.255 53.4471C19.865 53.4471 20.4652 53.2934 21 53.0001L38.5 43.2601L33.56 12.4901Z" fill="white"/>
    </mask>
    <g mask="url(#mask0_223_85)">
        <path d="M0.160034 43.2201L6.66003 1.70007C6.70929 1.39316 6.87765 1.11807 7.12855 0.934575C7.37945 0.751079 7.69263 0.673996 8.00003 0.720071C8.18161 0.753371 8.35366 0.826164 8.504 0.933302C8.65433 1.04044 8.77929 1.1793 8.87003 1.34007L15.58 13.8701L18.24 8.77007C18.3128 8.63013 18.4125 8.5059 18.5333 8.40451C18.6542 8.30312 18.7938 8.22656 18.9443 8.17919C19.0948 8.13182 19.2531 8.11458 19.4102 8.12846C19.5673 8.14234 19.7202 8.18706 19.86 8.26007C20.0719 8.38224 20.2479 8.55816 20.37 8.77007L38.47 43.2201H0.160034Z" fill="#FFA000"/>
        <path opacity="0.12" d="M22.3301 1.00004L-9.42993 -1.70996V55.81L0.160069 43.22L22.3301 1.00004Z" fill="url(#paint0_linear_223_85)"/>
        <path d="M22.6 27.0498L15.6 13.8398L0.160034 43.2198L22.6 27.0498Z" fill="#F57C00"/>
        <path opacity="0.2" d="M-9.42993 -1.70996H48.0901V55.81H-9.42993V-1.70996Z" fill="url(#paint1_linear_223_85)"/>
        <path d="M38.51 43.2197L33.51 12.4597C33.4584 12.1447 33.2844 11.8628 33.026 11.6755C32.7675 11.4882 32.4455 11.4106 32.13 11.4597C31.8829 11.4949 31.6543 11.6109 31.48 11.7897L0.160034 43.2197L17.51 52.9997C18.0449 53.2929 18.6451 53.4466 19.255 53.4466C19.865 53.4466 20.4652 53.2929 21 52.9997L38.51 43.2197Z" fill="#FFCA28"/>
        <path d="M33.56 12.4901C33.5084 12.1751 33.3344 11.8933 33.076 11.706C32.8175 11.5187 32.4955 11.4411 32.18 11.4901C31.9322 11.5231 31.7029 11.6395 31.53 11.8201L25.29 18.0501L20.41 8.73014C20.3372 8.5902 20.2376 8.46598 20.1167 8.36459C19.9959 8.2632 19.8562 8.18663 19.7058 8.13926C19.5553 8.09189 19.397 8.07466 19.2399 8.08853C19.0827 8.10241 18.9299 8.14714 18.79 8.22014C18.5781 8.34231 18.4022 8.51823 18.28 8.73014L15.62 13.8301L8.91003 1.31014C8.83479 1.17265 8.73313 1.05137 8.61089 0.953278C8.48864 0.855184 8.34822 0.782205 8.19769 0.738533C8.04716 0.694861 7.88949 0.681356 7.73373 0.698794C7.57796 0.716231 7.42718 0.764268 7.29003 0.840145C7.12724 0.927049 6.98608 1.04947 6.87702 1.19834C6.76796 1.34721 6.6938 1.51872 6.66003 1.70014L0.160034 43.2201L0.340034 43.3101L25.34 18.3101L31.58 12.0801C31.6901 11.9658 31.8221 11.8749 31.9682 11.8128C32.1142 11.7506 32.2713 11.7186 32.43 11.7186C32.5887 11.7186 32.7458 11.7506 32.8919 11.8128C33.0379 11.8749 33.1699 11.9658 33.28 12.0801C33.4648 12.2541 33.5818 12.488 33.61 12.7401L38.53 43.2001H38.59L33.56 12.4901ZM0.220034 43.1601L6.66003 2.00014C6.6808 1.84581 6.73216 1.69717 6.81112 1.56295C6.89007 1.42872 6.99503 1.31161 7.11983 1.21847C7.24463 1.12533 7.38677 1.05805 7.53792 1.02056C7.68906 0.983067 7.84617 0.976127 8.00003 1.00014C8.18233 1.03142 8.35523 1.10341 8.50586 1.21076C8.65649 1.3181 8.78097 1.45804 8.87003 1.62014L15.58 14.1501L18.24 9.05014C18.3118 8.90925 18.4109 8.78408 18.5317 8.68193C18.6524 8.57979 18.7922 8.50272 18.943 8.45524C19.0939 8.40776 19.2526 8.39081 19.4101 8.40539C19.5675 8.41997 19.7205 8.46578 19.86 8.54014C20.0719 8.66231 20.2479 8.83823 20.37 9.05014L25.16 18.1601L0.220034 43.1601Z" fill="white" fill-opacity="0.2"/>
        <path opacity="0.2" d="M21.0001 52.6602C20.464 52.9552 19.862 53.1099 19.2501 53.1099C18.6382 53.1099 18.0362 52.9552 17.5001 52.6602L0.190063 43.0002V43.2702L17.5101 53.0002C18.0449 53.2935 18.6451 53.4472 19.2551 53.4472C19.865 53.4472 20.4652 53.2935 21.0001 53.0002L38.5001 43.2602V42.9902L21.0001 52.6602Z" fill="#A52714"/>
        <path d="M33.56 12.4901C33.5084 12.1751 33.3344 11.8933 33.076 11.706C32.8175 11.5187 32.4955 11.4411 32.18 11.4901C31.9322 11.5231 31.7029 11.6395 31.53 11.8201L25.29 18.0501L20.41 8.73014C20.3372 8.5902 20.2376 8.46598 20.1167 8.36459C19.9959 8.2632 19.8562 8.18663 19.7058 8.13926C19.5553 8.09189 19.397 8.07466 19.2399 8.08853C19.0827 8.10241 18.9299 8.14714 18.79 8.22014C18.5781 8.34231 18.4022 8.51823 18.28 8.73014L15.62 13.8301L8.91003 1.31014C8.83479 1.17265 8.73313 1.05137 8.61089 0.953278C8.48864 0.855184 8.34822 0.782205 8.19769 0.738533C8.04716 0.694861 7.88949 0.681356 7.73373 0.698794C7.57796 0.716231 7.42718 0.764268 7.29003 0.840145C7.12724 0.927049 6.98608 1.04947 6.87702 1.19834C6.76796 1.34721 6.6938 1.51872 6.66003 1.70014L0.160034 43.2201L17.51 53.0001C18.0449 53.2934 18.6451 53.4471 19.255 53.4471C19.865 53.4471 20.4652 53.2934 21 53.0001L38.5 43.2601L33.56 12.4901Z" fill="url(#paint2_linear_223_85)"/>
    </g>
    <defs>
        <linearGradient id="paint0_linear_223_85" x1="7.63007" y1="29.01" x2="5.24007" y2="27.76" gradientUnits="userSpaceOnUse">
            <stop stop-color="#A52714"/>
            <stop offset="0.4" stop-color="#A52714" stop-opacity="0.5"/>
            <stop offset="0.8" stop-color="#A52714" stop-opacity="0"/>
        </linearGradient>
        <linearGradient id="paint1_linear_223_85" x1="17.8101" y1="25.52" x2="16.7401" y2="24.45" gradientUnits="userSpaceOnUse">
            <stop stop-color="#A52714" stop-opacity="0.8"/>
            <stop offset="0.5" stop-color="#A52714" stop-opacity="0.21"/>
            <stop offset="1" stop-color="#A52714" stop-opacity="0"/>
        </linearGradient>
        <linearGradient id="paint2_linear_223_85" x1="-0.861765" y1="9.96604" x2="39.1615" y2="50.016" gradientUnits="userSpaceOnUse">
            <stop stop-color="white" stop-opacity="0.1"/>
            <stop offset="1" stop-color="white" stop-opacity="0"/>
        </linearGradient>
    </defs>
</svg>
