<svg viewBox="0 0 81 81" fill="none" xmlns="http://www.w3.org/2000/svg">
    <path
        d="M72.944 16.7C69.3832 11.9772 64.8064 8.11508 59.5521 5.39912C54.2978 2.68316 48.5002 1.18282 42.588 1.00901C33.3 0.823009 26.884 3.61401 23.254 5.85801C28.111 3.04101 35.14 1.44301 41.294 1.52201C57.124 1.72201 74.126 12.503 76.651 31.935C79.551 54.241 64.014 72.858 42.158 72.915C18.113 72.976 3.48801 51.686 7.31101 32.563C7.3821 31.6254 7.52012 30.694 7.72401 29.776C8.19573 24.8749 9.62006 20.1131 11.917 15.758C9.14801 17.191 5.62201 21.723 3.88201 25.921C1.34911 32.326 0.45609 39.2623 1.28401 46.1C1.34401 46.618 1.39801 47.135 1.46601 47.649C2.50291 53.6196 4.88081 59.2772 8.42069 64.1959C11.9606 69.1145 16.5702 73.166 21.9025 76.0453C27.2347 78.9246 33.1507 80.5567 39.2051 80.8187C45.2594 81.0807 51.2943 79.9658 56.8554 77.5579C62.4165 75.15 67.3589 71.5119 71.3104 66.9175C75.262 62.3231 78.1198 56.8921 79.6686 51.0333C81.2175 45.1746 81.417 39.0408 80.2522 33.0938C79.0874 27.1468 76.5886 21.5415 72.944 16.7Z"
        fill="url(#paint0_radial_14_29)" />
    <path opacity="0.67"
        d="M72.944 16.7C69.3832 11.9772 64.8064 8.11508 59.5521 5.39912C54.2978 2.68316 48.5002 1.18282 42.588 1.00901C33.3 0.823009 26.884 3.61401 23.254 5.85801C28.111 3.04101 35.14 1.44301 41.294 1.52201C57.124 1.72201 74.126 12.503 76.651 31.935C79.551 54.241 64.014 72.858 42.158 72.915C18.113 72.976 3.48801 51.686 7.31101 32.563C7.3821 31.6254 7.52012 30.694 7.72401 29.776C8.19573 24.8749 9.62006 20.1131 11.917 15.758C9.14801 17.191 5.62201 21.723 3.88201 25.921C1.34911 32.326 0.45609 39.2623 1.28401 46.1C1.34401 46.618 1.39801 47.135 1.46601 47.649C2.50291 53.6196 4.88081 59.2772 8.42069 64.1959C11.9606 69.1145 16.5702 73.166 21.9025 76.0453C27.2347 78.9246 33.1507 80.5567 39.2051 80.8187C45.2594 81.0807 51.2943 79.9658 56.8554 77.5579C62.4165 75.15 67.3589 71.5119 71.3104 66.9175C75.262 62.3231 78.1198 56.8921 79.6686 51.0333C81.2175 45.1746 81.417 39.0408 80.2522 33.0938C79.0874 27.1468 76.5886 21.5415 72.944 16.7Z"
        fill="url(#paint1_radial_14_29)" />
    <path
        d="M72.944 16.7C69.3832 11.9772 64.8064 8.11508 59.5521 5.39912C54.2978 2.68316 48.5002 1.18282 42.588 1.00901C33.3 0.823009 26.884 3.61401 23.254 5.85801C28.111 3.04101 35.14 1.44301 41.294 1.52201C57.124 1.72201 74.126 12.503 76.651 31.935C79.551 54.241 64.014 72.858 42.158 72.915C18.113 72.976 3.48801 51.686 7.31101 32.563C7.3821 31.6254 7.52012 30.694 7.72401 29.776C8.19573 24.8749 9.62006 20.1131 11.917 15.758C9.14801 17.191 5.62201 21.723 3.88201 25.921C1.34911 32.326 0.45609 39.2623 1.28401 46.1C1.34401 46.618 1.39801 47.135 1.46601 47.649C2.50291 53.6196 4.88081 59.2772 8.42069 64.1959C11.9606 69.1145 16.5702 73.166 21.9025 76.0453C27.2347 78.9246 33.1507 80.5567 39.2051 80.8187C45.2594 81.0807 51.2943 79.9658 56.8554 77.5579C62.4165 75.15 67.3589 71.5119 71.3104 66.9175C75.262 62.3231 78.1198 56.8921 79.6686 51.0333C81.2175 45.1746 81.417 39.0408 80.2522 33.0938C79.0874 27.1468 76.5886 21.5415 72.944 16.7Z"
        fill="url(#paint2_radial_14_29)" />
    <path
        d="M72.944 16.7C69.3832 11.9772 64.8064 8.11508 59.5521 5.39912C54.2978 2.68316 48.5002 1.18282 42.588 1.00901C33.3 0.823009 26.884 3.61401 23.254 5.85801C28.111 3.04101 35.14 1.44301 41.294 1.52201C57.124 1.72201 74.126 12.503 76.651 31.935C79.551 54.241 64.014 72.858 42.158 72.915C18.113 72.976 3.48801 51.686 7.31101 32.563C7.3821 31.6254 7.52012 30.694 7.72401 29.776C8.19573 24.8749 9.62006 20.1131 11.917 15.758C9.14801 17.191 5.62201 21.723 3.88201 25.921C1.34911 32.326 0.45609 39.2623 1.28401 46.1C1.34401 46.618 1.39801 47.135 1.46601 47.649C2.50291 53.6196 4.88081 59.2772 8.42069 64.1959C11.9606 69.1145 16.5702 73.166 21.9025 76.0453C27.2347 78.9246 33.1507 80.5567 39.2051 80.8187C45.2594 81.0807 51.2943 79.9658 56.8554 77.5579C62.4165 75.15 67.3589 71.5119 71.3104 66.9175C75.262 62.3231 78.1198 56.8921 79.6686 51.0333C81.2175 45.1746 81.417 39.0408 80.2522 33.0938C79.0874 27.1468 76.5886 21.5415 72.944 16.7Z"
        fill="url(#paint3_radial_14_29)" />
    <path
        d="M72.944 16.7C69.3832 11.9772 64.8064 8.11508 59.5521 5.39912C54.2978 2.68316 48.5002 1.18282 42.588 1.00901C33.3 0.823009 26.884 3.61401 23.254 5.85801C28.111 3.04101 35.14 1.44301 41.294 1.52201C57.124 1.72201 74.126 12.503 76.651 31.935C79.551 54.241 64.014 72.858 42.158 72.915C18.113 72.976 3.48801 51.686 7.31101 32.563C7.3821 31.6254 7.52012 30.694 7.72401 29.776C8.19573 24.8749 9.62006 20.1131 11.917 15.758C9.14801 17.191 5.62201 21.723 3.88201 25.921C1.34911 32.326 0.45609 39.2623 1.28401 46.1C1.34401 46.618 1.39801 47.135 1.46601 47.649C2.50291 53.6196 4.88081 59.2772 8.42069 64.1959C11.9606 69.1145 16.5702 73.166 21.9025 76.0453C27.2347 78.9246 33.1507 80.5567 39.2051 80.8187C45.2594 81.0807 51.2943 79.9658 56.8554 77.5579C62.4165 75.15 67.3589 71.5119 71.3104 66.9175C75.262 62.3231 78.1198 56.8921 79.6686 51.0333C81.2175 45.1746 81.417 39.0408 80.2522 33.0938C79.0874 27.1468 76.5886 21.5415 72.944 16.7Z"
        fill="url(#paint4_radial_14_29)" />
    <path
        d="M77.625 30.826C75.374 10.518 57.263 1.39001 41.294 1.52201C35.139 1.57201 28.111 3.04101 23.254 5.85801C21.9688 6.62009 20.7744 7.52592 19.694 8.55801C19.823 8.45101 20.208 8.13401 20.846 7.69601L20.909 7.65301L20.965 7.61501C23.3219 6.02146 25.9188 4.81553 28.657 4.04301C32.9465 2.85734 37.3926 2.33695 41.84 2.50001C50.0942 2.99292 57.8686 6.54335 63.6465 12.4586C69.4243 18.3739 72.7912 26.2296 73.09 34.493C73.457 47.7 62.648 58.23 50.188 58.84C41.126 59.284 32.588 54.899 28.418 46.127C27.4425 44.1292 26.7801 41.9932 26.454 39.794C24.478 26.444 33.443 15.059 41.664 12.24C37.229 8.36601 26.116 8.62901 17.845 14.714C11.889 19.096 8.02501 25.763 6.74501 33.714C5.82412 39.8148 6.6349 46.0515 9.08501 51.714C11.63 57.719 15.7888 62.9015 21.1 66.6865C26.4113 70.4716 32.6673 72.7113 39.174 73.157C40.1667 73.233 41.1613 73.2707 42.158 73.27C68.62 73.27 80.1 53.183 77.625 30.826Z"
        fill="url(#paint5_radial_14_29)" />
    <path
        d="M77.625 30.826C75.374 10.518 57.263 1.39001 41.294 1.52201C35.139 1.57201 28.111 3.04101 23.254 5.85801C21.9688 6.62009 20.7744 7.52592 19.694 8.55801C19.823 8.45101 20.208 8.13401 20.846 7.69601L20.909 7.65301L20.965 7.61501C23.3219 6.02146 25.9188 4.81553 28.657 4.04301C32.9465 2.85734 37.3926 2.33695 41.84 2.50001C50.0942 2.99292 57.8686 6.54335 63.6465 12.4586C69.4243 18.3739 72.7912 26.2296 73.09 34.493C73.457 47.7 62.648 58.23 50.188 58.84C41.126 59.284 32.588 54.899 28.418 46.127C27.4425 44.1292 26.7801 41.9932 26.454 39.794C24.478 26.444 33.443 15.059 41.664 12.24C37.229 8.36601 26.116 8.62901 17.845 14.714C11.889 19.096 8.02501 25.763 6.74501 33.714C5.82412 39.8148 6.6349 46.0515 9.08501 51.714C11.63 57.719 15.7888 62.9015 21.1 66.6865C26.4113 70.4716 32.6673 72.7113 39.174 73.157C40.1667 73.233 41.1613 73.2707 42.158 73.27C68.62 73.27 80.1 53.183 77.625 30.826Z"
        fill="url(#paint6_radial_14_29)" />
    <path style="mix-blend-mode:multiply" opacity="0.53"
        d="M77.625 30.826C75.374 10.518 57.263 1.39001 41.294 1.52201C35.139 1.57201 28.111 3.04101 23.254 5.85801C21.9688 6.62009 20.7744 7.52592 19.694 8.55801C19.823 8.45101 20.208 8.13401 20.846 7.69601L20.909 7.65301L20.965 7.61501C23.3219 6.02146 25.9188 4.81553 28.657 4.04301C32.9465 2.85734 37.3926 2.33695 41.84 2.50001C50.0942 2.99292 57.8686 6.54335 63.6465 12.4586C69.4243 18.3739 72.7912 26.2296 73.09 34.493C73.457 47.7 62.648 58.23 50.188 58.84C41.126 59.284 32.588 54.899 28.418 46.127C27.4425 44.1292 26.7801 41.9932 26.454 39.794C24.478 26.444 33.443 15.059 41.664 12.24C37.229 8.36601 26.116 8.62901 17.845 14.714C11.889 19.096 8.02501 25.763 6.74501 33.714C5.82412 39.8148 6.6349 46.0515 9.08501 51.714C11.63 57.719 15.7888 62.9015 21.1 66.6865C26.4113 70.4716 32.6673 72.7113 39.174 73.157C40.1667 73.233 41.1613 73.2707 42.158 73.27C68.62 73.27 80.1 53.183 77.625 30.826Z"
        fill="url(#paint7_radial_14_29)" />
    <path style="mix-blend-mode:multiply" opacity="0.53"
        d="M77.625 30.826C75.374 10.518 57.263 1.39001 41.294 1.52201C35.139 1.57201 28.111 3.04101 23.254 5.85801C21.9688 6.62009 20.7744 7.52592 19.694 8.55801C19.823 8.45101 20.208 8.13401 20.846 7.69601L20.909 7.65301L20.965 7.61501C23.3219 6.02146 25.9188 4.81553 28.657 4.04301C32.9465 2.85734 37.3926 2.33695 41.84 2.50001C50.0942 2.99292 57.8686 6.54335 63.6465 12.4586C69.4243 18.3739 72.7912 26.2296 73.09 34.493C73.457 47.7 62.648 58.23 50.188 58.84C41.126 59.284 32.588 54.899 28.418 46.127C27.4425 44.1292 26.7801 41.9932 26.454 39.794C24.478 26.444 33.443 15.059 41.664 12.24C37.229 8.36601 26.116 8.62901 17.845 14.714C11.889 19.096 8.02501 25.763 6.74501 33.714C5.82412 39.8148 6.6349 46.0515 9.08501 51.714C11.63 57.719 15.7888 62.9015 21.1 66.6865C26.4113 70.4716 32.6673 72.7113 39.174 73.157C40.1667 73.233 41.1613 73.2707 42.158 73.27C68.62 73.27 80.1 53.183 77.625 30.826Z"
        fill="url(#paint8_radial_14_29)" />
    <path
        d="M50.188 58.84C67.288 57.8 74.608 43.64 75.067 33.595C75.783 17.9 66.472 0.979996 41.84 2.5C37.3924 2.33792 32.9464 2.85932 28.657 4.046C25.9311 4.85131 23.3391 6.05497 20.965 7.618L20.909 7.656L20.846 7.699C20.4633 7.96566 20.089 8.24633 19.723 8.541C26.0987 4.97583 33.4655 3.59357 40.7 4.605C54.842 6.461 67.772 17.462 67.772 31.978C67.772 43.147 59.141 51.678 49.034 51.065C34.019 50.165 30.234 34.765 38.045 28.111C35.939 27.658 31.981 28.546 29.225 32.666C26.752 36.366 26.892 42.076 28.418 46.127C30.3201 50.211 33.424 53.6168 37.3144 55.8887C41.2049 58.1607 45.6964 59.1903 50.188 58.84Z"
        fill="url(#paint9_radial_14_29)" />
    <path
        d="M73.016 19.726C71.9877 16.6944 70.3232 13.9177 68.134 11.582C65.5326 8.87127 62.4485 6.66931 59.04 5.08901C56.1943 3.68632 53.1938 2.6227 50.1 1.92001C44.6463 0.726248 39.0027 0.692178 33.535 1.82001C27.852 3.02001 22.855 5.47901 19.694 8.55301C22.2145 7.1291 24.916 6.05267 27.725 5.35301C33.1835 3.98134 38.8992 4.00427 44.3465 5.4197C49.7938 6.83512 54.7977 9.5976 58.898 13.453C60.5599 15.029 62.0145 16.81 63.227 18.753C68.122 26.712 67.659 36.718 63.842 42.619C61.007 47.003 54.935 51.119 49.27 51.071C53.5337 51.3928 57.8048 50.5517 61.6281 48.6372C65.4513 46.7228 68.6835 43.8068 70.98 40.2C74.969 33.976 75.105 26.055 73.016 19.726Z"
        fill="url(#paint10_linear_14_29)" />
    <path
        d="M73.016 19.726C71.9877 16.6944 70.3232 13.9177 68.134 11.582C65.5326 8.87127 62.4485 6.66931 59.04 5.08901C56.1943 3.68632 53.1938 2.6227 50.1 1.92001C44.6463 0.726248 39.0027 0.692178 33.535 1.82001C27.852 3.02001 22.855 5.47901 19.694 8.55301C22.2145 7.1291 24.916 6.05267 27.725 5.35301C33.1835 3.98134 38.8992 4.00427 44.3465 5.4197C49.7938 6.83512 54.7977 9.5976 58.898 13.453C60.5599 15.029 62.0145 16.81 63.227 18.753C68.122 26.712 67.659 36.718 63.842 42.619C61.007 47.003 54.935 51.119 49.27 51.071C53.5337 51.3928 57.8048 50.5517 61.6281 48.6372C65.4513 46.7228 68.6835 43.8068 70.98 40.2C74.969 33.976 75.105 26.055 73.016 19.726Z"
        fill="url(#paint11_linear_14_29)" />
    <path
        d="M72.944 16.7C71.8726 15.2972 70.7094 13.967 69.462 12.718C68.4715 11.6708 67.41 10.6931 66.285 9.792C66.9324 10.3557 67.5496 10.9532 68.134 11.582C70.323 13.9178 71.9875 16.6945 73.016 19.726C75.105 26.055 74.969 33.976 70.98 40.197C68.7652 43.683 65.6721 46.5248 62.0115 48.4372C58.3508 50.3496 54.2514 51.2652 50.125 51.092C49.764 51.092 49.4 51.092 49.034 51.065C34.019 50.165 30.234 34.765 38.046 28.111C35.939 27.658 31.981 28.546 29.225 32.666C26.752 36.366 26.892 42.076 28.418 46.127C27.4428 44.1291 26.7807 41.9932 26.455 39.794C24.478 26.444 33.443 15.059 41.664 12.24C37.229 8.366 26.116 8.629 17.845 14.714C12.9804 18.3503 9.43809 23.4775 7.758 29.314C8.29345 24.5778 9.70369 19.9823 11.917 15.761C9.148 17.194 5.622 21.726 3.882 25.924C1.34961 32.3281 0.456594 39.2633 1.284 46.1C1.344 46.618 1.398 47.135 1.466 47.649C2.50291 53.6196 4.88081 59.2772 8.42069 64.1959C11.9606 69.1145 16.5702 73.166 21.9024 76.0453C27.2347 78.9246 33.1507 80.5567 39.2051 80.8187C45.2594 81.0807 51.2943 79.9658 56.8554 77.5579C62.4165 75.15 67.3589 71.5119 71.3104 66.9175C75.262 62.3231 78.1198 56.892 79.6686 51.0333C81.2175 45.1746 81.417 39.0408 80.2522 33.0938C79.0874 27.1468 76.5886 21.5415 72.944 16.7Z"
        fill="url(#paint12_linear_14_29)" />
    <defs>
        <radialGradient id="paint0_radial_14_29" cx="0" cy="0" r="1" gradientUnits="userSpaceOnUse"
            gradientTransform="translate(6146.14 959.272) scale(5761.08 5749.63)">
            <stop stop-color="#FFF36E" />
            <stop offset="0.5" stop-color="#FC4055" />
            <stop offset="1" stop-color="#E31587" />
        </radialGradient>
        <radialGradient id="paint1_radial_14_29" cx="0" cy="0" r="1" gradientUnits="userSpaceOnUse"
            gradientTransform="translate(641.105 1150.93) scale(4480.84 4471.93)">
            <stop stop-color="#C60084" />
            <stop offset="1" stop-color="#FC4055" stop-opacity="0" />
        </radialGradient>
        <radialGradient id="paint2_radial_14_29" cx="0" cy="0" r="1" gradientUnits="userSpaceOnUse"
            gradientTransform="translate(7042.31 512.079) scale(8513.6 8496.68)">
            <stop stop-color="#FFDE67" stop-opacity="0.6" />
            <stop offset="0.66" stop-color="#FC4055" stop-opacity="0" />
        </radialGradient>
        <radialGradient id="paint3_radial_14_29" cx="0" cy="0" r="1" gradientUnits="userSpaceOnUse"
            gradientTransform="translate(2817.51 3259.12) scale(11202.1 11179.8)">
            <stop offset="0.15" stop-color="#810220" />
            <stop offset="0.27" stop-color="#FC4055" stop-opacity="0" />
        </radialGradient>
        <radialGradient id="paint4_radial_14_29" cx="0" cy="0" r="1" gradientUnits="userSpaceOnUse"
            gradientTransform="translate(3393.62 3514.66) scale(10241.9 10221.6)">
            <stop offset="0.12" stop-color="#810220" />
            <stop offset="0.3" stop-color="#FC4055" stop-opacity="0" />
        </radialGradient>
        <radialGradient id="paint5_radial_14_29" cx="0" cy="0" r="1" gradientUnits="userSpaceOnUse"
            gradientTransform="translate(5159.96 632.915) scale(6356.09 6371.35)">
            <stop stop-color="#FF9640" />
            <stop offset="0.8" stop-color="#FC4055" />
        </radialGradient>
        <radialGradient id="paint6_radial_14_29" cx="0" cy="0" r="1" gradientUnits="userSpaceOnUse"
            gradientTransform="translate(5217.22 1034.71) scale(6470.61 6486.15)">
            <stop offset="0.09" stop-color="#FFDE67" />
            <stop offset="0.82" stop-color="#FF9640" stop-opacity="0" />
        </radialGradient>
        <radialGradient id="paint7_radial_14_29" cx="0" cy="0" r="1" gradientUnits="userSpaceOnUse"
            gradientTransform="translate(3613.88 2814.1) scale(3092.15 3099.57)">
            <stop offset="0.36" stop-color="#FC4055" />
            <stop offset="0.59" stop-color="#FF9640" stop-opacity="0" />
        </radialGradient>
        <radialGradient id="paint8_radial_14_29" cx="0" cy="0" r="1" gradientUnits="userSpaceOnUse"
            gradientTransform="translate(3041.26 2986.3) scale(3092.15 3099.57)">
            <stop offset="0.22" stop-color="#FC4055" stop-opacity="0.8" />
            <stop offset="0.47" stop-color="#FF9640" stop-opacity="0" />
        </radialGradient>
        <radialGradient id="paint9_radial_14_29" cx="0" cy="0" r="1" gradientUnits="userSpaceOnUse"
            gradientTransform="translate(4849.04 92.8084) scale(7531.97 7684.32)">
            <stop offset="0.05" stop-color="#FFF36E" />
            <stop offset="0.55" stop-color="#FF9640" />
            <stop offset="0.7" stop-color="#FF9640" />
        </radialGradient>
        <linearGradient id="paint10_linear_14_29" x1="2205.98" y1="-119.336" x2="3292.2" y2="3228.8"
            gradientUnits="userSpaceOnUse">
            <stop stop-color="#B833E1" />
            <stop offset="0.37" stop-color="#9059FF" />
            <stop offset="1" stop-color="#0090ED" />
        </linearGradient>
        <linearGradient id="paint11_linear_14_29" x1="3736.39" y1="2046.68" x2="1643.52"
            y2="-579.131" gradientUnits="userSpaceOnUse">
            <stop stop-color="#592ACB" stop-opacity="0.5" />
            <stop offset="0.24" stop-color="#722291" stop-opacity="0" />
        </linearGradient>
        <linearGradient id="paint12_linear_14_29" x1="4801.87" y1="522.202" x2="1906.21"
            y2="5946.95" gradientUnits="userSpaceOnUse">
            <stop stop-color="#FFF36E" stop-opacity="0.8" />
            <stop offset="0.09" stop-color="#FFF36E" stop-opacity="0.7" />
            <stop offset="0.75" stop-color="#FFF36E" stop-opacity="0" />
        </linearGradient>
    </defs>
</svg>