<svg viewBox="0 0 40 44" fill="none"
    xmlns="http://www.w3.org/2000/svg"
    xmlns:xlink="http://www.w3.org/1999/xlink">
    <path d="M35.0631 20.0376H21.7056L10.0195 31.7265L16.6969 38.4038L35.0631 20.0376Z" fill="currentColor"/>
    <path d="M6.68014 28.3864L0 21.7063L21.7063 0H35.0638L6.68014 28.3864Z" fill="currentColor"/>
    <path d="M16.6975 38.4039L21.7062 43.4126H35.0637L23.3749 31.7266L16.6975 38.4039Z" fill="currentColor"/>
    <path d="M16.6975 38.4039L26.6035 34.9747L23.3749 31.7266L16.6975 38.4039Z" fill="currentColor"/>
    <path d="M16.6966 25.0454L10.019 31.7229L16.6966 38.4005L23.3741 31.7229L16.6966 25.0454Z" fill="currentColor"/>
    <path d="M35.0638 20.0376L23.3777 31.7237L35.0638 43.4126H21.7063L16.6976 38.4039L10.0174 31.7237L21.7063 20.0376H35.0638ZM21.7063 0L0 21.7063L6.68014 28.3864L35.0638 0H21.7063Z" fill="currentColor"/>
</svg>
