<svg viewBox="0 0 88 72" fill="none" xmlns="http://www.w3.org/2000/svg">
    <path d="M50 36L58.53 45.75L70 53.08L72 36.065L70 19.425L58.31 25.865L50 36Z" fill="#00832D" />
    <path d="M0.5 51.5V66C0.5 69.315 3.185 72 6.5 72H21L24 61.04L21 51.5L11.05 48.5L0.5 51.5Z"
        fill="#0066DA" />
    <path d="M21 0L0.5 20.5L11.05 23.5L21 20.5L23.95 11.085L21 0Z" fill="#E94235" />
    <path d="M21 20.5H0.5V51.5H21V20.5Z" fill="#2684FC" />
    <path
        d="M83.095 8.67999L70 19.425V53.08L83.15 63.865C85.12 65.405 88 64 88 61.5V11C88 8.46499 85.055 7.07499 83.095 8.67999ZM50 36V51.5H21V72H64C67.315 72 70 69.315 70 66V53.08L50 36Z"
        fill="#00AC47" />
    <path d="M64 0H21V20.5H50V36L70 19.425V6C70 2.685 67.315 0 64 0Z" fill="#FFBA00" />
</svg>