<svg viewBox="0 0 15 14" fill="none" xmlns="http://www.w3.org/2000/svg">
    <path
        d="M11.2787 1.8877L10.167 2.49936L9.61865 3.5477L10.167 4.8327L11.207 5.95936L12.3337 5.3327L13.0245 4.14186L12.3337 2.66603L11.2787 1.8877Z"
        fill="#0066DA" />
    <path
        d="M6.98183 6.18467L9.6185 3.54801C10.3952 4.13801 10.966 4.98384 11.2068 5.95967L7.58933 9.57717C7.2635 9.90301 6.736 9.90301 6.411 9.57717L3.97183 7.13801C3.71183 6.87801 3.71183 6.45551 3.97183 6.19551L5.011 5.15634C5.271 4.89634 5.6935 4.89634 5.9535 5.15634L6.98183 6.18467ZM14.1952 2.02801L13.1377 0.970508C12.8777 0.710508 12.4552 0.710508 12.1952 0.970508L11.2785 1.88717C12.011 2.50051 12.6093 3.26884 13.0243 4.14134L14.1952 2.97051C14.456 2.71051 14.456 2.28884 14.1952 2.02801ZM11.3335 6.99967C11.3335 9.39301 9.3935 11.333 7.00016 11.333C4.60683 11.333 2.66683 9.39301 2.66683 6.99967C2.66683 4.60634 4.60683 2.66634 7.00016 2.66634C7.98433 2.66634 8.891 2.99467 9.6185 3.54801L11.2785 1.88801C10.121 0.918008 8.62933 0.333008 7.00016 0.333008C3.3185 0.333008 0.333496 3.31801 0.333496 6.99967C0.333496 10.6813 3.3185 13.6663 7.00016 13.6663C10.6818 13.6663 13.6668 10.6813 13.6668 6.99967C13.6668 5.97717 13.436 5.00801 13.0243 4.14217L11.2068 5.95967C11.2893 6.29301 11.3335 6.64134 11.3335 6.99967Z"
        fill="#2684FC" />
</svg>