<svg viewBox="0 0 24 34" fill="none"
    xmlns="http://www.w3.org/2000/svg">
    <path d="M15.7499 8.75L20.2743 9.605L23.9999 8.75L15.7499 0.5L14.6118 4.41125L15.7499 8.75Z" fill="#F29900"/>
    <path d="M15.75 8.75V0.5H2.25C1.00688 0.5 0 1.50688 0 2.75V31.25C0 32.4931 1.00688 33.5 2.25 33.5H21.75C22.9931 33.5 24 32.4931 24 31.25V8.75H15.75Z" fill="#FBBC04"/>
    <path d="M14.625 24.5H9.375V22.625H14.625V24.5ZM14.5969 20.75H9.40312C8.03437 19.8875 7.125 18.3631 7.125 16.625C7.125 13.9325 9.3075 11.75 12 11.75C14.6925 11.75 16.875 13.9325 16.875 16.625C16.875 18.3631 15.9656 19.8875 14.5969 20.75Z" fill="white"/>
</svg>
