<svg viewBox="0 0 152 176" fill="none"
    xmlns="http://www.w3.org/2000/svg">
    <path d="M110 21V153C110 167.77 120.19 176 131 176C141 176 152 169 152 153V22C152 8.46 142 0 131 0C120 0 110 9.33 110 21Z" fill="#F9AB00"/>
    <path d="M55 88V153C55 167.77 65.19 176 76 176C86 176 97 169 97 153V89C97 75.46 87 67 76 67C65 67 55 76.33 55 88Z" fill="#E37400"/>
    <path d="M21 176C32.598 176 42 166.598 42 155C42 143.402 32.598 134 21 134C9.40202 134 0 143.402 0 155C0 166.598 9.40202 176 21 176Z" fill="#E37400"/>
</svg>
