<svg viewBox="0 0 88 78" fill="none" xmlns="http://www.w3.org/2000/svg">
    <path
        d="M6.95001 66.85L10.8 73.5C11.6 74.9 12.75 76 14.1 76.8L27.85 53H0.350006C0.350006 54.55 0.749988 56.1 1.54999 57.5L6.95001 66.85Z"
        fill="#0066DA" />
    <path
        d="M44 25L30.25 1.20001C28.9 2.00001 27.75 3.10001 26.95 4.50001L1.54999 48.5C0.764701 49.8698 0.351052 51.4211 0.350006 53H27.85L44 25Z"
        fill="#00AC47" />
    <path
        d="M73.9 76.8C75.25 76 76.4 74.9 77.2 73.5L78.8 70.75L86.45 57.5C87.25 56.1 87.65 54.55 87.65 53H60.148L66 64.5L73.9 76.8Z"
        fill="#EA4335" />
    <path
        d="M44 25L57.75 1.2C56.4 0.400001 54.85 0 53.25 0H34.75C33.15 0 31.6 0.450001 30.25 1.2L44 25Z"
        fill="#00832D" />
    <path
        d="M60.15 53H27.85L14.1 76.8C15.45 77.6 17 78 18.6 78H69.4C71 78 72.55 77.55 73.9 76.8L60.15 53Z"
        fill="#2684FC" />
    <path
        d="M73.75 26.5L61.05 4.50001C60.25 3.10001 59.1 2.00001 57.75 1.20001L44 25L60.15 53H87.6C87.6 51.45 87.2 49.9 86.4 48.5L73.75 26.5Z"
        fill="#FFBA00" />
</svg>