<svg viewBox="0 0 76 76" fill="none" xmlns="http://www.w3.org/2000/svg">
    <path d="M58 18H18V58H58V18Z" fill="white" />
    <path
        d="M26.205 49.03C24.71 48.02 23.675 46.545 23.11 44.595L26.58 43.165C26.895 44.365 27.445 45.295 28.23 45.955C29.01 46.615 29.96 46.94 31.07 46.94C32.205 46.94 33.18 46.595 33.995 45.905C34.81 45.215 35.22 44.335 35.22 43.27C35.22 42.18 34.79 41.29 33.93 40.6C33.07 39.91 31.99 39.565 30.7 39.565H28.695V36.13H30.495C31.605 36.13 32.54 35.83 33.3 35.23C34.06 34.63 34.44 33.81 34.44 32.765C34.44 31.835 34.1 31.095 33.42 30.54C32.74 29.985 31.88 29.705 30.835 29.705C29.815 29.705 29.005 29.975 28.405 30.52C27.8054 31.0665 27.3546 31.7564 27.095 32.525L23.66 31.095C24.115 29.805 24.95 28.665 26.175 27.68C27.4 26.695 28.965 26.2 30.865 26.2C32.27 26.2 33.535 26.47 34.655 27.015C35.775 27.56 36.655 28.315 37.29 29.275C37.925 30.24 38.24 31.32 38.24 32.52C38.24 33.745 37.945 34.78 37.355 35.63C36.765 36.48 36.04 37.13 35.18 37.585V37.79C36.2905 38.2478 37.2551 38.9998 37.97 39.965C38.695 40.94 39.06 42.105 39.06 43.465C39.06 44.825 38.715 46.04 38.025 47.105C37.335 48.17 36.38 49.01 35.17 49.62C33.955 50.23 32.59 50.54 31.075 50.54C29.32 50.545 27.7 50.04 26.205 49.03ZM47.52 31.81L43.71 34.565L41.805 31.675L48.64 26.745H51.26V50H47.52V31.81Z"
        fill="#4285F4" />
    <path d="M58 58H18V76H58V58Z" fill="#34A853" />
    <path d="M58 0H6C2.685 0 0 2.685 0 6V58H18V18H58V0Z" fill="#4285F4" />
    <path d="M0 58V70C0 73.315 2.685 76 6 76H18V58H0Z" fill="#188038" />
    <path d="M76 18H58V58H76V18Z" fill="#FBBC04" />
    <path d="M76 18V6C76 2.685 73.315 0 70 0H58V18H76Z" fill="#1967D2" />
    <path d="M58 76L76 58H58V76Z" fill="#EA4335" />
</svg>