<svg viewBox="0 0 36 39" fill="none" xmlns="http://www.w3.org/2000/svg">
    <path
        d="M30 11.4301C28.4288 11.8556 27.0041 12.7028 25.88 13.8801C24.57 9.28006 21.75 2.32006 19 1.18006C18.7093 1.04498 18.3905 0.98174 18.0702 0.995662C17.75 1.00958 17.4378 1.10027 17.16 1.26006C15.44 2.26006 14.32 5.48006 15.3 11.5801C11.52 4.66006 10.2 4.67006 9.59003 4.66006C9.297 4.66416 9.01169 4.75457 8.76979 4.91999C8.52789 5.0854 8.34014 5.31848 8.23003 5.59006C7.82003 6.50006 7.00003 9.34006 9.00003 15.4501C6.59003 12.1501 5.85003 11.7301 5.00003 11.7701C4.72803 11.7861 4.46544 11.8755 4.24009 12.0286C4.01474 12.1818 3.83504 12.3931 3.72003 12.6401C3.00003 14.0001 3.08003 17.4201 5.32003 22.5201C4.55281 21.8431 3.58138 21.4418 2.56003 21.3801C2.28497 21.3994 2.01913 21.4873 1.7868 21.6358C1.55446 21.7842 1.36304 21.9886 1.23003 22.2301C0.320027 23.9001 2.23003 28.5901 4.59003 31.7701C6.50003 34.3801 10.33 38.3901 15.89 38.3901C16.6685 38.3889 17.4452 38.3153 18.21 38.1701C18.3413 38.1445 18.4663 38.0933 18.5778 38.0194C18.6894 37.9454 18.7852 37.8503 18.86 37.7393C18.9347 37.6284 18.9869 37.5038 19.0135 37.3726C19.0401 37.2415 19.0406 37.1064 19.015 36.9751C18.9894 36.8438 18.9382 36.7188 18.8643 36.6073C18.7903 36.4957 18.6952 36.3999 18.5842 36.3251C18.4733 36.2504 18.3486 36.1982 18.2175 36.1716C18.0864 36.145 17.9513 36.1445 17.82 36.1701C13.2 37.0701 9.72003 34.5301 7.61003 32.2501C4.46003 28.8401 3.08003 24.7401 3.00003 23.4901C3.66003 23.7601 5.56003 24.8801 9.26003 29.6201C9.41651 29.8389 9.65349 29.9866 9.91886 30.0307C10.1842 30.0747 10.4562 30.0116 10.675 29.8551C10.8938 29.6986 11.0415 29.4616 11.0856 29.1963C11.1296 28.9309 11.0665 28.6589 10.91 28.4401C5.71003 20.5501 5.20003 15.7701 5.37003 14.1601C6.90003 15.7201 10.72 21.4401 13.6 25.7601C13.7418 25.9815 13.965 26.1381 14.2214 26.1961C14.4778 26.2542 14.7467 26.2089 14.97 26.0701C15.1987 25.9382 15.366 25.7212 15.4353 25.4664C15.5046 25.2116 15.4704 24.9397 15.34 24.7101C9.34003 13.7101 9.55003 8.71006 9.90003 7.03006C10.8 7.94006 13.19 11.1101 18.22 22.0301C18.3273 22.2704 18.525 22.4587 18.7703 22.5541C19.0155 22.6496 19.2885 22.6446 19.53 22.5401C19.7762 22.444 19.9743 22.2544 20.0811 22.0127C20.1879 21.771 20.1947 21.4968 20.1 21.2501C15.22 8.00006 17.34 3.51006 18.15 3.00006C19.2 3.00006 22.15 8.06006 23.99 14.6901C24.1 15.1001 24.21 15.5001 24.31 15.8901C24.0518 16.3438 23.8503 16.8274 23.71 17.3301C22.71 21.0001 21.71 29.3301 23.64 31.6201C23.832 31.86 24.0805 32.0485 24.3632 32.1689C24.6459 32.2894 24.954 32.3378 25.26 32.3101C25.6475 32.268 26.0207 32.1403 26.3528 31.9362C26.6848 31.7321 26.9674 31.4568 27.18 31.1301C28.97 28.5201 27.92 21.9701 26.49 16.2401C27.4641 14.8623 28.8728 13.8516 30.49 13.3701C30.8356 13.2615 31.2042 13.2488 31.5564 13.3333C31.9087 13.4178 32.2314 13.5965 32.49 13.8501C33.31 14.7701 34.74 18.2101 30.4 30.3401C30.3098 30.5947 30.3245 30.8747 30.4408 31.1185C30.557 31.3623 30.7654 31.5499 31.02 31.6401C31.2746 31.7303 31.5546 31.7156 31.7984 31.5993C32.0422 31.4831 32.2298 31.2747 32.32 31.0201C35.78 21.3501 36.32 15.1201 34.01 12.5001C33.5074 11.9663 32.8657 11.5833 32.1573 11.3943C31.4489 11.2053 30.7018 11.2177 30 11.4301ZM25.5 30.0001C25.4252 30.1345 25.3045 30.2374 25.16 30.2901C24.41 29.4001 24.41 24.1301 25.23 19.8101C26.78 27.2801 25.88 29.4701 25.5 30.0001Z"
        fill="url(#paint0_linear_124_22)" />
    <defs>
        <linearGradient id="paint0_linear_124_22" x1="-64.3822" y1="700.304" x2="2828.2"
            y2="700.304" gradientUnits="userSpaceOnUse">
            <stop stop-color="#388EFF" />
            <stop offset="1" stop-color="#7A75FF" />
        </linearGradient>
    </defs>
</svg>