<svg viewBox="0 0 174 269" fill="none"
    xmlns="http://www.w3.org/2000/svg">
    <path fill-rule="evenodd" clip-rule="evenodd" d="M71.54 49.3296C72.28 25.8426 64.368 11.9956 41.623 2.84863C35.158 25.4626 61.848 46.3136 71.54 49.3296Z" fill="#D1D3D4" stroke="black" stroke-width="4.79" stroke-linejoin="round"/>
    <path fill-rule="evenodd" clip-rule="evenodd" d="M133.223 89.1341C133.963 69.8481 129.092 62.0641 125.436 56.4981C121.727 51.3061 112.827 43.1461 101.892 42.8041C91.551 42.4801 89.064 48.1961 79.524 48.5411C77.96 31.1691 91.071 21.6361 91.071 21.6361C91.071 21.6361 87.486 16.5691 84.52 15.3311C80.254 19.1221 68.512 31.7671 71.229 48.0391C62.451 46.3611 56.255 41.3371 47.034 43.1511C34.472 45.6231 24.117 53.2181 18.215 69.8841C12.314 86.5511 20.298 105.995 22.034 111.548C23.771 117.106 36.618 140.712 46.687 144.186C56.754 147.661 56.757 146.095 62.139 144.013C67.522 141.93 75.679 138.111 87.661 142.452C99.636 146.791 101.198 147.831 108.661 142.971C116.13 138.112 125.849 123.009 128.104 118.668C130.361 114.329 131.577 112.071 132.274 109.815C139.53 106.194 132.557 106.418 133.223 89.1341Z" fill="#D1D3D4" stroke="black" stroke-width="4.79" stroke-linejoin="round"/>
    <path d="M152.714 230.084C155.083 230.093 157.43 229.633 159.621 228.733C161.813 227.832 163.804 226.508 165.483 224.836C167.161 223.163 168.492 221.177 169.401 218.989C170.31 216.801 170.778 214.455 170.778 212.086C170.78 193.813 170.78 165.576 170.78 147.253C170.78 142.479 168.884 137.901 165.508 134.525C162.132 131.15 157.554 129.253 152.78 129.253H137.942C136.881 129.253 135.864 128.832 135.114 128.082C134.363 127.332 133.942 126.314 133.942 125.253V115.823H16.912L17.207 254.036C17.2084 254.707 17.3786 255.367 17.7019 255.955C18.0252 256.543 18.4912 257.04 19.057 257.401C24.269 260.419 40.978 266.151 76.061 266.151C111.886 266.151 127.9 258.477 132.485 255.012C132.935 254.639 133.297 254.171 133.546 253.642C133.794 253.112 133.923 252.535 133.923 251.95C133.942 248.125 133.942 239.262 133.942 234.026C133.942 233.494 134.048 232.967 134.254 232.476C134.46 231.986 134.763 231.541 135.143 231.168C135.523 230.796 135.974 230.503 136.469 230.307C136.964 230.111 137.493 230.016 138.025 230.027C142.426 230.089 147.699 230.098 152.714 230.084ZM133.942 150.278C133.942 148.952 134.469 147.68 135.406 146.742C136.344 145.805 137.616 145.278 138.942 145.278H151.68C153.006 145.278 154.278 145.805 155.216 146.742C156.153 147.68 156.68 148.952 156.68 150.278V208.463C156.68 209.789 156.153 211.061 155.216 211.999C154.278 212.936 153.006 213.463 151.68 213.463H138.942C137.616 213.463 136.344 212.936 135.406 211.999C134.469 211.061 133.942 209.789 133.942 208.463V150.278Z" fill="white" stroke="black" stroke-width="4.79" stroke-linejoin="round"/>
    <path fill-rule="evenodd" clip-rule="evenodd" d="M28.449 114.663V238.649C28.449 240.08 29.213 241.402 30.452 242.116C35.513 244.528 50.195 250.285 75.936 250.285C101.848 250.285 116.094 243.29 120.864 240.407C121.424 240.046 121.885 239.55 122.205 238.964C122.524 238.379 122.691 237.723 122.691 237.056C122.702 220.615 122.702 114.663 122.702 114.663H28.449Z" fill="#FBB040"/>
    <path d="M42.303 135.663V231.479" stroke="#FFDB96" stroke-width="11.0221" stroke-linecap="round"/>
    <path fill-rule="evenodd" clip-rule="evenodd" d="M95.555 140.106C95.555 138.106 94.378 135.718 92.445 134.519C89.2757 132.598 86.834 129.678 85.503 126.219C59.912 127.08 36.554 122.586 24.787 119.413C21.7658 118.557 18.7053 117.846 15.616 117.283C8.57297 115.886 3.21997 109.701 3.21997 102.265C3.21997 94.0802 9.71397 87.4292 17.828 87.1382C19.393 78.4812 26.949 71.9092 36.057 71.9092C46.299 71.9092 54.601 80.2132 54.601 90.4542C54.601 92.6092 54.212 94.6722 53.537 96.5982L53.592 96.6072C55.879 89.4542 62.575 84.2712 70.488 84.2712C78.35 84.2712 85.01 89.3932 87.336 96.4792C87.2684 95.8324 87.2347 95.1825 87.235 94.5322C87.235 83.8802 95.869 75.2462 106.519 75.2462C115.141 75.2462 122.438 80.9052 124.907 88.7082L126.588 88.2702C128.855 86.9878 131.415 86.3142 134.02 86.3152C142.389 86.3152 149.174 93.1002 149.171 101.467C149.171 109.133 143.48 115.468 136.092 116.479C134.419 116.716 132.778 117.142 131.201 117.749C126.81 119.404 122.32 120.776 117.784 121.908C117.564 124.091 116.915 126.208 115.875 128.139C114.035 131.592 113.21 135.494 113.495 139.396C113.493 139.632 113.502 140.868 113.502 141.106C113.502 146.062 109.486 149.078 104.526 149.078C103.348 149.078 102.181 148.846 101.093 148.395C100.004 147.944 99.0152 147.283 98.1822 146.45C97.3491 145.617 96.6883 144.628 96.2376 143.54C95.7868 142.451 95.5548 141.284 95.555 140.106Z" fill="white" stroke="black" stroke-width="4.79" stroke-linecap="round" stroke-linejoin="round"/>
</svg>
