<svg viewBox="0 0 451 512" fill="none" xmlns="http://www.w3.org/2000/svg">
    <path d="M41 460L0 0H451L410 460L225 512" fill="#E34F26" />
    <path d="M226 472L375 431L410 37H226" fill="#EF652A" />
    <path
        d="M226 208H151L146 150H226V94H225H84L85 109L99 265H226V208ZM226 355H225L162 338L158 293H128H102L109 382L225 414H226V355Z"
        fill="#EBEBEB" />
    <path
        d="M225 208V265H295L288 338L225 355V414L341 382L342 372L355 223L357 208H341H225ZM225 94V129V150H362L363 138L366 109L367 94H225Z"
        fill="white" />
</svg>