<svg viewBox="0 0 27 28" fill="none"
    xmlns="http://www.w3.org/2000/svg">
    <path fill-rule="evenodd" clip-rule="evenodd" d="M19.6142 20.1771C17.5228 20.1771 15.8274 18.4993 15.8274 16.43C15.8274 14.3603 17.5228 12.6825 19.6142 12.6825C21.7057 12.6825 23.401 14.3603 23.401 16.43C23.401 18.4993 21.7057 20.1771 19.6142 20.1771ZM20.7479 9.21551V5.88191C21.6272 5.47091 22.2431 4.59068 22.2431 3.56913V3.49218C22.2431 2.08229 21.0774 0.928781 19.6527 0.928781H19.5754C18.1507 0.928781 16.9851 2.08229 16.9851 3.49218V3.56913C16.9851 4.59068 17.6009 5.47127 18.4802 5.88227V9.21551C17.1711 9.4158 15.9749 9.95012 14.9885 10.7365L5.73944 3.61659C5.80048 3.38467 5.84336 3.14591 5.84372 2.89493C5.84518 1.29842 4.5393 0.00215931 2.92531 1.87311e-06C1.31205 -0.001796 0.00181863 1.29087 1.8933e-06 2.88774C-0.00181484 4.4846 1.30406 5.78087 2.91805 5.78266C3.44381 5.78338 3.9307 5.6356 4.35727 5.3954L13.4551 12.3995C12.6816 13.5552 12.2281 14.9396 12.2281 16.43C12.2281 17.9902 12.7263 19.4335 13.5678 20.6205L10.8012 23.3586C10.5825 23.2935 10.3558 23.2482 10.1152 23.2482C8.78938 23.2482 7.71424 24.3119 7.71424 25.6239C7.71424 26.9364 8.78938 28 10.1152 28C11.4415 28 12.5162 26.9364 12.5162 25.6239C12.5162 25.3866 12.4705 25.1619 12.4047 24.9454L15.1414 22.2371C16.3837 23.1752 17.9308 23.7391 19.6142 23.7391C23.6935 23.7391 27 20.4666 27 16.43C27 12.7757 24.2872 9.75667 20.7479 9.21551Z" fill="#F95C35"/>
</svg>
