<svg viewBox="0 0 1000 1000" fill="none"
    xmlns="http://www.w3.org/2000/svg">
    <path
        d="M292.92 3.49981C239.72 6.00981 203.39 14.4998 171.63 26.9798C138.76 39.7898 110.9 56.9798 83.1798 84.7998C55.4598 112.62 38.3898 140.5 25.6698 173.42C13.3598 205.25 5.01983 241.61 2.66983 294.84C0.319834 348.07 -0.200166 365.18 0.0598342 500.96C0.319834 636.74 0.919834 653.76 3.49983 707.1C6.03983 760.29 14.4998 796.61 26.9798 828.38C39.8098 861.25 56.9798 889.1 84.8098 916.83C112.64 944.56 140.5 961.59 173.5 974.33C205.3 986.62 241.67 995 294.89 997.33C348.11 999.66 365.24 1000.2 500.98 999.94C636.72 999.68 653.81 999.08 707.14 996.55C760.47 994.02 796.6 985.5 828.38 973.08C861.25 960.22 889.12 943.08 916.83 915.24C944.54 887.4 961.6 859.5 974.31 826.56C986.63 794.76 995 758.39 997.31 705.21C999.64 651.84 1000.19 634.8 999.93 499.04C999.67 363.28 999.06 346.26 996.53 292.94C994 239.62 985.53 203.41 973.06 171.62C960.21 138.75 943.06 110.92 915.24 83.1698C887.42 55.4198 859.5 38.3698 826.57 25.6898C794.75 13.3798 758.4 4.98981 705.18 2.68981C651.96 0.38981 634.83 -0.20019 499.04 0.0598103C363.25 0.31981 346.25 0.89981 292.92 3.49981ZM298.76 907.38C250.01 905.26 223.54 897.16 205.9 890.38C182.54 881.38 165.9 870.5 148.32 853.09C130.74 835.68 119.94 818.98 110.82 795.67C103.97 778.03 95.7198 751.59 93.4398 702.84C90.9598 650.15 90.4398 634.33 90.1498 500.84C89.8598 367.35 90.3698 351.55 92.6798 298.84C94.7598 250.13 102.91 223.63 109.68 206C118.68 182.61 129.52 166 146.97 148.43C164.42 130.86 181.07 120.04 204.4 110.92C222.02 104.04 248.46 95.8598 297.19 93.5398C349.92 91.0398 365.72 90.5398 499.19 90.2498C632.66 89.9598 648.5 90.4598 701.25 92.7798C749.96 94.8998 776.47 102.97 794.08 109.78C817.45 118.78 834.08 129.59 851.65 147.07C869.22 164.55 880.05 181.14 889.17 204.52C896.06 222.09 904.24 248.52 906.54 297.28C909.05 350.01 909.62 365.82 909.86 499.28C910.1 632.74 909.63 648.59 907.32 701.28C905.19 750.03 897.11 776.51 890.32 794.17C881.32 817.52 870.47 834.17 853.01 851.73C835.55 869.29 818.92 880.11 795.58 889.23C777.98 896.1 751.51 904.3 702.82 906.62C650.09 909.1 634.29 909.62 500.77 909.91C367.25 910.2 351.5 909.66 298.77 907.38M706.37 232.77C706.39 244.638 709.928 256.233 716.539 266.089C723.149 275.946 732.534 283.62 743.506 288.143C754.478 292.665 766.545 293.832 778.181 291.496C789.816 289.16 800.497 283.425 808.874 275.018C817.25 266.611 822.945 255.909 825.239 244.265C827.532 232.621 826.321 220.558 821.758 209.603C817.196 198.647 809.487 189.29 799.606 182.716C789.726 176.142 778.118 172.646 766.25 172.67C750.34 172.702 735.095 179.051 723.866 190.321C712.636 201.592 706.343 216.86 706.37 232.77ZM243.27 500.5C243.55 642.3 358.71 756.99 500.48 756.72C642.25 756.45 757.02 641.3 756.75 499.5C756.48 357.7 641.29 242.98 499.5 243.26C357.71 243.54 243 358.72 243.27 500.5ZM333.33 500.32C333.265 467.356 342.976 435.113 361.236 407.668C379.495 380.223 405.483 358.809 435.913 346.134C466.343 333.459 499.848 330.092 532.192 336.459C564.535 342.826 594.264 358.641 617.619 381.904C640.975 405.167 656.907 434.833 663.402 467.151C669.897 499.469 666.663 532.987 654.109 563.467C641.554 593.947 620.243 620.019 592.871 638.387C565.498 656.756 533.294 666.594 500.33 666.66C478.442 666.706 456.759 662.44 436.52 654.105C416.281 645.77 397.882 633.529 382.374 618.083C366.866 602.636 354.553 584.286 346.138 564.08C337.723 543.874 333.371 522.208 333.33 500.32Z"
        fill="currentColor" />
</svg>