<svg viewBox="0 0 630 630" fill="none" xmlns="http://www.w3.org/2000/svg">
    <path d="M630 0H0V630H630V0Z" fill="#F7DF1E" />
    <path
        d="M165.65 526.474L213.863 497.296C223.164 513.787 231.625 527.74 251.92 527.74C271.374 527.74 283.639 520.13 283.639 490.53V289.23H342.843V491.367C342.843 552.687 306.899 580.599 254.458 580.599C207.096 580.599 179.605 556.07 165.65 526.469"
        fill="black" />
    <path
        d="M375 520.13L423.206 492.219C435.896 512.942 452.389 528.166 481.568 528.166C506.099 528.166 521.741 515.901 521.741 498.985C521.741 478.686 505.673 471.496 478.606 459.659L463.809 453.311C421.094 435.13 392.759 412.294 392.759 364.084C392.759 319.68 426.59 285.846 479.454 285.846C517.091 285.846 544.156 298.957 563.607 333.212L517.511 362.814C507.361 344.631 496.369 337.442 479.454 337.442C462.115 337.442 451.119 348.437 451.119 362.814C451.119 380.576 462.115 387.766 487.486 398.762L502.286 405.105C552.611 426.674 580.946 448.662 580.946 498.139C580.946 551.426 539.08 580.604 482.836 580.604C427.86 580.604 392.336 554.386 375 520.13Z"
        fill="black" />
</svg>