<svg viewBox="0 0 40 55" fill="none" xmlns="http://www.w3.org/2000/svg">
    <path
        d="M27.3398 37.7218C25.9985 38.1016 22.9773 38.721 18.6571 38.721C14.4173 38.721 10.953 37.9952 10.9422 37.1405C10.935 36.572 11.6224 36.3242 11.6224 36.3242L11.5001 36.2532C9.46984 36.6121 7.58382 37.1668 7.59472 37.9973C7.61352 39.5043 13.3765 40.6361 18.6488 40.6361C23.131 40.6361 27.4358 39.884 29.3776 38.8988L27.3398 37.7218ZM13.0118 42.3809C12.0702 42.5683 10.0181 43.0395 10.0181 44.0374C10.0181 45.4197 14.4086 46.4784 18.6471 46.4784C24.4794 46.4784 26.8682 44.9777 26.9763 44.9L24.5512 43.497C23.5199 43.7427 21.7821 44.1288 18.6529 44.1288C15.1606 44.1288 12.8853 43.5307 12.8853 42.8759C12.8853 42.7369 12.9721 42.5721 13.134 42.4516L13.0118 42.3809ZM36.8447 33.0802C36.6815 36.2103 33.7897 38.1592 30.8993 39.806L31.1614 39.9571C34.2455 39.0895 39.7485 36.5628 39.2936 32.6791C39.067 30.7423 37.2967 29.3584 34.9888 29.3584C34.2701 29.3584 33.6307 29.4852 33.1124 29.643L33.1108 29.648L33.0014 29.9235C35.0656 29.5195 36.9519 31.0269 36.8447 33.0802ZM18.5674 51.4489C26.6804 51.3784 35.7579 49.7904 35.7345 47.1215C35.7303 46.6378 35.4153 46.3065 35.1415 46.1062L35.0084 46.1825C34.2584 48.25 27.919 49.7775 18.5536 49.8592C12.5105 49.9119 4.13956 48.4641 4.12492 46.791C4.11029 45.1137 8.09045 44.1919 8.09045 44.1919L7.80925 44.0312C5.14203 44.3984 0.227453 45.6758 0.243692 47.5201C0.26709 50.1865 11.562 51.5103 18.5674 51.4489ZM17.7234 53.3544C14.4987 53.3829 10.5611 53.1158 7.24867 52.559L6.94194 52.7355C10.2414 53.703 14.8351 54.2873 19.8828 54.2434C29.7959 54.1566 37.8329 51.6984 37.9919 48.74L37.8771 48.6732C37.2127 49.4841 32.9251 53.2218 17.7234 53.3544ZM5.30474 32.3665C5.30474 30.8712 10.9768 30.0323 13.6177 29.8291L13.8698 29.9747C12.8552 30.1593 8.7849 30.8771 8.7849 31.8135C8.7849 32.8331 15.0279 33.5013 18.6517 33.5013C24.8065 33.5013 28.9903 32.5697 30.1155 32.2626L31.6897 33.1787C30.6117 33.7066 25.9835 35.0901 18.6521 35.0901C10.5039 35.0901 5.30474 33.4958 5.30474 32.3665Z"
        fill="currentColor" />
    <path
        d="M29.9275 11.4666L29.7911 11.3886C27.3129 12.2186 19.6852 15.2293 19.6852 20.8429C19.6852 24.018 22.7856 25.7762 22.7856 28.7536C22.7856 29.8157 22.1859 30.8114 21.6977 31.4066L21.9431 31.5485C23.2335 30.7096 25.5183 28.8933 25.5183 26.5483C25.5183 24.5626 22.7698 22.1767 22.7698 19.6242C22.7698 15.6024 28.0729 12.4469 29.9275 11.4666ZM26.1832 4.10895C26.1832 12.4172 14.7974 15.5965 14.7974 21.5035C14.7974 25.6502 17.5472 28.2507 19.0684 29.8945L18.9448 29.9659C17.0242 28.7644 11.9707 25.745 11.9707 20.7574C11.9707 13.7553 25.0484 10.4094 25.0484 2.45583C25.0484 1.47719 24.9036 0.727187 24.8022 0.322375L24.9345 0.246094C25.3489 0.766932 26.1832 2.06897 26.1832 4.10895Z"
        fill="currentColor" />
</svg>