<svg viewBox="0 0 36 17" fill="none" xmlns="http://www.w3.org/2000/svg">
    <path
        d="M34.123 0.127687C34.002 0.127467 33.881 0.151397 33.769 0.198117C33.657 0.244837 33.555 0.313417 33.469 0.399917C33.383 0.486417 33.315 0.589137 33.269 0.702167C33.223 0.815197 33.199 0.936317 33.2 1.05857V16.0644C33.199 16.1867 33.223 16.3079 33.269 16.4209C33.315 16.534 33.383 16.6368 33.469 16.7234C33.555 16.81 33.657 16.8787 33.769 16.9255C33.881 16.9724 34.002 16.9965 34.123 16.9965C34.245 16.9965 34.365 16.9724 34.477 16.9255C34.589 16.8787 34.691 16.81 34.777 16.7234C34.863 16.6368 34.931 16.534 34.977 16.4209C35.023 16.3079 35.047 16.1867 35.047 16.0644V1.05857C35.047 0.811847 34.95 0.575167 34.776 0.400597C34.603 0.226027 34.368 0.127857 34.123 0.127687ZM14.426 5.49931C13.799 5.49431 13.184 5.67693 12.66 6.024C12.137 6.371 11.727 6.8669 11.484 7.4486C11.24 8.0304 11.174 8.6718 11.293 9.2915C11.413 9.9112 11.712 10.4813 12.154 10.9294C12.595 11.3776 13.159 11.6835 13.774 11.8085C14.389 11.9335 15.026 11.8719 15.606 11.6315C16.186 11.391 16.682 10.9827 17.031 10.4582C17.379 9.9337 17.566 9.3166 17.566 8.6854C17.569 7.8437 17.24 7.0352 16.651 6.4377C16.062 5.84022 15.262 5.50267 14.426 5.49931ZM24.954 5.49931C24.327 5.49431 23.713 5.67693 23.189 6.024C22.665 6.371 22.256 6.8669 22.012 7.4486C21.769 8.0304 21.702 8.6718 21.822 9.2915C21.941 9.9112 22.241 10.4813 22.682 10.9294C23.124 11.3776 23.688 11.6835 24.302 11.8085C24.917 11.9335 25.555 11.8719 26.134 11.6315C26.714 11.391 27.21 10.9827 27.559 10.4582C27.908 9.9337 28.094 9.3166 28.094 8.6854C28.097 7.8437 27.768 7.0352 27.18 6.4377C26.591 5.84022 25.79 5.50266 24.954 5.49931ZM3.89702 5.49931C3.27002 5.49431 2.65602 5.67693 2.13202 6.024C1.60802 6.371 1.19902 6.8669 0.955017 7.4486C0.712017 8.0304 0.646014 8.6718 0.765014 9.2915C0.884014 9.9112 1.18401 10.4813 1.62501 10.9294C2.06701 11.3776 2.63102 11.6835 3.24502 11.8085C3.86002 11.9335 4.49802 11.8719 5.07802 11.6315C5.65702 11.391 6.15301 10.9827 6.50201 10.4582C6.85101 9.9337 7.03702 9.3166 7.03702 8.6854C7.04102 7.8437 6.71202 7.0352 6.12302 6.4377C5.53402 5.8402 4.73302 5.50265 3.89702 5.49931Z"
        fill="#DD2222" />
</svg>