<svg viewBox="0 0 20 20" fill="none" xmlns="http://www.w3.org/2000/svg">
    <path
        d="M18.5 0H1.5C1.10218 0 0.720644 0.158035 0.43934 0.43934C0.158035 0.720644 0 1.10218 0 1.5V18.5C0 18.8978 0.158035 19.2794 0.43934 19.5607C0.720644 19.842 1.10218 20 1.5 20H18.5C18.8978 20 19.2794 19.842 19.5607 19.5607C19.842 19.2794 20 18.8978 20 18.5V1.5C20 1.10218 19.842 0.720644 19.5607 0.43934C19.2794 0.158035 18.8978 0 18.5 0ZM6 17H3V8H6V17ZM4.5 6.25C4.15618 6.24017 3.82288 6.12924 3.54175 5.93108C3.26062 5.73291 3.04411 5.45629 2.9193 5.13578C2.79448 4.81527 2.76687 4.46508 2.83994 4.12897C2.913 3.79286 3.0835 3.48574 3.33011 3.24597C3.57673 3.00621 3.88853 2.84443 4.22656 2.78086C4.5646 2.71729 4.91387 2.75475 5.23074 2.88854C5.5476 3.02234 5.81802 3.24655 6.00819 3.53315C6.19836 3.81975 6.29986 4.15604 6.3 4.5C6.2921 4.97035 6.09834 5.41845 5.76105 5.74637C5.42376 6.07428 4.97039 6.25535 4.5 6.25ZM17 17H14V12.26C14 10.84 13.4 10.33 12.62 10.33C12.3913 10.3452 12.1679 10.4055 11.9625 10.5073C11.7572 10.6091 11.574 10.7505 11.4235 10.9234C11.273 11.0962 11.1581 11.2971 11.0854 11.5144C11.0127 11.7318 10.9837 11.9614 11 12.19C10.995 12.2365 10.995 12.2835 11 12.33V17H8V8H10.9V9.3C11.1925 8.855 11.5944 8.49257 12.0672 8.24744C12.54 8.0023 13.0677 7.88267 13.6 7.9C15.15 7.9 16.96 8.76 16.96 11.56L17 17Z"
        fill="black" />
</svg>