<svg viewBox="0 0 49 46" fill="none" xmlns="http://www.w3.org/2000/svg">
    <path
        d="M27.3519 11.3842C31.1878 10.807 34.161 8.36126 33.9927 5.92158C33.8245 3.4819 30.5785 1.97211 26.7426 2.54937C22.9067 3.12664 19.9335 5.57236 20.1018 8.01204C20.27 10.4517 23.516 11.9615 27.3519 11.3842Z"
        fill="#85C8C8" />
    <path
        d="M3.12406 6.33795C1.39874 9.35963 2.66266 13.6281 5.94712 15.8719C9.23157 18.1156 13.2928 17.485 15.0181 14.4633C16.7434 11.4416 15.4795 7.17314 12.1951 4.92939C8.91061 2.68564 4.84938 3.31627 3.12406 6.33795Z"
        fill="#85C8C8" />
    <path
        d="M25.3832 42.6716C34.4375 44.1418 43.1776 39.6485 44.9048 32.6356C46.6321 25.6226 40.6923 18.7457 31.6379 17.2755C22.5836 15.8053 13.8435 20.2986 12.1163 27.3116C10.389 34.3245 16.3288 41.2014 25.3832 42.6716Z"
        fill="#85C8C8" />
</svg>