<svg viewBox="0 0 48 48" fill="none" xmlns="http://www.w3.org/2000/svg">
    <path
        d="M45 25C45.0012 24.8347 44.9596 24.6719 44.8794 24.5274C44.7991 24.3828 44.6829 24.2615 44.542 24.175H44.537L44.519 24.165L29.619 15.345C29.5547 15.3016 29.4879 15.2618 29.419 15.226C29.1355 15.0797 28.821 15.0034 28.502 15.0034C28.183 15.0034 27.8685 15.0797 27.585 15.226C27.5161 15.2618 27.4493 15.3016 27.385 15.345L12.485 24.165L12.467 24.175C12.3249 24.2634 12.208 24.387 12.1278 24.5338C12.0475 24.6806 12.0065 24.8457 12.0089 25.013C12.0112 25.1803 12.0567 25.3442 12.141 25.4888C12.2253 25.6333 12.3455 25.7536 12.49 25.838L27.39 34.658C27.4546 34.7011 27.5213 34.7409 27.59 34.777C27.8735 34.9233 28.188 34.9996 28.507 34.9996C28.826 34.9996 29.1405 34.9233 29.424 34.777C29.4927 34.7409 29.5594 34.7011 29.624 34.658L44.524 25.838C44.6702 25.7528 44.7913 25.6304 44.8749 25.4832C44.9585 25.336 45.0017 25.1693 45 25Z"
        fill="#0A2767" />
    <path
        d="M14.222 19.111H24V28.074H14.222V19.111ZM43 10V5.9C43.0113 5.4077 42.8267 4.93106 42.4867 4.5748C42.1468 4.21854 41.6793 4.0118 41.187 4H15.813C15.3207 4.0118 14.8532 4.21854 14.5133 4.5748C14.1733 4.93106 13.9887 5.4077 14 5.9V10L29 14L43 10Z"
        fill="#0364B8" />
    <path d="M14 10H24V19H14V10Z" fill="#0078D4" />
    <path d="M34 10H24V19L34 28H43V19L34 10Z" fill="#28A8EA" />
    <path d="M24 19H34V28H24V19Z" fill="#0078D4" />
    <path d="M24 28H34V37H24V28Z" fill="#0364B8" />
    <path d="M14.222 28.074H24V36.222H14.222V28.074Z" fill="#14447D" />
    <path d="M34 28H43V37H34V28Z" fill="#0078D4" />
    <path
        d="M44.542 25.783L44.523 25.793L29.623 34.173C29.558 34.213 29.492 34.251 29.423 34.285C29.1699 34.4055 28.8951 34.4735 28.615 34.485L27.801 34.009C27.7322 33.9745 27.6654 33.9361 27.601 33.894L12.501 25.276H12.494L12 25V41.964C12.0037 42.5075 12.2231 43.0273 12.61 43.4091C12.9968 43.7909 13.5195 44.0035 14.063 44H42.969C42.986 44 43.001 43.992 43.019 43.992C43.2581 43.9767 43.4938 43.9275 43.719 43.846C43.8163 43.8048 43.9103 43.7559 44 43.7C44.067 43.662 44.182 43.579 44.182 43.579C44.4346 43.392 44.6401 43.1487 44.7822 42.8683C44.9242 42.5879 44.9988 42.2783 45 41.964V25C44.9998 25.1594 44.9573 25.3158 44.8769 25.4534C44.7964 25.591 44.6808 25.7047 44.542 25.783Z"
        fill="url(#paint0_linear_108_129)" />
    <path opacity="0.5"
        d="M44.2 24.933V25.973L28.62 36.7L12.49 25.283C12.49 25.2803 12.4889 25.2778 12.4871 25.2759C12.4852 25.274 12.4827 25.273 12.48 25.273L11 24.383V23.633L11.61 23.623L12.9 24.363L12.93 24.373L13.04 24.443C13.04 24.443 28.2 33.093 28.24 33.113L28.82 33.453C28.87 33.433 28.92 33.413 28.98 33.393C29.01 33.373 44.03 24.923 44.03 24.923L44.2 24.933Z"
        fill="#0A2767" />
    <path
        d="M44.542 25.783L44.523 25.794L29.623 34.174C29.558 34.214 29.492 34.252 29.423 34.286C29.1374 34.4255 28.8238 34.498 28.506 34.498C28.1882 34.498 27.8746 34.4255 27.589 34.286C27.5205 34.2521 27.4537 34.2147 27.389 34.174L12.489 25.794L12.471 25.783C12.3297 25.7064 12.2116 25.5934 12.1287 25.4557C12.0459 25.318 12.0015 25.1607 12 25V41.964C12.0017 42.2331 12.0564 42.4992 12.1609 42.7471C12.2655 42.9951 12.4178 43.22 12.6093 43.4091C12.8008 43.5981 13.0276 43.7476 13.2769 43.849C13.5261 43.9504 13.7929 44.0017 14.062 44H42.938C43.2071 44.0017 43.4739 43.9504 43.7231 43.849C43.9724 43.7476 44.1992 43.5981 44.3907 43.4091C44.5822 43.22 44.7345 42.9951 44.8391 42.7471C44.9436 42.4992 44.9983 42.2331 45 41.964V25C44.9998 25.1594 44.9573 25.3158 44.8769 25.4534C44.7964 25.591 44.6808 25.7047 44.542 25.783Z"
        fill="#1490DF" />
    <path opacity="0.1"
        d="M29.84 34.05L29.617 34.175C29.5524 34.2161 29.4856 34.2539 29.417 34.288C29.1713 34.4086 28.9042 34.4793 28.631 34.496L34.3 41.2L44.189 43.583C44.46 43.3783 44.6755 43.1091 44.816 42.8L29.84 34.05Z"
        fill="black" />
    <path opacity="0.05"
        d="M30.85 33.482L29.617 34.175C29.5524 34.2161 29.4856 34.2539 29.417 34.288C29.1713 34.4086 28.9042 34.4793 28.631 34.496L31.287 41.819L44.192 43.58C44.4428 43.3917 44.6463 43.1477 44.7865 42.8673C44.9268 42.5868 44.9998 42.2776 45 41.964V41.745L30.85 33.482Z"
        fill="black" />
    <path
        d="M14.09 44H42.935C43.3789 44.0023 43.8117 43.8621 44.17 43.6L27.8 34.011C27.7312 33.9765 27.6644 33.9381 27.6 33.896L12.5 25.278H12.493L12 25V41.906C11.9997 42.1807 12.0536 42.4528 12.1585 42.7067C12.2634 42.9606 12.4172 43.1914 12.6113 43.3859C12.8054 43.5803 13.0359 43.7346 13.2896 43.84C13.5433 43.9454 13.8153 43.9997 14.09 44Z"
        fill="#28A8EA" />
    <path opacity="0.1"
        d="M26 13.833V35.163C25.9991 35.5286 25.8892 35.8856 25.6844 36.1885C25.4795 36.4913 25.189 36.7261 24.85 36.863C24.6352 36.9553 24.4038 37.003 24.17 37.003H12V13H14V12H24.17C24.6553 12.0018 25.1201 12.1957 25.463 12.5391C25.8059 12.8825 25.9989 13.3477 26 13.833Z"
        fill="black" />
    <path opacity="0.2"
        d="M25 14.833V36.163C25.0025 36.4046 24.9513 36.6437 24.85 36.863C24.7142 37.1977 24.482 37.4845 24.1829 37.687C23.8837 37.8894 23.5312 37.9984 23.17 38H12V13H23.17C23.4602 12.9971 23.7461 13.0695 24 13.21C24.3006 13.3615 24.5532 13.5934 24.7298 13.8799C24.9064 14.1665 24.9999 14.4964 25 14.833Z"
        fill="black" />
    <path opacity="0.2"
        d="M25 14.833V34.163C24.9977 34.6483 24.8043 35.1131 24.4618 35.4569C24.1193 35.8007 23.6553 35.9958 23.17 36H12V13H23.17C23.4602 12.9971 23.7461 13.0695 24 13.21C24.3006 13.3615 24.5532 13.5934 24.7298 13.8799C24.9064 14.1665 24.9999 14.4964 25 14.833Z"
        fill="black" />
    <path opacity="0.2"
        d="M24 14.833V34.163C23.9995 34.6488 23.8067 35.1147 23.4639 35.4589C23.121 35.8031 22.6558 35.9976 22.17 36H12V13H22.17C22.4105 13.0001 22.6487 13.0477 22.8708 13.1399C23.093 13.2321 23.2948 13.3671 23.4648 13.5373C23.6347 13.7076 23.7695 13.9096 23.8613 14.1319C23.9531 14.3542 24.0003 14.5925 24 14.833Z"
        fill="black" />
    <path
        d="M22.167 13H3.833C2.82066 13 2 13.8207 2 14.833V33.167C2 34.1793 2.82066 35 3.833 35H22.167C23.1793 35 24 34.1793 24 33.167V14.833C24 13.8207 23.1793 13 22.167 13Z"
        fill="url(#paint1_linear_108_129)" />
    <path
        d="M7.729 20.688C8.18077 19.7255 8.90999 18.92 9.823 18.375C10.8341 17.7961 11.9854 17.5075 13.15 17.541C14.2294 17.5176 15.2945 17.7912 16.229 18.332C17.1076 18.856 17.8152 19.6237 18.266 20.542C18.7569 21.5539 19.0015 22.6675 18.98 23.792C19.0038 24.9672 18.7521 26.1316 18.245 27.192C17.7835 28.1431 17.0534 28.9382 16.145 29.479C15.1745 30.0363 14.0699 30.3172 12.951 30.291C11.8485 30.3176 10.7599 30.0409 9.804 29.491C8.9178 28.9664 8.20129 28.1978 7.74 27.277C7.24621 26.2797 6.99862 25.1787 7.018 24.066C6.99744 22.9008 7.2405 21.746 7.729 20.688ZM9.961 26.118C10.2019 26.7265 10.6103 27.2542 11.139 27.64C11.6775 28.0164 12.3223 28.2105 12.979 28.194C13.6784 28.2217 14.3678 28.0209 14.943 27.622C15.465 27.2375 15.8627 26.7083 16.087 26.1C16.3377 25.4207 16.4615 24.7011 16.452 23.977C16.4598 23.246 16.3434 22.5191 16.108 21.827C15.9001 21.2022 15.5151 20.6512 15 20.241C14.4392 19.8232 13.7517 19.6114 13.053 19.641C12.382 19.6236 11.7228 19.8193 11.17 20.2C10.6324 20.5874 10.2162 21.1198 9.97 21.735C9.42391 23.1452 9.42106 24.7079 9.962 26.12L9.961 26.118Z"
        fill="white" />
    <path d="M34 10H43V19H34V10Z" fill="#50D9FF" />
    <defs>
        <linearGradient id="paint0_linear_108_129" x1="28.5" y1="25" x2="28.5" y2="44"
            gradientUnits="userSpaceOnUse">
            <stop stop-color="#35B8F1" />
            <stop offset="1" stop-color="#28A8EA" />
        </linearGradient>
        <linearGradient id="paint1_linear_108_129" x1="5.822" y1="11.568" x2="20.178" y2="36.432"
            gradientUnits="userSpaceOnUse">
            <stop stop-color="#1784D9" />
            <stop offset="0.5" stop-color="#107AD5" />
            <stop offset="1" stop-color="#0A63C9" />
        </linearGradient>
    </defs>
</svg>