<svg viewBox="0 0 48 48" fill="none" xmlns="http://www.w3.org/2000/svg">
    <path
        d="M28 26L25 4H24.776C19.5358 4.0153 14.5146 6.10375 10.8092 9.80916C7.10375 13.5146 5.0153 18.5358 5 23.776V24L28 26Z"
        fill="#ED6C47" />
    <path
        d="M25.224 4H25V24L35 28L45 24V23.776C44.9847 18.5358 42.8962 13.5146 39.1908 9.80916C35.4854 6.10375 30.4642 4.0153 25.224 4Z"
        fill="#FF8F6B" />
    <path
        d="M45 24V24.22C44.985 29.4614 42.8962 34.4837 39.19 38.19C35.4837 41.8962 30.4614 43.985 25.22 44H24.78C19.5386 43.985 14.5163 41.8962 10.81 38.19C7.10383 34.4837 5.01504 29.4614 5 24.22V24H45Z"
        fill="#D35230" />
    <path opacity="0.1"
        d="M26 13.83V35.17C25.9976 35.5327 25.8881 35.8865 25.6853 36.1872C25.4825 36.4879 25.1954 36.7219 24.86 36.86C24.6417 36.9523 24.407 37 24.17 37H9.72C9.44 36.68 9.17 36.34 8.92 36C6.37229 32.6014 4.99668 28.4675 5 24.22V23.78C4.99416 19.9488 6.11384 16.2003 8.22 13C8.44 12.66 8.67 12.32 8.92 12H24.17C24.6542 12.0037 25.1176 12.1976 25.46 12.54C25.8024 12.8824 25.9963 13.3458 26 13.83Z"
        fill="black" />
    <path opacity="0.2"
        d="M25 14.83V36.17C25 36.407 24.9523 36.6417 24.86 36.86C24.7219 37.1954 24.4879 37.4825 24.1872 37.6853C23.8865 37.8881 23.5327 37.9976 23.17 38H10.63C10.3136 37.6788 10.01 37.3452 9.72 37C9.44 36.68 9.17 36.34 8.92 36C6.37229 32.6014 4.99668 28.4675 5 24.22V23.78C4.99416 19.9488 6.11384 16.2003 8.22 13H23.17C23.6542 13.0037 24.1176 13.1976 24.46 13.54C24.8024 13.8824 24.9963 14.3458 25 14.83Z"
        fill="black" />
    <path opacity="0.2"
        d="M25 14.83V34.17C24.9963 34.6542 24.8024 35.1176 24.46 35.46C24.1176 35.8024 23.6542 35.9963 23.17 36H8.92C6.37229 32.6014 4.99668 28.4675 5 24.22V23.78C4.99416 19.9488 6.11384 16.2003 8.22 13H23.17C23.6542 13.0037 24.1176 13.1976 24.46 13.54C24.8024 13.8824 24.9963 14.3458 25 14.83Z"
        fill="black" />
    <path opacity="0.2"
        d="M24 14.83V34.17C23.9963 34.6542 23.8024 35.1176 23.46 35.46C23.1176 35.8024 22.6542 35.9963 22.17 36H8.92C6.37229 32.6014 4.99668 28.4675 5 24.22V23.78C4.99416 19.9488 6.11384 16.2003 8.22 13H22.17C22.6542 13.0037 23.1176 13.1976 23.46 13.54C23.8024 13.8824 23.9963 14.3458 24 14.83Z"
        fill="black" />
    <path
        d="M22.167 13H3.833C2.82066 13 2 13.8207 2 14.833V33.167C2 34.1793 2.82066 35 3.833 35H22.167C23.1793 35 24 34.1793 24 33.167V14.833C24 13.8207 23.1793 13 22.167 13Z"
        fill="url(#paint0_linear_116_345)" />
    <path
        d="M13.2 17.8889C14.3935 17.8083 15.5767 18.155 16.538 18.8669C16.9337 19.2202 17.2439 19.6588 17.4452 20.1496C17.6466 20.6404 17.7337 21.1705 17.7 21.6999C17.7131 22.4455 17.5144 23.1796 17.127 23.8169C16.7348 24.4432 16.1697 24.9426 15.5 25.2549C14.7343 25.611 13.8972 25.7868 13.053 25.7689H10.734V30.0789H8.359V17.8889H13.2ZM10.732 23.9069H12.776C13.424 23.9545 14.067 23.7627 14.583 23.3679C14.7939 23.1656 14.9578 22.9196 15.0634 22.6471C15.169 22.3747 15.2135 22.0824 15.194 21.7909C15.194 20.4475 14.4133 19.7759 12.852 19.7759H10.732V23.9069Z"
        fill="white" />
    <defs>
        <linearGradient id="paint0_linear_116_345" x1="5.822" y1="11.568" x2="20.178" y2="36.432"
            gradientUnits="userSpaceOnUse">
            <stop stop-color="#CA4C28" />
            <stop offset="0.5" stop-color="#C5401E" />
            <stop offset="1" stop-color="#B62F14" />
        </linearGradient>
    </defs>
</svg>