<svg viewBox="0 0 48 48" fill="none" xmlns="http://www.w3.org/2000/svg">
    <path
        d="M28 27.0001C28 27.0001 36.854 20.9461 37.045 20.9591C36.4138 18.4958 35.0807 16.2688 33.2077 14.5489C31.3347 12.8291 29.0024 11.6902 26.4943 11.2709C23.9863 10.8516 21.4104 11.1698 19.0798 12.1868C16.7492 13.2039 14.7642 14.8761 13.366 17.0001H13.5L28 27.0001Z"
        fill="#0364B8" />
    <path
        d="M19.016 18.564C17.3592 17.5385 15.4485 16.9967 13.5 17H13.366C11.4592 17.0249 9.59515 17.5687 7.97399 18.5729C6.35284 19.5771 5.03576 21.0038 4.16416 22.7C3.29255 24.3961 2.89931 26.2976 3.02666 28.2003C3.15401 30.103 3.79714 31.9352 4.887 33.5L19 32L27.833 23.845L19.016 18.564Z"
        fill="#0F78D4" />
    <path
        d="M37.045 20.959C36.8533 20.9454 36.6612 20.9384 36.469 20.938C35.3057 20.9376 34.1546 21.1758 33.087 21.638L27.833 23.848L34 31L43.98 33.517C44.6568 32.2603 45.0075 30.8538 45 29.4265C44.9924 27.9991 44.6269 26.5964 43.9369 25.3469C43.2469 24.0974 42.2544 23.041 41.0503 22.2744C39.8463 21.5078 38.4691 21.0555 37.045 20.959Z"
        fill="#1490DF" />
    <path
        d="M36.529 29.054L34.351 27.754L29.357 24.763L27.833 23.85L23.814 25.542L16.114 28.78L12.662 30.23L4.887 33.5C5.85289 34.8895 7.14077 36.0245 8.64064 36.8082C10.1405 37.5918 11.8078 38.0007 13.5 38H36.469C38.009 38.0003 39.5204 37.5837 40.8428 36.7944C42.1652 36.0051 43.2493 34.8726 43.98 33.517L36.529 29.054Z"
        fill="#28A8EA" />
</svg>