<svg viewBox="0 0 48 48" fill="none" xmlns="http://www.w3.org/2000/svg">
    <path
        d="M29 23L12 20V42.167C12 42.6531 12.1931 43.1194 12.5369 43.4631C12.8806 43.8069 13.3469 44 13.833 44H43.167C43.6531 44 44.1194 43.8069 44.4631 43.4631C44.8069 43.1194 45 42.6531 45 42.167V34L29 23Z"
        fill="#185C37" />
    <path
        d="M29 4H13.833C13.3469 4 12.8806 4.19312 12.5369 4.53687C12.1931 4.88063 12 5.34686 12 5.833V14L29 24L38 27L45 24V14L29 4Z"
        fill="#21A366" />
    <path d="M12 14H29V24H12V14Z" fill="#107C41" />
    <path opacity="0.1"
        d="M24.167 12H12V37H24.167C24.6527 36.9984 25.118 36.8048 25.4614 36.4614C25.8048 36.118 25.9984 35.6527 26 35.167V13.833C25.9984 13.3473 25.8048 12.882 25.4614 12.5386C25.118 12.1952 24.6527 12.0016 24.167 12Z"
        fill="black" />
    <path opacity="0.2"
        d="M23.167 13H12V38H23.167C23.6527 37.9984 24.118 37.8048 24.4614 37.4614C24.8048 37.118 24.9984 36.6527 25 36.167V14.833C24.9984 14.3473 24.8048 13.882 24.4614 13.5386C24.118 13.1952 23.6527 13.0016 23.167 13Z"
        fill="black" />
    <path opacity="0.2"
        d="M23.167 13H12V36H23.167C23.6527 35.9984 24.118 35.8048 24.4614 35.4614C24.8048 35.118 24.9984 34.6527 25 34.167V14.833C24.9984 14.3473 24.8048 13.882 24.4614 13.5386C24.118 13.1952 23.6527 13.0016 23.167 13Z"
        fill="black" />
    <path opacity="0.2"
        d="M22.167 13H12V36H22.167C22.6527 35.9984 23.118 35.8048 23.4614 35.4614C23.8048 35.118 23.9984 34.6527 24 34.167V14.833C23.9984 14.3473 23.8048 13.882 23.4614 13.5386C23.118 13.1952 22.6527 13.0016 22.167 13Z"
        fill="black" />
    <path
        d="M22.167 13H3.833C2.82066 13 2 13.8207 2 14.833V33.167C2 34.1793 2.82066 35 3.833 35H22.167C23.1793 35 24 34.1793 24 33.167V14.833C24 13.8207 23.1793 13 22.167 13Z"
        fill="url(#paint0_linear_116_371)" />
    <path
        d="M7.677 29.958L11.533 23.983L8 18.041H10.842L12.77 21.841C12.948 22.202 13.07 22.47 13.136 22.647H13.161C13.2877 22.359 13.421 22.0793 13.561 21.808L15.622 18.043H18.231L14.608 23.95L18.323 29.958H15.547L13.32 25.787C13.2151 25.6095 13.1261 25.4232 13.054 25.23H13.021C12.9558 25.4192 12.8692 25.6004 12.763 25.77L10.47 29.958H7.677Z"
        fill="white" />
    <path
        d="M43.167 4H29V14H45V5.833C45 5.34686 44.8069 4.88063 44.4631 4.53687C44.1194 4.19312 43.6531 4 43.167 4Z"
        fill="#33C481" />
    <path d="M29 24H45V34H29V24Z" fill="#107C41" />
    <defs>
        <linearGradient id="paint0_linear_116_371" x1="5.822" y1="11.568" x2="20.178" y2="36.432"
            gradientUnits="userSpaceOnUse">
            <stop stop-color="#18884F" />
            <stop offset="0.5" stop-color="#117E43" />
            <stop offset="1" stop-color="#0B6631" />
        </linearGradient>
    </defs>
</svg>