<svg viewBox="0 0 48 48" fill="none" xmlns="http://www.w3.org/2000/svg">
    <path
        d="M31.993 19H43.1C43.6039 19 44.0872 19.2002 44.4435 19.5565C44.7998 19.9128 45 20.3961 45 20.9V31.017C45 32.869 44.2643 34.6452 42.9547 35.9547C41.6452 37.2643 39.869 38 38.017 38H37.984C37.0669 38.0001 36.1587 37.8196 35.3114 37.4687C34.4641 37.1179 33.6942 36.6035 33.0456 35.9551C32.3971 35.3066 31.8826 34.5368 31.5316 33.6895C31.1807 32.8422 31 31.9341 31 31.017V19.993C31 19.7296 31.1046 19.4771 31.2908 19.2908C31.4771 19.1046 31.7296 19 31.993 19Z"
        fill="#5059C9" />
    <path
        d="M39.5 17C41.9853 17 44 14.9853 44 12.5C44 10.0147 41.9853 8 39.5 8C37.0147 8 35 10.0147 35 12.5C35 14.9853 37.0147 17 39.5 17Z"
        fill="#5059C9" />
    <path
        d="M25.5 17C29.0899 17 32 14.0899 32 10.5C32 6.91015 29.0899 4 25.5 4C21.9101 4 19 6.91015 19 10.5C19 14.0899 21.9101 17 25.5 17Z"
        fill="#7B83EB" />
    <path
        d="M34.167 19H15.833C15.3351 19.0123 14.8623 19.2217 14.5187 19.5823C14.175 19.9428 13.9885 20.425 14 20.923V32.462C13.9305 35.4502 15.0499 38.3438 17.1124 40.5072C19.175 42.6706 22.0119 43.9269 25 44C27.9881 43.9269 30.825 42.6706 32.8876 40.5072C34.9501 38.3438 36.0695 35.4502 36 32.462V20.923C36.0115 20.425 35.825 19.9428 35.4813 19.5823C35.1377 19.2217 34.665 19.0123 34.167 19Z"
        fill="#7B83EB" />
    <path opacity="0.1"
        d="M26 19V35.17C25.9976 35.5327 25.8881 35.8865 25.6853 36.1872C25.4825 36.4879 25.1954 36.7219 24.86 36.86C24.6417 36.9523 24.4071 37 24.17 37H14.88C14.75 36.67 14.63 36.34 14.53 36C14.18 34.8525 14.0014 33.6597 14 32.46V20.92C13.9885 20.4228 14.1747 19.9414 14.5178 19.5814C14.8609 19.2214 15.3328 19.0123 15.83 19H26Z"
        fill="black" />
    <path opacity="0.2"
        d="M25 19V36.17C25 36.407 24.9524 36.6417 24.86 36.86C24.7219 37.1954 24.4879 37.4825 24.1872 37.6853C23.8865 37.8881 23.5327 37.9976 23.17 38H15.35C15.18 37.67 15.02 37.34 14.88 37C14.74 36.66 14.63 36.34 14.53 36C14.18 34.8525 14.0014 33.6597 14 32.46V20.92C13.9885 20.4228 14.1747 19.9414 14.5178 19.5814C14.8609 19.2214 15.3328 19.0123 15.83 19H25Z"
        fill="black" />
    <path opacity="0.2"
        d="M25 19V34.17C24.9963 34.6542 24.8024 35.1176 24.46 35.46C24.1176 35.8024 23.6542 35.9963 23.17 36H14.53C14.18 34.8525 14.0014 33.6597 14 32.46V20.92C13.9885 20.4228 14.1747 19.9414 14.5178 19.5814C14.8609 19.2214 15.3328 19.0123 15.83 19H25Z"
        fill="black" />
    <path opacity="0.2"
        d="M24 19V34.17C23.9963 34.6542 23.8024 35.1176 23.46 35.46C23.1176 35.8024 22.6542 35.9963 22.17 36H14.53C14.18 34.8525 14.0014 33.6597 14 32.46V20.92C13.9885 20.4228 14.1747 19.9414 14.5178 19.5814C14.8609 19.2214 15.3328 19.0123 15.83 19H24Z"
        fill="black" />
    <path opacity="0.1"
        d="M26 13.83V16.98C25.83 16.99 25.67 17 25.5 17C25.33 17 25.17 16.99 25 16.98C24.6624 16.9576 24.3277 16.904 24 16.82C23.0017 16.5836 22.0735 16.1142 21.2914 15.4503C20.5092 14.7863 19.8954 13.9467 19.5 13C19.362 12.6775 19.2549 12.3427 19.18 12H24.17C24.6548 12.0018 25.1192 12.1952 25.462 12.538C25.8048 12.8808 25.9981 13.3452 26 13.83Z"
        fill="black" />
    <path opacity="0.2"
        d="M25 14.83V16.98C24.6624 16.9576 24.3277 16.904 24 16.82C23.0017 16.5836 22.0735 16.1142 21.2914 15.4503C20.5092 14.7863 19.8954 13.9467 19.5 13H23.17C23.6548 13.0018 24.1192 13.1952 24.462 13.538C24.8048 13.8808 24.9982 14.3452 25 14.83Z"
        fill="black" />
    <path opacity="0.2"
        d="M25 14.83V16.98C24.6624 16.9576 24.3277 16.904 24 16.82C23.0017 16.5836 22.0735 16.1142 21.2914 15.4503C20.5092 14.7863 19.8954 13.9467 19.5 13H23.17C23.6548 13.0018 24.1192 13.1952 24.462 13.538C24.8048 13.8808 24.9982 14.3452 25 14.83Z"
        fill="black" />
    <path opacity="0.2"
        d="M24 14.83V16.82C23.0017 16.5836 22.0735 16.1142 21.2914 15.4503C20.5092 14.7863 19.8954 13.9467 19.5 13H22.17C22.6548 13.0018 23.1192 13.1952 23.462 13.538C23.8048 13.8808 23.9982 14.3452 24 14.83Z"
        fill="black" />
    <path
        d="M22.167 13H3.833C2.82066 13 2 13.8207 2 14.833V33.167C2 34.1793 2.82066 35 3.833 35H22.167C23.1793 35 24 34.1793 24 33.167V14.833C24 13.8207 23.1793 13 22.167 13Z"
        fill="url(#paint0_linear_108_161)" />
    <path d="M17.824 19.978H14.159V29.958H11.824V19.978H8.17599V18.042H17.824V19.978Z" fill="white" />
    <defs>
        <linearGradient id="paint0_linear_108_161" x1="5.822" y1="11.568" x2="20.178" y2="36.432"
            gradientUnits="userSpaceOnUse">
            <stop stop-color="#5A62C3" />
            <stop offset="0.5" stop-color="#4D55BD" />
            <stop offset="1" stop-color="#3940AB" />
        </linearGradient>
    </defs>
</svg>