<svg viewBox="0 0 48 48" fill="none" xmlns="http://www.w3.org/2000/svg">
    <path
        d="M35 44H13.831C13.3454 44 12.8797 43.8071 12.5363 43.4637C12.1929 43.1203 12 42.6546 12 42.169V5.831C12 5.59055 12.0474 5.35245 12.1394 5.13031C12.2314 4.90816 12.3663 4.70631 12.5363 4.53629C12.8797 4.19291 13.3454 4 13.831 4H43.169C43.4094 4 43.6475 4.04736 43.8697 4.13938C44.0918 4.23139 44.2937 4.36626 44.4637 4.53629C44.6337 4.70631 44.7686 4.90816 44.8606 5.13031C44.9526 5.35245 45 5.59055 45 5.831V14L35 44Z"
        fill="#CA64EA" />
    <path d="M45 24L40 27L35 24V14H45V24Z" fill="#AE4BD5" />
    <path d="M45 34L40 37L35 34V24H45V34Z" fill="#9332BF" />
    <path
        d="M35 34H45V42.125C45 42.6223 44.8025 43.0992 44.4508 43.4508C44.0992 43.8025 43.6223 44 43.125 44H35V34Z"
        fill="#7719AA" />
    <path opacity="0.2"
        d="M24.167 12H12V37H24.167C24.6527 36.9984 25.118 36.8048 25.4614 36.4614C25.8048 36.118 25.9984 35.6527 26 35.167V13.833C25.9984 13.3473 25.8048 12.882 25.4614 12.5386C25.118 12.1952 24.6527 12.0016 24.167 12Z"
        fill="black" />
    <path opacity="0.2"
        d="M23.167 13H12V38H23.167C23.6527 37.9984 24.118 37.8048 24.4614 37.4614C24.8048 37.118 24.9984 36.6527 25 36.167V14.833C24.9984 14.3473 24.8048 13.882 24.4614 13.5386C24.118 13.1952 23.6527 13.0016 23.167 13Z"
        fill="black" />
    <path opacity="0.5"
        d="M23.167 13H12V36H23.167C23.6527 35.9984 24.118 35.8048 24.4614 35.4614C24.8048 35.118 24.9984 34.6527 25 34.167V14.833C24.9984 14.3473 24.8048 13.882 24.4614 13.5386C24.118 13.1952 23.6527 13.0016 23.167 13Z"
        fill="black" />
    <path opacity="0.5"
        d="M22.167 13H12V36H22.167C22.6527 35.9984 23.118 35.8048 23.4614 35.4614C23.8048 35.118 23.9984 34.6527 24 34.167V14.833C23.9984 14.3473 23.8048 13.882 23.4614 13.5386C23.118 13.1952 22.6527 13.0016 22.167 13Z"
        fill="black" />
    <path
        d="M22.167 13H3.833C2.82066 13 2 13.8207 2 14.833V33.167C2 34.1793 2.82066 35 3.833 35H22.167C23.1793 35 24 34.1793 24 33.167V14.833C24 13.8207 23.1793 13 22.167 13Z"
        fill="url(#paint0_linear_108_197)" />
    <path
        d="M8.026 18.042H10.511L15.394 25.942C15.616 26.296 15.7827 26.581 15.894 26.797H15.926C15.8656 26.2592 15.8415 25.718 15.854 25.177V18.042H17.974V29.958H15.648L10.582 21.839C10.4104 21.5711 10.2593 21.2906 10.13 21H10.09C10.1411 21.5912 10.1621 22.1846 10.153 22.778V29.958H8.026V18.042Z"
        fill="white" />
    <defs>
        <linearGradient id="paint0_linear_108_197" x1="5.822" y1="11.568" x2="20.178" y2="36.432"
            gradientUnits="userSpaceOnUse">
            <stop stop-color="#8324B3" />
            <stop offset="0.5" stop-color="#7A1BAC" />
            <stop offset="1" stop-color="#621197" />
        </linearGradient>
    </defs>
</svg>