<svg viewBox="0 0 48 48" fill="none" xmlns="http://www.w3.org/2000/svg">
    <path
        d="M43.167 4H13.833C13.3469 4 12.8806 4.19312 12.5369 4.53687C12.1931 4.88063 12 5.34686 12 5.833V14L29 19L45 14V5.833C45 5.34686 44.8069 4.88063 44.4631 4.53687C44.1194 4.19312 43.6531 4 43.167 4Z"
        fill="#41A5EE" />
    <path d="M45 14H12V24L29 27L45 24V14Z" fill="#2B7CD3" />
    <path d="M12 24V34L28 36L45 34V24H12Z" fill="#185ABD" />
    <path
        d="M13.833 44H43.167C43.6531 44 44.1194 43.8069 44.4631 43.4631C44.8069 43.1194 45 42.6531 45 42.167V34H12V42.167C12 42.6531 12.1931 43.1194 12.5369 43.4631C12.8806 43.8069 13.3469 44 13.833 44Z"
        fill="#103F91" />
    <path opacity="0.1"
        d="M24.167 12H12V37H24.167C24.6527 36.9984 25.118 36.8048 25.4614 36.4614C25.8048 36.118 25.9984 35.6527 26 35.167V13.833C25.9984 13.3473 25.8048 12.882 25.4614 12.5386C25.118 12.1952 24.6527 12.0016 24.167 12Z"
        fill="black" />
    <path opacity="0.2"
        d="M23.167 13H12V38H23.167C23.6527 37.9984 24.118 37.8048 24.4614 37.4614C24.8048 37.118 24.9984 36.6527 25 36.167V14.833C24.9984 14.3473 24.8048 13.882 24.4614 13.5386C24.118 13.1952 23.6527 13.0016 23.167 13Z"
        fill="black" />
    <path opacity="0.2"
        d="M23.167 13H12V36H23.167C23.6527 35.9984 24.118 35.8048 24.4614 35.4614C24.8048 35.118 24.9984 34.6527 25 34.167V14.833C24.9984 14.3473 24.8048 13.882 24.4614 13.5386C24.118 13.1952 23.6527 13.0016 23.167 13Z"
        fill="black" />
    <path opacity="0.2"
        d="M22.167 13H12V36H22.167C22.6527 35.9984 23.118 35.8048 23.4614 35.4614C23.8048 35.118 23.9984 34.6527 24 34.167V14.833C23.9984 14.3473 23.8048 13.882 23.4614 13.5386C23.118 13.1952 22.6527 13.0016 22.167 13Z"
        fill="black" />
    <path
        d="M22.167 13H3.833C2.82066 13 2 13.8207 2 14.833V33.167C2 34.1793 2.82066 35 3.833 35H22.167C23.1793 35 24 34.1793 24 33.167V14.833C24 13.8207 23.1793 13 22.167 13Z"
        fill="url(#paint0_linear_116_323)" />
    <path
        d="M9.522 27.0581C9.558 27.3411 9.582 27.5871 9.593 27.7981H9.635C9.651 27.5981 9.68433 27.3571 9.735 27.0751C9.78567 26.7931 9.83133 26.5548 9.872 26.3601L11.8 18.0421H14.293L16.293 26.2351C16.4092 26.7445 16.4924 27.2609 16.542 27.7811H16.575C16.6123 27.2772 16.6818 26.7761 16.783 26.2811L18.378 18.0381H20.647L17.845 29.9581H15.194L13.294 22.0641C13.239 21.8371 13.176 21.5401 13.107 21.1751C13.038 20.8101 12.995 20.5431 12.978 20.3751H12.945C12.923 20.5691 12.88 20.8571 12.816 21.2391C12.752 21.6211 12.7007 21.9038 12.662 22.0871L10.876 29.9561H8.18L5.363 18.0421H7.673L9.41 26.3771C9.449 26.5481 9.486 26.7761 9.522 27.0581Z"
        fill="white" />
    <defs>
        <linearGradient id="paint0_linear_116_323" x1="5.822" y1="11.568" x2="20.178" y2="36.432"
            gradientUnits="userSpaceOnUse">
            <stop stop-color="#2368C4" />
            <stop offset="0.5" stop-color="#1A5DBE" />
            <stop offset="1" stop-color="#1146AC" />
        </linearGradient>
    </defs>
</svg>