<svg viewBox="0 0 151 120" fill="none" xmlns="http://www.w3.org/2000/svg">
    <path
        d="M23.8323 33.6464C25.1221 32.3583 26.6758 31.7143 28.4933 31.7143C30.3107 31.7143 31.8644 32.3583 33.1542 33.6464L64.2857 64.8232L33.1542 96L1.93473 64.8232C0.644909 63.5351 0 61.9836 0 60.1686C0 58.3536 0.644909 56.8021 1.93473 55.5141L23.8323 33.6464Z"
        fill="#185ABD" />
    <path
        d="M148.926 23.947C150.213 25.3019 150.857 26.8925 150.857 28.7187C150.857 30.486 150.213 32.0177 148.926 33.3137L64.7266 118.056C63.4389 119.352 61.9171 120 60.1611 120C58.3466 120 56.7955 119.352 55.5077 118.056L33.6459 96.053C32.3582 94.6981 31.7143 93.137 31.7143 91.3697C31.7143 89.5434 32.3582 87.9823 33.6459 86.6863L60.1611 60L91.2418 28.6303L117.757 1.94404C119.045 0.648012 120.596 0 122.41 0C124.225 0 125.776 0.648012 127.064 1.94404L148.926 23.947Z"
        fill="#41A5EE" />
    <path style="mix-blend-mode:soft-light"
        d="M148.926 23.947C150.213 25.3019 150.857 26.8925 150.857 28.7187C150.857 30.486 150.213 32.0177 148.926 33.3137L64.7266 118.056C63.4389 119.352 61.9171 120 60.1611 120C58.3466 120 56.7955 119.352 55.5077 118.056L33.6459 96.053C32.3582 94.6981 31.7143 93.137 31.7143 91.3697C31.7143 89.5434 32.3582 87.9823 33.6459 86.6863L60.1611 60L91.2418 28.6303L117.757 1.94404C119.045 0.648012 120.596 0 122.41 0C124.225 0 125.776 0.648012 127.064 1.94404L148.926 23.947Z"
        fill="url(#paint0_linear_101_9)" />
    <defs>
        <linearGradient id="paint0_linear_101_9" x1="90.4841" y1="-33.6746" x2="-1.90528"
            y2="61.2267" gradientUnits="userSpaceOnUse">
            <stop stop-color="white" stop-opacity="0.5" />
            <stop offset="1" stop-opacity="0.5" />
        </linearGradient>
    </defs>
</svg>