<svg viewBox="0 0 23 24" fill="none" xmlns="http://www.w3.org/2000/svg">
    <path
        d="M11.5 16.4317C17.5751 16.4317 22.5 14.5513 22.5 12.2317C22.5 9.91214 17.5751 8.03174 11.5 8.03174C5.42487 8.03174 0.5 9.91214 0.5 12.2317C0.5 14.5513 5.42487 16.4317 11.5 16.4317Z"
        stroke="#61DAFB" />
    <path
        d="M7.8627 14.3317C10.9003 19.593 14.9912 22.9178 17 21.758C19.0088 20.5982 18.1749 15.393 15.1373 10.1317C12.0997 4.87053 8.00884 1.54567 6.00001 2.70547C3.99118 3.86527 4.82513 9.07053 7.8627 14.3317Z"
        stroke="#61DAFB" />
    <path
        d="M7.86269 10.1319C4.82512 15.3932 3.99116 20.5984 5.99999 21.7582C8.00882 22.918 12.0997 19.5932 15.1373 14.3319C18.1749 9.07072 19.0088 3.86546 17 2.70566C14.9912 1.54587 10.9003 4.87072 7.86269 10.1319Z"
        stroke="#61DAFB" />
    <path
        d="M10.0034 12.2907C8.94561 12.3244 8.63122 13.08 8.55917 13.4893C8.65305 13.3376 8.94888 13.0047 9.38444 13.0047C9.89204 13.0047 10.2785 13.5712 10.5143 13.7481C10.8007 13.9629 11.3764 14.2466 12.1321 14.0166C12.7346 13.8332 13.0141 13.1935 13.0752 12.89C12.7838 13.2863 12.3416 13.5243 11.7947 13.2437C11.4181 13.0505 11.1365 12.2547 10.0034 12.2907Z"
        fill="#61DAFB" />
    <path
        d="M11.369 10.362C10.3112 10.3956 9.99684 11.1513 9.92479 11.5606C10.0187 11.4089 10.3145 11.076 10.7501 11.076C11.2577 11.076 11.6441 11.6425 11.8799 11.8193C12.1664 12.0342 12.742 12.3179 13.4977 12.0879C14.1002 11.9045 14.3797 11.2648 14.4408 10.9613C14.1494 11.3576 13.7073 11.5956 13.1604 11.315C12.7837 11.1218 12.5021 10.326 11.369 10.362Z"
        fill="#61DAFB" />
</svg>