<svg viewBox="0 0 679 748" fill="none"
    xmlns="http://www.w3.org/2000/svg">
    <path d="M637.704 153.55C643.423 157.104 648.53 161.639 653.814 168.719L654.536 169.7C655.5 171.03 656.471 172.447 657.454 173.959L658.194 175.111C659.183 176.672 660.186 178.331 661.206 180.098L666.85 189.874C667.36 190.757 667.849 191.623 668.317 192.473L669.005 193.736C669.341 194.361 669.666 194.978 669.98 195.586L670.594 196.792C670.894 197.389 671.183 197.979 671.461 198.561L672.004 199.714C676.238 208.865 677.852 216.159 678.09 223.501C678.409 233.291 675.927 242.55 670.757 250.869C670.596 251.129 670.432 251.387 670.266 251.645L669.762 252.414C665.25 259.177 659.11 265.155 648.606 271.731L647.398 272.478C646.784 272.853 646.157 273.229 645.514 273.609L644.209 274.371L409.293 409.999C407.746 410.892 406.793 412.543 406.793 414.329L406.793 685.587C406.793 699.357 405.042 708.475 401.72 716.176L401.345 717.026C400.835 718.152 400.292 719.249 399.714 720.329C395.095 728.966 388.317 735.744 379.68 740.364C378.6 740.941 377.502 741.485 376.376 741.994L375.526 742.369C369.251 745.076 362.036 746.74 352.13 747.263L350.762 747.328C348.915 747.404 346.977 747.443 344.937 747.443H333.649C331.609 747.443 329.671 747.404 327.825 747.328L326.457 747.263C316.1 746.716 308.685 744.923 302.21 741.994L301.371 741.605C301.232 741.54 301.093 741.473 300.955 741.406L300.13 740.999L299.313 740.578C299.177 740.507 299.042 740.436 298.907 740.364C290.27 735.744 283.491 728.966 278.872 720.329C274.83 712.772 272.442 704.336 271.908 691.411L271.858 690.009C271.815 688.589 271.793 687.117 271.793 685.587L271.793 498.045C271.793 495.283 269.554 493.045 266.793 493.045C265.915 493.045 265.053 493.276 264.293 493.715L101.877 587.486C100.111 588.506 98.4131 589.442 96.776 590.299L95.5593 590.927C84.7088 596.45 76.5101 598.458 68.2503 598.726C58.4608 599.045 49.2013 596.563 40.8825 591.393C32.5637 586.223 25.5411 578.979 17.3808 564.845L11.7366 555.069C3.57627 540.935 0.814329 531.231 0.496101 521.442C0.177874 511.652 2.65895 502.393 7.82928 494.074C12.4341 486.665 18.6835 480.284 29.9807 473.212L31.1886 472.465C32.211 471.841 33.2732 471.21 34.3774 470.572L196.799 376.798C199.19 375.417 200.01 372.359 198.629 369.967C198.19 369.207 197.559 368.576 196.799 368.137L34.39 274.371C33.2858 273.733 32.2236 273.102 31.2012 272.478L29.9932 271.731C19.4889 265.155 13.3486 259.177 8.83672 252.414L8.33276 251.645C8.16699 251.387 8.00339 251.129 7.84182 250.869C2.67149 242.55 0.190432 233.291 0.508659 223.501C0.752302 216.006 2.4284 208.561 6.86301 199.14L7.41991 197.976C7.6102 197.585 7.80517 197.19 8.00492 196.792L8.61858 195.586C8.93267 194.978 9.2577 194.361 9.59399 193.736L10.2817 192.473C10.6331 191.836 10.996 191.189 11.3706 190.533L17.3933 180.098C18.4134 178.331 19.4156 176.672 20.4049 175.111L21.1444 173.959C22.1275 172.447 23.0987 171.03 24.0628 169.7L24.7846 168.719C30.0694 161.639 35.1759 157.104 40.8951 153.55C49.2139 148.379 58.4733 145.898 68.2628 146.217C74.3812 146.415 80.4661 147.569 87.62 150.398L88.7013 150.835C91.7883 152.11 95.0784 153.694 98.6563 155.642L99.9311 156.345C100.146 156.465 100.361 156.586 100.578 156.708L101.89 157.457L336.774 293.097C338.322 293.991 340.228 293.991 341.775 293.098L576.709 157.457C577.371 157.075 578.024 156.704 578.668 156.345L579.943 155.642C583.521 153.694 586.811 152.11 589.898 150.835L590.979 150.398C598.133 147.569 604.218 146.415 610.336 146.217C620.126 145.898 629.385 148.379 637.704 153.55Z" fill="#FE7C01"/>
    <path fill-rule="evenodd" clip-rule="evenodd" d="M333.57 0H344.859C361.179 0 370.964 2.45987 379.601 7.07901C388.238 11.6981 395.016 18.4765 399.636 27.1136C404.255 35.7506 406.715 45.5351 406.715 61.8559V325.327C406.715 328.51 406.898 329.65 407.298 330.885C407.698 332.119 408.315 333.189 409.185 334.153C410.054 335.116 410.949 335.845 413.706 337.436L652.489 475.282C677.84 489.915 686.527 522.329 671.893 547.68L671.891 547.68L661.855 565.065C653.649 579.278 646.634 586.508 638.315 591.679C629.997 596.849 620.737 599.331 610.948 599.013C601.158 598.695 591.468 595.941 577.255 587.737L315.763 436.779C298.393 426.751 292.75 422.163 287.275 416.091C281.8 410.019 277.91 403.281 275.388 395.504C272.867 387.726 271.715 380.545 271.715 360.489V61.8559C271.715 45.5351 274.174 35.7506 278.794 27.1136C283.413 18.4765 290.191 11.6981 298.828 7.07901C307.465 2.45987 317.25 0 333.57 0Z" fill="#FFB700"/>
</svg>
