<svg viewBox="0 0 35 37" fill="none" xmlns="http://www.w3.org/2000/svg">
    <path fill-rule="evenodd" clip-rule="evenodd"
        d="M22.265 0.0828093L2.184 1.56181C0.564 1.70181 0 2.75881 0 4.02581V25.9968C0 26.9838 0.352 27.8268 1.198 28.9558L5.918 35.0818C6.694 36.0688 7.398 36.2798 8.878 36.2088L32.198 34.8008C34.171 34.6608 34.735 33.7438 34.735 32.1948V7.47681C34.735 6.67581 34.419 6.44481 33.485 5.76281L33.325 5.64581L26.915 1.13881C25.365 0.0128095 24.731 -0.129191 22.265 0.0828093ZM9.408 7.07081C7.504 7.19981 7.071 7.22881 5.99 6.35081L3.24 4.16781C2.96 3.88481 3.1 3.53281 3.805 3.46281L23.11 2.05481C24.73 1.91381 25.576 2.47781 26.21 2.97081L29.521 5.36481C29.662 5.43481 30.014 5.85681 29.591 5.85681L9.653 7.05481L9.408 7.07081ZM7.187 31.9848V10.9988C7.187 10.0828 7.468 9.66081 8.313 9.58881L31.211 8.25181C31.988 8.18181 32.339 8.67481 32.339 9.58981V30.4338C32.339 31.3498 32.199 32.1248 30.929 32.1948L9.019 33.4628C7.75 33.5328 7.187 33.1108 7.187 31.9828V31.9848ZM28.817 12.1248C28.958 12.7598 28.817 13.3928 28.182 13.4648L27.126 13.6748V29.1668C26.21 29.6598 25.365 29.9418 24.66 29.9418C23.532 29.9418 23.25 29.5898 22.405 28.5338L15.5 17.6888V28.1818L17.685 28.6748C17.685 28.6748 17.685 29.9418 15.922 29.9418L11.062 30.2238C10.92 29.9418 11.062 29.2378 11.554 29.0968L12.823 28.7458V14.8718L11.062 14.7298C10.921 14.0958 11.272 13.1808 12.259 13.1098L17.473 12.7588L24.66 23.7448V14.0248L22.828 13.8148C22.688 13.0388 23.25 12.4758 23.955 12.4058L28.818 12.1228L28.817 12.1248Z"
        fill="currentColor" />
</svg>