<svg viewBox="0 0 18 22" fill="none" xmlns="http://www.w3.org/2000/svg">
    <path
        d="M6.16897 12.844C6.73263 12.6762 7.64081 12.4182 8.68509 12.3543C8.05861 10.7731 7.90738 9.38951 8.02902 8.15756C8.16948 6.73479 8.67121 5.5473 9.16029 4.53687C9.26466 4.32126 9.36498 4.12051 9.46116 3.92792C9.59748 3.65526 9.72551 3.39896 9.84528 3.14006C10.0447 2.70905 10.1927 2.32843 10.2675 1.9748C10.3411 1.62707 10.3415 1.31651 10.2545 1.01862C10.1674 0.720313 9.9823 0.399217 9.6303 0.047262C9.17076 -0.0718122 8.6608 0.0327267 8.2785 0.376639L3.7413 4.45829C3.48823 4.68596 3.32211 4.99447 3.27133 5.33107L2.88013 7.92463C3.49527 8.46838 5.01356 10.0491 5.93702 12.2423C6.01942 12.438 6.09709 12.6387 6.16897 12.844Z"
        fill="currentColor" />
    <path
        d="M2.69664 9.10907C2.67525 9.20033 2.64514 9.28947 2.6067 9.37518L0.208708 14.7199C-0.0375882 15.2688 0.0758714 15.9124 0.495022 16.3441L4.26877 20.2304C6.19588 17.3875 5.91492 14.7129 5.03465 12.6222C4.36721 11.0371 3.3556 9.79635 2.69664 9.10907Z"
        fill="currentColor" />
    <path
        d="M5.14062 20.6883C5.20676 20.6988 5.27381 20.7052 5.34135 20.7072C6.05752 20.7287 7.26196 20.791 8.23874 20.9709C9.03559 21.1178 10.6152 21.5594 11.915 21.9394C12.9069 22.2292 13.929 21.4372 14.073 20.4138C14.1779 19.6675 14.3748 18.8232 14.7376 18.0493L14.7293 18.0522C14.1149 16.3388 13.3332 15.2324 12.5136 14.5258C11.6966 13.8215 10.817 13.4929 9.9676 13.3735C8.55543 13.1748 7.26163 13.546 6.44669 13.7855C6.93479 15.8189 6.78458 18.2114 5.14062 20.6883Z"
        fill="currentColor" />
    <path
        d="M15.3663 16.993C16.1818 15.7623 16.7627 14.8051 17.0693 14.2863C17.2226 14.0267 17.1948 13.7012 17.0131 13.4606C16.54 12.8335 15.6345 11.5592 15.1412 10.3792C14.634 9.16617 14.5583 7.28274 14.554 6.3654C14.5523 6.01669 14.4418 5.67612 14.2261 5.40211L11.2947 1.6781C11.2844 1.84596 11.2602 2.01248 11.2254 2.17747C11.1278 2.63854 10.9438 3.09753 10.7339 3.55116C10.6109 3.81705 10.4687 4.10189 10.325 4.38966C10.2295 4.58119 10.1332 4.77405 10.0415 4.96342C9.56762 5.94255 9.12657 7.00512 9.00337 8.25375C8.88905 9.41107 9.04543 10.7572 9.74996 12.3642C9.86726 12.3741 9.98536 12.3872 10.104 12.404C11.1149 12.5461 12.176 12.9421 13.1529 13.7842C13.9925 14.5081 14.7513 15.5453 15.3663 16.993Z"
        fill="currentColor" />
</svg>