<svg viewBox="0 0 38 38" fill="none"
    xmlns="http://www.w3.org/2000/svg">
    <path d="M18.9481 0.0639648C8.47307 0.0849648 -0.0599296 8.68397 7.03522e-05 19.158C0.0269241 23.8402 1.78324 28.3474 4.93152 31.8134C8.0798 35.2793 12.3979 37.4595 17.0561 37.935C17.1019 37.9396 17.1481 37.9295 17.1878 37.9061C17.2276 37.8827 17.2588 37.8473 17.2771 37.805C17.2893 37.7772 17.2958 37.7473 17.2961 37.717V19.049H15.8201C15.7914 19.0491 15.7629 19.0436 15.7363 19.0327C15.7098 19.0218 15.6856 19.0057 15.6653 18.9855C15.6449 18.9652 15.6288 18.9411 15.6178 18.9146C15.6067 18.8881 15.6011 18.8597 15.6011 18.831V15.885C15.6009 15.8562 15.6065 15.8276 15.6175 15.801C15.6284 15.7744 15.6446 15.7502 15.6649 15.7298C15.6853 15.7095 15.7095 15.6933 15.7361 15.6824C15.7627 15.6714 15.7913 15.6658 15.8201 15.666H20.4501C20.4788 15.666 20.5072 15.6716 20.5337 15.6827C20.5602 15.6937 20.5843 15.7098 20.6046 15.7302C20.6248 15.7505 20.6409 15.7747 20.6518 15.8012C20.6627 15.8278 20.6682 15.8563 20.6681 15.885V37.717C20.6679 37.7475 20.6742 37.7778 20.6865 37.8058C20.6988 37.8338 20.7169 37.8589 20.7395 37.8794C20.7621 37.9 20.7888 37.9156 20.8179 37.9251C20.8469 37.9347 20.8777 37.9381 20.9081 37.935C25.7539 37.4408 30.2243 35.1028 33.3946 31.4048C36.5649 27.7068 38.1924 22.9316 37.9405 18.0672C37.6886 13.2028 35.5766 8.6213 32.0413 5.27051C28.506 1.91972 23.818 0.0560229 18.9471 0.0649649L18.9481 0.0639648ZM24.3431 33.706C24.3101 33.7177 24.2749 33.7213 24.2402 33.7165C24.2056 33.7117 24.1726 33.6987 24.1441 33.6785C24.1156 33.6583 24.0923 33.6315 24.0763 33.6005C24.0603 33.5694 24.052 33.5349 24.0521 33.5V30.384C24.052 30.322 24.0695 30.2612 24.1026 30.2088C24.1357 30.1564 24.183 30.1145 24.2391 30.088C26.7593 28.8885 28.7934 26.863 30.0033 24.3477C31.2132 21.8324 31.5262 18.9789 30.8901 16.2612C30.2541 13.5436 28.7074 11.1253 26.507 9.40814C24.3065 7.69102 21.5849 6.77842 18.7941 6.82196C12.3001 6.92196 6.97107 12.159 6.76407 18.651C6.68866 21.0281 7.30741 23.3757 8.5447 25.4068C9.78198 27.4379 11.5842 29.0646 13.7311 30.088C13.7873 30.1144 13.8348 30.1562 13.8681 30.2086C13.9014 30.2611 13.9191 30.3219 13.9191 30.384V33.5C13.919 33.535 13.9105 33.5694 13.8944 33.6005C13.8783 33.6315 13.8549 33.6583 13.8263 33.6784C13.7977 33.6986 13.7647 33.7116 13.73 33.7164C13.6954 33.7212 13.6601 33.7176 13.6271 33.706C10.6022 32.5957 7.99431 30.5777 6.16052 27.9282C4.32674 25.2786 3.35666 22.1271 3.38307 18.905C3.45707 10.429 10.3831 3.50896 18.8611 3.44696C27.5231 3.37696 34.5871 10.403 34.5871 19.049C34.5871 25.772 30.3171 31.515 24.3431 33.706Z" fill="currentColor"/>
</svg>
