<svg viewBox="0 0 316 321" fill="none"
    xmlns="http://www.w3.org/2000/svg">
    <path d="M295.06 131.97C302.32 110.18 299.82 86.31 288.21 66.49C270.75 36.09 235.65 20.45 201.37 27.81C186.12 10.63 164.21 0.860019 141.24 1.00002C106.2 0.920019 75.11 23.48 64.33 56.82C41.82 61.43 22.39 75.52 11.02 95.49C-6.57004 125.81 -2.56004 164.03 20.94 190.03C13.68 211.82 16.18 235.69 27.79 255.51C45.25 285.91 80.35 301.55 114.63 294.19C129.87 311.37 151.79 321.14 174.76 320.99C209.82 321.08 240.92 298.5 251.7 265.13C274.21 260.52 293.64 246.43 305.01 226.46C322.58 196.14 318.56 157.95 295.07 131.95L295.06 131.97ZM174.78 300.08C160.75 300.1 147.16 295.19 136.39 286.2C136.88 285.94 137.73 285.47 138.28 285.13L202 248.33C205.26 246.48 207.26 243.01 207.24 239.26V149.43L234.17 164.98C234.46 165.12 234.65 165.4 234.69 165.72V240.11C234.65 273.19 207.86 300.01 174.78 300.08ZM45.94 245.05C38.91 232.91 36.38 218.68 38.79 204.87C39.26 205.15 40.09 205.66 40.68 206L104.4 242.8C107.63 244.69 111.63 244.69 114.87 242.8L192.66 197.88V228.98C192.68 229.3 192.53 229.61 192.28 229.81L127.87 267C99.18 283.52 62.54 273.7 45.95 245.05H45.94ZM29.17 105.96C36.17 93.8 47.22 84.5 60.38 79.67C60.38 80.22 60.35 81.19 60.35 81.87V155.48C60.33 159.22 62.33 162.69 65.58 164.54L143.37 209.45L116.44 225C116.17 225.18 115.83 225.21 115.53 225.08L51.11 187.86C22.48 171.28 12.66 134.65 29.16 105.97L29.17 105.96ZM250.43 157.45L172.64 112.53L199.57 96.99C199.84 96.81 200.18 96.78 200.48 96.91L264.9 134.1C293.58 150.67 303.41 187.36 286.84 216.04C279.83 228.18 268.79 237.48 255.64 242.32V166.51C255.67 162.77 253.68 159.31 250.44 157.45H250.43ZM277.23 117.11C276.76 116.82 275.93 116.32 275.34 115.98L211.62 79.18C208.39 77.29 204.39 77.29 201.15 79.18L123.36 124.1V93C123.34 92.68 123.49 92.37 123.74 92.17L188.15 55.01C216.84 38.46 253.52 48.31 270.06 77.01C277.05 89.13 279.58 103.32 277.21 117.11H277.23ZM108.72 172.54L81.78 156.99C81.49 156.85 81.3 156.57 81.26 156.25V81.86C81.28 48.74 108.15 21.9 141.27 21.92C155.28 21.92 168.84 26.84 179.61 35.8C179.12 36.06 178.28 36.53 177.72 36.87L114 73.67C110.74 75.52 108.74 78.98 108.76 82.73L108.72 172.52V172.54ZM123.35 141L158 120.99L192.65 140.99V181L158 201L123.35 181V141Z" fill="currentColor"/>
</svg>
