<svg viewBox="0 0 721 406" fill="none"
    xmlns="http://www.w3.org/2000/svg">
    <mask id="mask0_225_156" style="mask-type:luminance" maskUnits="userSpaceOnUse" x="15" y="21" width="692" height="364">
        <path d="M15 202.799C15 303.203 169.734 384.598 360.6 384.598C551.466 384.598 706.201 303.203 706.201 202.799C706.201 102.396 551.466 21.0002 360.6 21.0002C169.734 21.0002 15 102.396 15 202.799Z" fill="white"/>
    </mask>
    <g mask="url(#mask0_225_156)">
        <path d="M15 202.799C15 303.203 169.734 384.598 360.6 384.598C551.466 384.598 706.201 303.203 706.201 202.799C706.201 102.396 551.466 21.0002 360.6 21.0002C169.734 21.0002 15 102.396 15 202.799Z" fill="url(#paint0_radial_225_156)"/>
    </g>
    <mask id="mask1_225_156" style="mask-type:luminance" maskUnits="userSpaceOnUse" x="0" y="0" width="721" height="406">
        <path d="M0.599976 0.298828H720.6V405.299H0.599976V0.298828Z" fill="white"/>
    </mask>
    <g mask="url(#mask1_225_156)">
        <path d="M360.6 371.1C544.011 371.1 692.7 295.748 692.7 202.798C692.7 109.85 544.011 34.4971 360.6 34.4971C177.189 34.4971 28.5 109.85 28.5 202.798C28.5 295.748 177.189 371.1 360.6 371.1Z" fill="#777BB3"/>
    </g>
    <mask id="mask2_225_156" style="mask-type:luminance" maskUnits="userSpaceOnUse" x="0" y="0" width="721" height="406">
        <path d="M0.599976 0.298828H720.6V405.299H0.599976V0.298828Z" fill="white"/>
    </mask>
    <g mask="url(#mask2_225_156)">
        <path d="M202.768 223.666C217.849 223.666 229.108 220.885 236.232 215.402C243.279 209.976 248.147 200.575 250.698 187.461C253.077 175.204 252.17 166.645 248.005 162.026C243.747 157.309 234.539 154.916 220.639 154.916H196.538L183.177 223.666H202.768ZM123.939 308.354C122.82 308.354 121.758 307.854 121.047 306.989C120.334 306.125 120.045 304.987 120.259 303.889L155.669 121.7C156.012 119.939 157.555 118.666 159.35 118.666H235.668C259.653 118.666 277.505 125.179 288.727 138.025C300.008 150.939 303.492 168.99 299.08 191.676C297.285 200.919 294.198 209.502 289.904 217.187C285.605 224.881 279.924 232 273.015 238.35C264.745 246.09 255.385 251.702 245.22 255.005C235.217 258.264 222.369 259.916 207.035 259.916H176.133L167.308 305.319C166.965 307.081 165.423 308.354 163.628 308.354H123.939Z" fill="black"/>
        <path d="M199.629 158.665H220.639C237.416 158.665 243.243 162.346 245.223 164.54C248.508 168.183 249.128 175.863 247.017 186.749C244.644 198.936 240.247 207.578 233.944 212.43C227.492 217.398 217.002 219.915 202.768 219.915H187.726L199.629 158.665ZM235.668 114.915H159.349C155.759 114.915 152.673 117.46 151.988 120.984L116.578 303.173C116.151 305.371 116.728 307.645 118.152 309.374C119.577 311.103 121.699 312.103 123.939 312.103H163.627C167.218 312.103 170.304 309.558 170.989 306.034L179.224 263.665H207.036C222.763 263.665 236.003 261.95 246.384 258.569C257.061 255.1 266.883 249.219 275.577 241.089C282.767 234.474 288.689 227.049 293.177 219.018C297.666 210.984 300.891 202.025 302.762 192.39C307.406 168.51 303.633 149.388 291.551 135.558C279.586 121.86 260.783 114.915 235.668 114.915ZM178.627 227.415H202.768C218.769 227.415 230.688 224.401 238.519 218.373C246.352 212.343 251.634 202.279 254.379 188.176C257.006 174.636 255.809 165.081 250.791 159.515C245.766 153.949 235.717 151.165 220.639 151.165H193.447L178.627 227.415ZM235.668 122.415C258.627 122.415 275.376 128.44 285.903 140.491C296.429 152.543 299.599 169.364 295.399 190.96C293.671 199.856 290.747 207.99 286.631 215.359C282.509 222.733 277.128 229.475 270.478 235.589C262.553 243.005 253.749 248.29 244.062 251.438C234.374 254.594 222.036 256.165 207.036 256.165H173.041L163.627 304.603H123.939L159.349 122.415H235.668Z" fill="white"/>
        <path d="M390.079 259.916C388.959 259.916 387.897 259.416 387.186 258.551C386.472 257.687 386.184 256.551 386.397 255.451L402.061 174.84C403.551 167.174 403.184 161.671 401.027 159.346C399.707 157.925 395.742 155.541 384.019 155.541H355.641L335.947 256.881C335.605 258.644 334.061 259.916 332.266 259.916H292.891C291.771 259.916 290.71 259.416 289.997 258.551C289.285 257.687 288.996 256.55 289.21 255.451L324.62 73.2623C324.962 71.501 326.506 70.2285 328.301 70.2285H367.676C368.796 70.2285 369.857 70.7285 370.57 71.5923C371.282 72.4573 371.571 73.5935 371.357 74.6935L362.812 118.666H393.34C416.596 118.666 432.366 122.766 441.551 131.201C450.914 139.806 453.835 153.565 450.235 172.1L433.76 256.881C433.417 258.644 431.875 259.916 430.079 259.916H390.079Z" fill="black"/>
        <path d="M367.676 66.4775H328.301C324.71 66.4775 321.624 69.0225 320.939 72.5463L285.529 254.735C285.101 256.934 285.679 259.208 287.104 260.936C288.529 262.665 290.651 263.665 292.891 263.665H332.266C335.856 263.665 338.944 261.12 339.629 257.596L358.733 159.29H384.019C395.723 159.29 398.179 161.79 398.278 161.898C398.988 162.661 399.921 166.199 398.38 174.124L382.716 254.735C382.289 256.934 382.866 259.208 384.291 260.936C385.716 262.665 387.839 263.665 390.079 263.665H430.079C433.669 263.665 436.756 261.12 437.441 257.596L453.915 172.815C457.781 152.914 454.474 137.985 444.089 128.44C434.179 119.339 417.579 114.915 393.34 114.915H367.36L375.039 75.4088C375.465 73.21 374.889 70.935 373.464 69.2075C372.039 67.4788 369.916 66.4775 367.676 66.4775ZM367.676 73.9775L358.263 122.415H393.34C415.411 122.415 430.635 126.268 439.014 133.963C447.393 141.663 449.903 154.139 446.554 171.385L430.079 256.165H390.079L405.743 175.555C407.525 166.385 406.87 160.13 403.775 156.795C400.679 153.46 394.093 151.79 384.019 151.79H352.549L332.266 256.165H292.891L328.301 73.9775H367.676Z" fill="white"/>
        <path d="M512.537 223.666C527.618 223.666 538.877 220.885 546.001 215.402C553.048 209.977 557.916 200.576 560.468 187.461C562.847 175.204 561.941 166.645 557.775 162.026C553.516 157.309 544.308 154.916 530.408 154.916H506.307L492.946 223.666H512.537ZM433.71 308.354C432.591 308.354 431.528 307.854 430.817 306.989C430.105 306.125 429.815 304.987 430.028 303.889L465.438 121.7C465.782 119.939 467.325 118.666 469.121 118.666H545.437C569.423 118.666 587.275 125.179 598.497 138.025C609.778 150.937 613.261 168.989 608.851 191.676C607.053 200.919 603.967 209.502 599.673 217.187C595.375 224.881 589.693 232 582.785 238.35C574.515 246.09 565.155 251.702 554.99 255.005C544.986 258.264 532.138 259.916 516.805 259.916H485.901L477.08 305.319C476.736 307.081 475.193 308.354 473.397 308.354H433.71Z" fill="black"/>
        <path d="M509.399 158.665H530.409C547.185 158.665 553.013 162.346 554.993 164.54C558.279 168.183 558.899 175.863 556.786 186.748C554.414 198.936 550.015 207.578 543.714 212.43C537.261 217.398 526.771 219.915 512.538 219.915H497.496L509.399 158.665ZM545.438 114.915H469.12C465.53 114.915 462.444 117.46 461.759 120.984L426.349 303.173C425.921 305.371 426.499 307.645 427.923 309.374C429.348 311.103 431.47 312.103 433.71 312.103H473.398C476.988 312.103 480.075 309.558 480.76 306.034L488.994 263.665H516.805C532.533 263.665 545.773 261.95 556.154 258.569C566.83 255.1 576.655 249.218 585.349 241.086C592.539 234.473 598.459 227.049 602.946 219.018C607.435 210.984 610.66 202.025 612.531 192.39C617.175 168.509 613.403 149.386 601.32 135.556C589.355 121.86 570.554 114.915 545.438 114.915ZM488.398 227.415H512.538C528.539 227.415 540.458 224.401 548.289 218.373C556.123 212.343 561.404 202.279 564.149 188.176C566.776 174.636 565.58 165.081 560.56 159.515C555.535 153.949 545.486 151.165 530.409 151.165H503.216L488.398 227.415ZM545.438 122.415C568.396 122.415 585.145 128.44 595.673 140.491C606.2 152.543 609.369 169.364 605.169 190.96C603.44 199.856 600.516 207.99 596.4 215.359C592.279 222.733 586.898 229.475 580.248 235.589C572.323 243.005 563.519 248.29 553.831 251.438C544.144 254.594 531.805 256.165 516.805 256.165H482.81L473.398 304.603H433.71L469.12 122.415H545.438Z" fill="white"/>
    </g>
    <defs>
        <radialGradient id="paint0_radial_225_156" cx="0" cy="0" r="1" gradientUnits="userSpaceOnUse" gradientTransform="translate(222.5 84.915) scale(453.822 453.822)">
            <stop stop-color="#AEB2D5"/>
            <stop offset="0.3" stop-color="#AEB2D5"/>
            <stop offset="0.75" stop-color="#484C89"/>
            <stop offset="1" stop-color="#484C89"/>
        </radialGradient>
    </defs>
</svg>
