<svg viewBox="0 0 498 631" fill="none" xmlns="http://www.w3.org/2000/svg">
    <path
        d="M0.192999 466.389V630.263H115.08V473.48C115.078 458.23 121.129 443.604 131.904 432.812C137.235 427.473 143.567 423.236 150.537 420.346C157.506 417.455 164.978 415.967 172.523 415.966H290.321C345.274 415.95 397.971 394.082 436.825 355.173C475.678 316.263 497.506 263.497 497.511 208.477C497.511 153.449 475.679 100.674 436.819 61.76C397.958 22.846 345.251 0.980046 290.29 0.972046H0.192999V205.814H115.08V109.239H282.547C295.425 109.24 308.176 111.78 320.072 116.712C331.968 121.645 342.775 128.873 351.876 137.985C370.27 156.4 380.604 181.362 380.609 207.39C380.612 233.423 370.282 258.393 351.888 276.815C342.787 285.93 331.978 293.161 320.08 298.096C308.182 303.03 295.428 305.571 282.547 305.572H160.798C139.701 305.562 118.81 309.715 99.321 317.793C79.8264 325.874 62.1166 337.72 47.205 352.652C32.2864 367.592 20.4572 385.324 12.393 404.836C4.32586 424.354 0.180366 445.27 0.192999 466.389Z"
        fill="url(#paint0_radial_112_243)" />
    <path
        d="M172.491 415.966C149.86 415.971 127.452 420.436 106.548 429.107C85.6435 437.777 66.6534 450.483 50.663 466.498C18.35 498.848 0.197001 542.724 0.193001 588.475V630.263H115.08V473.48C115.078 458.236 121.125 443.614 131.893 432.823C137.221 427.484 143.549 423.247 150.515 420.355C157.481 417.463 164.948 415.971 172.491 415.966Z"
        fill="url(#paint1_linear_112_243)" />
    <defs>
        <radialGradient id="paint0_radial_112_243" cx="0" cy="0" r="1"
            gradientUnits="userSpaceOnUse"
            gradientTransform="translate(499.32 -86.4009) scale(632.616 633.388)">
            <stop stop-color="#A995FF" />
            <stop offset="1" stop-color="#6652F5" />
        </radialGradient>
        <linearGradient id="paint1_linear_112_243" x1="86.342" y1="599.269" x2="86.342" y2="358.469"
            gradientUnits="userSpaceOnUse">
            <stop stop-color="#6D4BFD" />
            <stop offset="1" stop-color="#1C0554" />
        </linearGradient>
    </defs>
</svg>