<svg viewBox="0 0 34 31" fill="none" xmlns="http://www.w3.org/2000/svg">
    <path fill-rule="evenodd" clip-rule="evenodd"
        d="M13.509 29.0071C14.7601 31.2739 17.973 31.3967 19.3934 29.2319L32.6379 9.04696C34.0424 6.90642 32.6986 4.03654 30.1552 3.74487L4.12271 0.759545C1.34726 0.441265 -0.628871 3.39083 0.721079 5.83678L13.509 29.0071Z"
        fill="url(#paint0_linear_123_45)" />
    <path fill-rule="evenodd" clip-rule="evenodd"
        d="M13.509 29.0071C14.7601 31.2739 17.973 31.3967 19.3934 29.2319L32.6379 9.04696C34.0424 6.90642 32.6986 4.03654 30.1552 3.74487L4.12271 0.759545C1.34726 0.441265 -0.628871 3.39083 0.721079 5.83678L13.509 29.0071Z"
        fill="url(#paint1_linear_123_45)" />
    <path
        d="M15.4303 25.1259L14.2549 26.8929C13.7786 27.6088 12.7129 27.5647 12.2974 26.8119L13.509 29.0072C13.7251 29.3986 13.9996 29.7261 14.3133 29.989C15.8162 31.2481 18.2183 31.0227 19.3934 29.2317L32.6379 9.04686C34.0425 6.90628 32.6986 4.03645 30.1552 3.74481L4.12271 0.759415C1.34726 0.441187 -0.628871 3.39076 0.721079 5.8367L0.823829 6.02286L22.9819 8.58679C24.3943 8.75022 25.1394 10.3445 24.3588 11.5329L15.4303 25.1259Z"
        fill="url(#paint2_linear_123_45)" />
    <defs>
        <linearGradient id="paint0_linear_123_45" x1="18.3732" y1="-17.4756" x2="19.4935"
            y2="20.6088" gradientUnits="userSpaceOnUse">
            <stop offset="0.988738" stop-color="#6D4AFF" />
        </linearGradient>
        <linearGradient id="paint1_linear_123_45" x1="18.5922" y1="-12.2033" x2="9.2832"
            y2="27.8742" gradientUnits="userSpaceOnUse">
            <stop offset="0.47989" stop-color="#24ECC6" stop-opacity="0" />
            <stop offset="0.994421" stop-color="#24ECC6" />
        </linearGradient>
        <linearGradient id="paint2_linear_123_45" x1="21.6709" y1="32.2654" x2="1.03146"
            y2="-3.02805" gradientUnits="userSpaceOnUse">
            <stop offset="0.0660125" stop-color="#ABFFEF" />
            <stop offset="0.44988" stop-color="#CAC9FF" />
            <stop offset="1" stop-color="#6D4AFF" />
        </linearGradient>
    </defs>
</svg>