<svg viewBox="0 0 21 23" fill="none" xmlns="http://www.w3.org/2000/svg">
    <path
        d="M10.5 13.45C11.6046 13.45 12.5 12.5546 12.5 11.45C12.5 10.3454 11.6046 9.45001 10.5 9.45001C9.39543 9.45001 8.5 10.3454 8.5 11.45C8.5 12.5546 9.39543 13.45 10.5 13.45Z"
        fill="currentColor" />
    <path
        d="M10.5 15.95C16.0228 15.95 20.5 13.9353 20.5 11.45C20.5 8.96473 16.0228 6.95001 10.5 6.95001C4.97715 6.95001 0.5 8.96473 0.5 11.45C0.5 13.9353 4.97715 15.95 10.5 15.95Z"
        stroke="currentColor" />
    <path
        d="M6.60287 13.7C9.36429 18.4829 13.3477 21.3529 15.5 20.1102C17.6523 18.8676 17.1585 13.9829 14.3971 9.19999C11.6357 4.41706 7.6523 1.54709 5.49998 2.78973C3.34766 4.03237 3.84144 8.91706 6.60287 13.7Z"
        stroke="currentColor" />
    <path
        d="M6.60287 9.19999C3.84144 13.9829 3.34766 18.8676 5.49998 20.1102C7.6523 21.3529 11.6357 18.4829 14.3971 13.7C17.1585 8.91706 17.6523 4.03237 15.5 2.78973C13.3477 1.54709 9.36429 4.41706 6.60287 9.19999Z"
        stroke="currentColor" />
</svg>