<svg viewBox="0 0 34 27" fill="none" xmlns="http://www.w3.org/2000/svg">
    <path fill-rule="evenodd" clip-rule="evenodd"
        d="M17.8851 14.9572C17.4749 14.4177 17.2699 14.1479 17.0192 14.0512C16.7997 13.9665 16.5564 13.9665 16.3368 14.0512C16.0862 14.1479 15.8811 14.4177 15.471 14.9572L8.52119 24.0997C7.92639 24.8822 7.62899 25.2734 7.63432 25.6012C7.63895 25.8865 7.77187 26.1545 7.99616 26.3308C8.25393 26.5334 8.74536 26.5334 9.72823 26.5334H23.6278C24.6107 26.5334 25.1021 26.5334 25.3599 26.3308C25.5842 26.1545 25.7171 25.8865 25.7218 25.6012C25.7271 25.2734 25.4297 24.8822 24.8349 24.0997L17.8851 14.9572ZM13.3425 1.5162C13.3425 0.985479 13.3425 0.720119 13.4458 0.517412C13.5367 0.339105 13.6817 0.194137 13.86 0.103285C14.0627 0 14.328 0 14.8587 0H18.4976C19.0283 0 19.2937 0 19.4964 0.103285C19.6747 0.194137 19.8197 0.339105 19.9105 0.517412C20.0138 0.720119 20.0138 0.985478 20.0138 1.5162V8.50986L25.0478 3.5432C25.421 3.17496 25.6077 2.99085 25.8223 2.92175C26.0111 2.86096 26.2143 2.86096 26.4031 2.92175C26.6177 2.99085 26.8043 3.17496 27.1776 3.5432L29.7361 6.06747C30.1185 6.44476 30.3097 6.63341 30.3812 6.85152C30.4441 7.04333 30.4441 7.25022 30.3812 7.44203C30.3097 7.66014 30.1185 7.84879 29.7361 8.22608L24.7311 13.1641H31.8402C32.3709 13.1641 32.6362 13.1641 32.839 13.2674C33.0173 13.3582 33.1622 13.5032 33.2531 13.6815C33.3564 13.8842 33.3564 14.1496 33.3564 14.6803V18.2299C33.3564 18.7606 33.3564 19.026 33.2531 19.2287C33.1622 19.407 33.0173 19.552 32.839 19.6428C32.6362 19.7461 32.3709 19.7461 31.8402 19.7461H1.5162C0.985479 19.7461 0.72012 19.7461 0.517412 19.6428C0.339105 19.552 0.194137 19.407 0.103285 19.2287C0 19.026 0 18.7606 0 18.2299V14.6803C0 14.1496 0 13.8842 0.103285 13.6815C0.194137 13.5032 0.339105 13.3582 0.517412 13.2674C0.72012 13.1641 0.985479 13.1641 1.5162 13.1641H8.62514L3.62022 8.22618C3.2378 7.84889 3.04659 7.66024 2.97507 7.44213C2.91218 7.25032 2.91217 7.04343 2.97507 6.85162C3.04659 6.63351 3.23779 6.44486 3.62021 6.06756L6.1787 3.54329C6.55193 3.17506 6.73854 2.99094 6.95317 2.92184C7.142 2.86105 7.34514 2.86105 7.53397 2.92184C7.7486 2.99094 7.93521 3.17505 8.30844 3.54328L13.3425 8.50997V1.5162Z"
        fill="#506CF7" />
</svg>