<svg viewBox="0 0 52 33" fill="none" xmlns="http://www.w3.org/2000/svg">
    <path
        d="M51.4172 13.2997L51.4506 13.3326C51.4506 13.3326 51.0663 13.6038 50.6595 13.9428C37.8218 4.45013 29.979 8.92526 27.5154 10.1231C16.3276 16.366 19.5607 31.691 19.6264 31.9969L19.6274 32.0016H1.77213C1.77213 32.0016 2.45015 25.3115 7.1965 17.4009C11.9429 9.4903 20.0343 3.50086 26.6114 2.91321C39.293 1.64286 50.7223 12.6195 51.4172 13.2997ZM20.3055 27.4812L22.7465 28.3627C22.8595 29.2479 23.0196 30.0861 23.1875 30.851L23.2889 31.3009L20.5767 30.329C20.4637 29.651 20.3507 28.6791 20.3055 27.4812ZM1.32007 20.1583L3.91928 21.1076C3.60286 21.8393 3.19992 22.7787 2.90729 23.5169L2.78918 23.8198L0.190002 22.8705C0.416019 22.2602 0.890637 21.1302 1.32007 20.1583ZM21.3226 19.2542L22.9499 20.5425C22.7691 21.2477 22.6317 21.9529 22.5376 22.658L22.4753 23.1869L20.6445 21.7404C20.8253 20.9267 21.0287 20.0905 21.3226 19.2542ZM25.3231 12.9484L26.3401 14.4853C25.9423 14.9011 25.5735 15.317 25.2451 15.756L25.0066 16.09L23.9218 14.4627C24.3286 13.9428 24.8032 13.423 25.3231 12.9484ZM9.14026 9.60331L10.745 11.0046C10.3381 11.4284 9.94404 11.8776 9.57217 12.3332L9.20807 12.7901L7.46774 11.2984C7.98758 10.7334 8.55262 10.1683 9.14026 9.60331ZM31.5385 9.5129L32.0357 11.0046C31.5114 11.1673 30.987 11.3735 30.4627 11.6114L30.0694 11.7957L29.5496 10.2362C30.1146 9.98754 30.7701 9.73892 31.5385 9.5129ZM36.8273 8.97046C37.4059 9.00662 37.999 9.07172 38.6065 9.17731L39.0649 9.26428L38.9745 10.6656C38.3778 10.539 37.7811 10.4558 37.1844 10.4161L36.7369 10.3944L36.8273 8.97046ZM18.2713 2.7324L19.2884 4.29192C18.8477 4.51228 18.4197 4.75808 17.9853 5.01976L17.5481 5.28639L16.5084 3.70427C17.1186 3.34265 17.7063 3.02622 18.2713 2.7324ZM36.8725 1.87354C38.2173 2.25777 38.796 2.52103 39.0275 2.6443L39.0649 2.6646L38.9745 4.17891C38.4923 3.98303 38.0101 3.79719 37.5213 3.6214L36.7821 3.36525L36.8725 1.87354ZM28.2387 0.540039L28.6907 1.91874H28.4647C27.9731 1.91874 27.4815 1.93145 26.9899 1.96642L26.4984 2.00915L26.0689 0.675649C26.8148 0.585242 27.538 0.540039 28.2387 0.540039Z"
        fill="currentColor" />
</svg>