<svg viewBox="0 0 106 106" fill="none"
    xmlns="http://www.w3.org/2000/svg">
    <path d="M53.05 5.67969C26.99 5.67969 5.78003 26.8997 5.78003 52.9497C5.78003 78.9997 27 100.22 53.05 100.22C79.1 100.22 100.32 78.9997 100.32 52.9497C100.32 26.8997 79.1 5.67969 53.05 5.67969ZM52.98 9.87969C53.7883 9.90062 54.5564 10.2375 55.1205 10.8185C55.6847 11.3995 56.0003 12.1786 56 12.9897C56 13.8145 55.6724 14.6056 55.0891 15.1888C54.5059 15.772 53.7149 16.0997 52.89 16.0997C52.0652 16.0997 51.2742 15.772 50.6909 15.1888C50.1077 14.6056 49.78 13.8145 49.78 12.9897C49.7799 12.5736 49.8632 12.1617 50.0251 11.7784C50.187 11.3951 50.4241 11.0481 50.7225 10.7581C51.0209 10.4681 51.3745 10.241 51.7622 10.0901C52.15 9.93919 52.5641 9.86764 52.98 9.87969ZM60.1 14.9997C65.5597 16.0223 70.7313 18.2211 75.2557 21.4434C79.78 24.6658 83.5487 28.8344 86.3 33.6597L82.63 41.9397C82 43.3697 82.65 45.0497 84.07 45.6897L91.13 48.8197C91.349 51.0265 91.3758 53.2482 91.21 55.4597H87.28C86.89 55.4597 86.73 55.7197 86.73 56.0997V57.8997C86.73 62.1397 84.34 63.0697 82.24 63.2997C80.24 63.5297 78.03 62.4597 77.75 61.2397C76.57 54.6097 74.61 53.1997 71.51 50.7497C75.36 48.3097 79.36 44.6997 79.36 39.8797C79.36 34.6697 75.79 31.3897 73.36 29.7797C69.94 27.5297 66.16 27.0797 65.14 27.0797H24.54C30.154 20.8081 37.6791 16.5623 45.95 14.9997L50.74 20.0197C51.82 21.1497 53.61 21.1997 54.74 20.1097L60.1 14.9997ZM15.9 38.0197C16.7092 38.0431 17.4773 38.3811 18.0412 38.9618C18.6051 39.5425 18.9204 40.3202 18.92 41.1297C18.92 41.9545 18.5924 42.7456 18.0091 43.3288C17.4259 43.912 16.6349 44.2397 15.81 44.2397C14.9852 44.2397 14.1942 43.912 13.6109 43.3288C13.0277 42.7456 12.7 41.9545 12.7 41.1297C12.6999 40.7136 12.7832 40.3017 12.9451 39.9184C13.107 39.5351 13.3441 39.1881 13.6425 38.8981C13.9409 38.6081 14.2945 38.381 14.6822 38.2301C15.07 38.0792 15.4841 38.0076 15.9 38.0197ZM90.05 38.1597C90.8592 38.1831 91.6273 38.5211 92.1912 39.1018C92.7551 39.6825 93.0704 40.4602 93.07 41.2697C93.07 42.0945 92.7424 42.8856 92.1591 43.4688C91.5759 44.052 90.7849 44.3797 89.96 44.3797C89.1352 44.3797 88.3442 44.052 87.7609 43.4688C87.1777 42.8856 86.85 42.0945 86.85 41.2697C86.8499 40.8536 86.9332 40.4417 87.0951 40.0584C87.257 39.6751 87.4941 39.3281 87.7925 39.0381C88.0909 38.7481 88.4445 38.521 88.8322 38.3701C89.22 38.2192 89.6341 38.1476 90.05 38.1597ZM21.76 38.6597H27.18V63.0997H16.24C14.8889 58.3551 14.4678 53.3941 15 48.4897L21.7 45.5097C23.13 44.8697 23.78 43.1997 23.14 41.7697L21.76 38.6597ZM44.38 38.9197H57.29C57.96 38.9197 62 39.6897 62 42.7197C62 45.2297 58.9 46.1297 56.35 46.1297H44.37L44.38 38.9197ZM44.38 56.4797H54.27C55.17 56.4797 59.1 56.7397 60.35 61.7597C60.74 63.2997 61.61 68.3197 62.2 69.9297C62.79 71.7297 65.18 75.3297 67.73 75.3297H83.87C82.7884 76.7783 81.6054 78.1484 80.33 79.4297L73.76 78.0197C72.23 77.6897 70.72 78.6697 70.39 80.1997L68.83 87.4797C63.8136 89.7521 58.3658 90.9151 52.8587 90.8892C47.3515 90.8633 41.9149 89.6492 36.92 87.3297L35.36 80.0497C35.03 78.5197 33.53 77.5397 32 77.8697L25.57 79.2497C24.3768 78.0189 23.2677 76.7092 22.25 75.3297H53.52C53.87 75.3297 54.11 75.2697 54.11 74.9397V63.8797C54.11 63.5597 53.87 63.4897 53.52 63.4897H44.37L44.38 56.4797ZM29.95 81.8097C30.7592 81.8331 31.5273 82.1711 32.0912 82.7518C32.6551 83.3325 32.9704 84.1102 32.97 84.9197C32.97 85.7445 32.6424 86.5356 32.0591 87.1188C31.4759 87.702 30.6849 88.0297 29.86 88.0297C29.0352 88.0297 28.2442 87.702 27.6609 87.1188C27.0777 86.5356 26.75 85.7445 26.75 84.9197C26.7499 84.5036 26.8332 84.0917 26.9951 83.7084C27.157 83.3251 27.3941 82.9781 27.6925 82.6881C27.9909 82.3981 28.3445 82.171 28.7322 82.0201C29.12 81.8692 29.5341 81.7976 29.95 81.8097ZM76 81.9497C76.8092 81.9731 77.5773 82.3111 78.1412 82.8918C78.7051 83.4725 79.0204 84.2502 79.02 85.0597C79.02 85.8845 78.6924 86.6756 78.1091 87.2588C77.5259 87.842 76.7349 88.1697 75.91 88.1697C75.0852 88.1697 74.2942 87.842 73.7109 87.2588C73.1277 86.6756 72.8 85.8845 72.8 85.0597C72.7999 84.6436 72.8832 84.2317 73.0451 83.8484C73.207 83.4651 73.4441 83.1181 73.7425 82.8281C74.0409 82.5381 74.3945 82.311 74.7822 82.1601C75.17 82.0092 75.5841 81.9376 76 81.9497Z" fill="black"/>
    <path fill-rule="evenodd" clip-rule="evenodd" d="M97.6801 52.9502C97.6801 64.7868 92.978 76.1386 84.6082 84.5084C76.2385 92.8781 64.8867 97.5802 53.0501 97.5802C41.2134 97.5802 29.8616 92.8781 21.4919 84.5084C13.1221 76.1386 8.42005 64.7868 8.42005 52.9502C8.42005 41.1136 13.1221 29.7618 21.4919 21.392C29.8616 13.0223 41.2134 8.32019 53.0501 8.32019C64.8867 8.32019 76.2385 13.0223 84.6082 21.392C92.978 29.7618 97.6801 41.1136 97.6801 52.9502ZM96.84 48.6402L103.8 52.9502L96.84 57.2602L102.82 62.8502L95.16 65.7202L99.94 72.3702L91.8501 73.6902L95.25 81.1502L87.06 80.8602L88.94 88.8402L80.9601 86.9602L81.25 95.1502L73.7901 91.7502L72.47 99.8402L65.82 95.0602L62.95 102.72L57.3601 96.7402L53.0501 103.7L48.74 96.7402L43.1501 102.72L40.28 95.0602L33.6301 99.8402L32.3101 91.7502L24.85 95.1502L25.14 86.9602L17.16 88.8402L19.0401 80.8602L10.85 81.1502L14.25 73.6902L6.16005 72.3702L10.9401 65.7202L3.28005 62.8502L9.26005 57.2602L2.30005 52.9502L9.26005 48.6402L3.28005 43.0502L10.9401 40.1802L6.16005 33.5302L14.25 32.2102L10.85 24.7502L19.0401 25.0402L17.16 17.0602L25.14 18.9402L24.85 10.7502L32.3101 14.1502L33.6301 6.06019L40.28 10.8402L43.1501 3.18019L48.74 9.16019L53.0501 2.2002L57.3601 9.16019L62.95 3.18019L65.82 10.8402L72.47 6.06019L73.7901 14.1502L81.25 10.7502L80.9601 18.9402L88.94 17.0602L87.06 25.0402L95.25 24.7502L91.8501 32.2102L99.94 33.5302L95.16 40.1802L102.82 43.0502L96.84 48.6402Z" fill="black" stroke="black" stroke-width="3" stroke-linecap="round" stroke-linejoin="round"/>
</svg>
