<svg viewBox="0 0 44 31" fill="none" xmlns="http://www.w3.org/2000/svg">
    <path
        d="M18 3.2C19.4 1.8 21.3 0.9 23.4 0.9C26.2 0.9 28.7 2.5 30 4.8C31.1 4.3 32.4 4 33.8 4C38.9 4 43.1 8.2 43.1 13.4C43.1 18.6 38.9 22.8 33.8 22.8C33.2 22.8 32.6 22.7 32 22.6C30.8 24.7 28.6 26.1 26.1 26.1C25 26.1 24 25.9 23.1 25.4C21.9 28.2 19.2 30.1 16 30.1C12.8 30.1 9.8 28 8.7 25C8.2 25.1 7.7 25.1 7.2 25.1C3.2 25.1 0 21.9 0 17.9C0 15.2 1.4 12.9 3.6 11.6C3.2 10.6 2.9 9.5 2.9 8.3C2.9 3.7 6.6 0 11.3 0C14 0 16.4 1.3 18 3.2Z"
        fill="#0D9DDA" />
</svg>