<svg viewBox="0 0 513 384" fill="none"
    xmlns="http://www.w3.org/2000/svg">
    <path d="M441.6 220.6C423.7 220.7 408.2 225 395.2 231.4C390.4 221.9 385.6 213.6 384.8 207.4C383.9 200.2 382.8 195.8 383.9 187.2C385 178.6 390 166.4 390 165.4C389.9 164.5 388.9 160.1 378.6 160C368.3 159.9 359.4 162 358.4 164.7C357.4 167.4 355.4 173.6 354.1 180C352.3 189.4 333.5 222.7 322.8 240.2C319.3 233.4 316.3 227.4 315.7 222.6C314.8 215.4 313.7 211 314.8 202.4C315.9 193.8 320.9 181.6 320.9 180.6C320.8 179.7 319.8 175.3 309.5 175.2C299.2 175.1 290.3 177.2 289.3 179.9C288.3 182.6 287.2 189 285 195.2C282.9 201.4 257.9 257 251.4 271.5C248.1 278.9 245.2 284.8 243.1 288.8C241 292.8 243 289.1 242.8 289.5C241 292.9 240 294.8 240 294.8V294.9C238.6 297.4 237.1 299.8 236.4 299.8C235.9 299.8 234.9 293.1 236.6 283.9C240.3 264.6 249.3 234.5 249.2 233.4C249.2 232.9 250.9 227.6 243.4 224.9C236.1 222.2 233.5 226.7 232.9 226.7C232.3 226.7 231.8 228.3 231.8 228.3C231.8 228.3 239.9 194.4 216.3 194.4C201.5 194.4 181.1 210.5 171 225.2C164.6 228.7 151 236.1 136.6 244C131.1 247 125.4 250.2 120 253.1L118.9 251.9C90.2999 221.4 37.3999 199.8 39.5999 158.8C40.3999 143.9 45.5999 104.6 141.2 56.9996C219.5 17.9996 282.2 28.6996 293.1 52.4996C308.6 86.4996 259.6 149.7 178.2 158.8C147.2 162.3 130.9 150.3 126.8 145.8C122.5 141.1 121.9 140.9 120.3 141.8C117.7 143.2 119.3 147.4 120.3 149.9C122.7 156.2 132.7 167.4 149.7 173C164.6 177.9 201 180.6 245 163.6C294.3 144.5 332.8 91.4996 321.5 47.1996C310 2.09963 235.2 -12.7004 164.5 12.3996C122.4 27.3996 76.7999 50.7996 43.9999 81.4996C4.99994 117.9 -1.20006 149.7 1.39994 162.9C10.4999 210 75.3999 240.7 101.4 263.4C100.1 264.1 98.8999 264.8 97.7999 265.4C84.7999 271.8 35.2999 297.7 22.8999 325.1C8.89994 356.1 25.0999 378.4 35.8999 381.4C69.2999 390.7 103.5 374 122 346.5C140.4 319 138.2 283.3 129.7 267L129.4 266.4L139.6 260.4C146.2 256.5 152.7 252.9 158.4 249.8C155.2 258.5 152.9 268.8 151.7 283.8C150.3 301.4 157.5 324.2 167 333.2C171.2 337.1 176.2 337.2 179.3 337.2C190.3 337.2 195.3 328.1 200.8 317.2C207.6 303.9 213.6 288.5 213.6 288.5C213.6 288.5 206.1 330.2 226.6 330.2C234.1 330.2 241.6 320.5 245 315.5V315.6C245 315.6 245.2 315.3 245.6 314.6C246.4 313.4 246.8 312.7 246.8 312.7V312.5C249.8 307.3 256.5 295.4 266.5 275.7C279.4 250.3 291.8 218.5 291.8 218.5C291.8 218.5 293 226.3 296.7 239.1C298.9 246.7 303.7 255 307.4 263.1C304.4 267.3 302.6 269.7 302.6 269.7L302.7 269.8C300.3 273 297.6 276.4 294.8 279.8C284.6 292 272.4 305.9 270.8 309.9C268.9 314.6 269.3 318.1 273 320.9C275.7 322.9 280.5 323.3 285.6 322.9C294.8 322.3 301.2 320 304.4 318.6C309.4 316.8 315.1 314.1 320.6 310.1C330.6 302.7 336.7 292.2 336.1 278.2C335.8 270.5 333.3 262.9 330.2 255.7C331.1 254.4 332 253.1 332.9 251.7C348.7 228.6 360.9 203.2 360.9 203.2C360.9 203.2 362.1 211 365.8 223.8C367.7 230.3 371.5 237.4 374.9 244.4C360.1 256.5 350.8 270.5 347.6 279.7C341.7 296.7 346.3 304.4 355 306.2C358.9 307 364.5 305.2 368.7 303.4C373.9 301.7 380.2 298.8 386 294.5C396 287.1 405.6 276.8 405.1 262.9C404.8 256.5 403.1 250.2 400.8 244.2C413.4 239 429.7 236 450.4 238.5C494.9 243.7 503.7 271.5 502 283.1C500.3 294.7 491 301.1 487.9 303.1C484.8 305 483.8 305.7 484.1 307.1C484.5 309.2 485.9 309.1 488.6 308.7C492.3 308.1 512 299.2 512.8 277.8C514 250.3 487.9 220.3 441.6 220.6ZM98.3999 336.3C83.6999 352.4 62.9999 358.5 54.1999 353.3C44.6999 347.8 48.3999 324.1 66.4999 307C77.4999 296.6 91.7999 287 101.2 281.1C103.3 279.8 106.5 277.9 110.3 275.6C110.9 275.2 111.3 275 111.3 275C112 274.6 112.8 274.1 113.6 273.6C120.3 298 113.9 319.4 98.3999 336.3ZM205.9 263.2C200.8 275.7 190 307.8 183.5 306C177.9 304.5 174.5 280.2 182.4 256.2C186.4 244.1 194.9 229.7 199.9 224.1C208 215.1 216.8 212.1 219 215.8C221.6 220.6 209.1 255.4 205.9 263.2ZM294.6 305.6C292.4 306.7 290.4 307.5 289.5 306.9C288.8 306.5 290.4 305 290.4 305C290.4 305 301.5 293.1 305.9 287.6C308.4 284.4 311.4 280.7 314.6 276.5V277.7C314.6 292.1 300.8 301.7 294.6 305.6ZM363 290C361.4 288.8 361.6 285.1 367 273.5C369.1 268.9 373.9 261.2 382.2 253.9C383.2 256.9 383.8 259.8 383.7 262.5C383.6 280.5 370.8 287.2 363 290Z" fill="#CF649A"/>
</svg>
