<svg viewBox="0 0 128 129" fill="none" xmlns="http://www.w3.org/2000/svg">
    <path
        d="M48.64 1.86996L50.08 7.68996C44.4153 9.08307 38.994 11.3251 34 14.34L30.92 9.19996C36.4233 5.87729 42.3975 3.40601 48.64 1.86996ZM79.36 1.86996L77.92 7.68996C83.5846 9.08307 89.006 11.3251 94 14.34L97.1 9.19996C91.5904 5.87544 85.6093 3.4041 79.36 1.86996ZM9.19996 30.92C5.87729 36.4233 3.40601 42.3975 1.86996 48.64L7.68996 50.08C9.08307 44.4153 11.3251 38.994 14.34 34L9.19996 30.92ZM5.99996 64C5.99803 61.0911 6.21531 58.1862 6.64996 55.31L0.719963 54.41C-0.239988 60.7673 -0.239988 67.2327 0.719963 73.59L6.64996 72.69C6.21531 69.8137 5.99803 66.9088 5.99996 64ZM97.08 118.8L94 113.66C89.0122 116.673 83.5977 118.915 77.94 120.31L79.38 126.13C85.6155 124.592 91.5828 122.121 97.08 118.8ZM122 64C122.002 66.9088 121.785 69.8137 121.35 72.69L127.28 73.59C128.24 67.2327 128.24 60.7673 127.28 54.41L121.35 55.31C121.785 58.1862 122.002 61.0911 122 64ZM126.13 79.36L120.31 77.92C118.917 83.5846 116.675 89.006 113.66 94L118.8 97.1C122.124 91.5904 124.596 85.6093 126.13 79.36ZM72.69 121.36C66.929 122.227 61.0709 122.227 55.31 121.36L54.41 127.29C60.7673 128.25 67.2327 128.25 73.59 127.29L72.69 121.36ZM110.69 98.41C107.231 103.095 103.088 107.234 98.4 110.69L101.96 115.52C107.131 111.718 111.702 107.16 115.52 102L110.69 98.41ZM98.4 17.31C103.089 20.7685 107.231 24.9113 110.69 29.6L115.52 26C111.715 20.8427 107.157 16.2854 102 12.48L98.4 17.31ZM17.31 29.6C20.7685 24.9113 24.9113 20.7685 29.6 17.31L26 12.48C20.8427 16.2854 16.2854 20.8427 12.48 26L17.31 29.6ZM118.8 30.92L113.66 34C116.673 38.9877 118.915 44.4022 120.31 50.06L126.13 48.62C124.592 42.3845 122.121 36.4171 118.8 30.92ZM55.31 6.64996C61.0709 5.78323 66.929 5.78323 72.69 6.64996L73.59 0.719963C67.2327 -0.239988 60.7673 -0.239988 54.41 0.719963L55.31 6.64996ZM20.39 117.11L7.99996 120L10.89 107.61L5.04996 106.24L2.15996 118.63C1.92719 119.624 1.9519 120.661 2.23176 121.643C2.51162 122.625 3.03738 123.519 3.75928 124.241C4.48118 124.963 5.37534 125.488 6.35715 125.768C7.33895 126.048 8.37594 126.073 9.36996 125.84L21.75 123L20.39 117.11ZM6.29996 100.89L12.14 102.25L14.14 93.66C11.2248 88.7604 9.05124 83.4562 7.68996 77.92L1.86996 79.36C3.17467 84.6625 5.15769 89.7746 7.76996 94.57L6.29996 100.89ZM34.3 113.89L25.71 115.89L27.07 121.73L33.39 120.26C38.1853 122.872 43.2974 124.855 48.6 126.16L50.04 120.34C44.5153 118.962 39.2247 116.775 34.34 113.85L34.3 113.89ZM64 12C54.709 12.0048 45.589 14.4988 37.5885 19.2226C29.588 23.9464 22.9992 30.7275 18.5075 38.8606C14.0158 46.9937 11.7852 56.1817 12.0476 65.4689C12.3101 74.7562 15.0561 83.8035 20 91.67L15 113L36.33 108C43.152 112.297 50.8798 114.948 58.9027 115.745C66.9257 116.542 75.024 115.463 82.5581 112.592C90.0921 109.721 96.8554 105.138 102.314 99.2041C107.772 93.2703 111.776 86.1486 114.009 78.4016C116.242 70.6545 116.643 62.4944 115.18 54.5657C113.717 46.6371 110.431 39.1572 105.58 32.7169C100.73 26.2767 94.4486 21.0525 87.2323 17.457C80.0159 13.8615 72.0624 11.9933 64 12Z"
        fill="#3A76F0" />
</svg>