<svg viewBox="0 0 257 257" fill="none" xmlns="http://www.w3.org/2000/svg">
    <path fill-rule="evenodd" clip-rule="evenodd"
        d="M54 162C54 176.912 41.912 189 27 189C12.088 189 0 176.912 0 162C0 147.088 12.088 135 27 135H54V162Z"
        fill="#E01E5A" />
    <path fill-rule="evenodd" clip-rule="evenodd"
        d="M67.5 162C67.5 147.088 79.588 135 94.5 135C109.412 135 121.5 147.088 121.5 162V229.5C121.5 244.412 109.412 256.5 94.5 256.5C79.588 256.5 67.5 244.412 67.5 229.5V162Z"
        fill="#E01E5A" />
    <path fill-rule="evenodd" clip-rule="evenodd"
        d="M94.5 54C79.588 54 67.5 41.912 67.5 27C67.5 12.088 79.588 0 94.5 0C109.412 0 121.5 12.088 121.5 27V54H94.5Z"
        fill="#36C5F0" />
    <path fill-rule="evenodd" clip-rule="evenodd"
        d="M94.5 67.5C109.412 67.5 121.5 79.588 121.5 94.5C121.5 109.412 109.412 121.5 94.5 121.5H27C12.088 121.5 0 109.412 0 94.5C0 79.588 12.088 67.5 27 67.5H94.5Z"
        fill="#36C5F0" />
    <path fill-rule="evenodd" clip-rule="evenodd"
        d="M202.5 94.5C202.5 79.588 214.588 67.5 229.5 67.5C244.412 67.5 256.5 79.588 256.5 94.5C256.5 109.412 244.412 121.5 229.5 121.5H202.5V94.5Z"
        fill="#2EB67D" />
    <path fill-rule="evenodd" clip-rule="evenodd"
        d="M189 94.5C189 109.412 176.912 121.5 162 121.5C147.088 121.5 135 109.412 135 94.5V27C135 12.088 147.088 0 162 0C176.912 0 189 12.088 189 27V94.5Z"
        fill="#2EB67D" />
    <path fill-rule="evenodd" clip-rule="evenodd"
        d="M162 202.5C176.912 202.5 189 214.588 189 229.5C189 244.412 176.912 256.5 162 256.5C147.088 256.5 135 244.412 135 229.5V202.5H162Z"
        fill="#ECB22E" />
    <path fill-rule="evenodd" clip-rule="evenodd"
        d="M162 189C147.088 189 135 176.912 135 162C135 147.088 147.088 135 162 135H229.5C244.412 135 256.5 147.088 256.5 162C256.5 176.912 244.412 189 229.5 189H162Z"
        fill="#ECB22E" />
</svg>