<svg viewBox="0 0 30 34" fill="none"
    xmlns="http://www.w3.org/2000/svg">
    <path fill-rule="evenodd" clip-rule="evenodd" d="M29.861 28.8864L16.276 0.768583C16.051 0.295136 15.576 0 15.058 0C14.541 0 14.066 0.301284 13.834 0.768583L0.25548 28.8864C0.00587952 29.4029 0.103275 30.0178 0.492975 30.4359C0.882675 30.8478 1.49158 30.9769 2.01528 30.7494L10.948 26.8758C10.997 26.8512 11.052 26.8451 11.113 26.8451C11.283 26.8451 11.429 26.9496 11.49 27.0971L13.804 32.8892C14.011 33.4057 14.51 33.75 15.064 33.75H15.071C15.625 33.75 16.124 33.4057 16.331 32.883L18.59 27.0971C18.651 26.9557 18.797 26.8512 18.962 26.8512C19.01 26.8512 19.059 26.8573 19.102 26.8758L28.114 30.7617C28.637 30.9892 29.24 30.8601 29.63 30.4482C30.02 30.0362 30.111 29.4029 29.861 28.8864ZM14.726 2.33349L14.148 26.1435C14.136 26.6559 14.546 27.078 15.057 27.078C15.569 27.078 15.98 26.6526 15.965 26.1382L15.248 2.33195C15.244 2.19047 15.128 2.078 14.987 2.078C14.846 2.078 14.73 2.19139 14.726 2.33349Z" fill="url(#paint0_linear_204_46)"/>
    <defs>
        <linearGradient id="paint0_linear_204_46" x1="15.369" y1="33.7419" x2="15.369" y2="0" gradientUnits="userSpaceOnUse">
            <stop stop-color="#006DEE"/>
            <stop offset="0.3113" stop-color="#1E9DF5"/>
            <stop offset="0.6136" stop-color="#36C5FA"/>
            <stop offset="0.8531" stop-color="#45DDFE"/>
            <stop offset="1" stop-color="#4BE6FF"/>
        </linearGradient>
    </defs>
</svg>
