<svg viewBox="0 0 23 27" fill="none" xmlns="http://www.w3.org/2000/svg">
    <mask id="mask0_7_128" style="mask-type:alpha" maskUnits="userSpaceOnUse" x="0" y="0" width="23"
        height="27">
        <path fill-rule="evenodd" clip-rule="evenodd"
            d="M11.5276 1.65858C11.6218 1.5867 11.7524 1.5867 11.8466 1.65858L21.521 9.04097C21.659 9.14622 21.659 9.35382 21.521 9.45907L11.6871 16.9632L1.85313 9.45907C1.71521 9.35382 1.71521 9.14622 1.85313 9.04098L11.5276 1.65858ZM20.9301 17.1334L17.354 14.4045L17.285 14.3519L13.64 17.1334H20.9301ZM18.373 13.5217L22.3218 16.535C23.152 17.1685 23.152 18.4183 22.3218 19.0518L12.6474 26.4342C12.0803 26.8669 11.2939 26.8669 10.7268 26.4342L1.05237 19.0518C0.222127 18.4183 0.222127 17.1685 1.05237 16.535L5.00118 13.5217L1.05237 10.5084C0.222128 9.8749 0.222126 8.62514 1.05237 7.9916L10.7268 0.609206C11.2939 0.176489 12.0803 0.176488 12.6474 0.609206L22.3218 7.9916C23.152 8.62514 23.152 9.8749 22.3218 10.5084L18.373 13.5217ZM6.08914 14.3519L6.02019 14.4045L1.85313 17.5844C1.71521 17.6896 1.71521 17.8972 1.85313 18.0024L11.5276 25.3848C11.6218 25.4567 11.7524 25.4567 11.8466 25.3848L20.9301 18.4534H11.6871H11.464L11.2867 18.3181L6.08914 14.3519Z"
            fill="currentColor" />
    </mask>
    <g mask="url(#mask0_7_128)">
        <path d="M0.327148 0.015625H23.453V28.1164H0.327148V0.015625Z" fill="currentColor" />
    </g>
</svg>