<svg viewBox="0 0 27 32" fill="none" xmlns="http://www.w3.org/2000/svg">
    <path
        d="M19.8545 0C20.6862 0.0210149 21.4714 0.036291 22.105 0.144635C23.4316 0.470359 24.6815 1.16788 25.3312 2.56403C25.3312 2.56403 25.4772 2.8123 25.5834 3.5278C25.6897 4.24331 25.851 6.22871 25.851 6.22871C26.0736 9.52597 26.0977 12.9553 26.1333 16.1869C26.0759 17.4517 25.7104 18.6401 25.1561 19.7265C23.8009 22.3824 21.3176 24.4289 19.4502 25.4937C14.8286 27.762 10.3591 29.7816 6.57576 31.4086C2.57062 32.8553 0.752685 31.4032 0.14975 29.6793C0.0278512 29.2101 -0.0144154 28.7271 0.00420676 28.281C0.00420676 28.281 0.0410556 27.2117 0.318134 25.4554C0.595213 23.6992 2.63707 11.0536 4.83014 4.57111C5.38373 3.0734 7.44712 0.261147 12.3558 0H19.8545Z"
        fill="#1EBFBF" />
    <path
        d="M19.0354 5.9173C19.3918 5.9173 19.6807 6.19617 19.6807 6.54017V8.72022C19.6807 9.06422 19.3918 9.34309 19.0354 9.34309H18.7128C16.5745 9.34309 14.8411 11.0163 14.8411 13.0803V16.4282C14.8411 20.3843 11.5188 23.5913 7.4206 23.5913H7.09796C6.74159 23.5913 6.4527 23.3124 6.4527 22.9684V20.7883C6.4527 20.4443 6.74159 20.1655 7.09796 20.1655H7.4206C9.55883 20.1655 11.2922 18.4923 11.2922 16.4282V13.0803C11.2922 9.12429 14.6145 5.9173 18.7127 5.9173H19.0354Z"
        fill="#F9F9F9" />
</svg>