<svg viewBox="0 0 148 178" fill="none"
    xmlns="http://www.w3.org/2000/svg">
    <path d="M138.462 23.7397C121.988 0.161851 89.4516 -6.82676 65.9276 8.16105L24.6216 34.4935C19.0386 38.0037 14.2496 42.6405 10.5609 48.1073C6.87217 53.5741 4.36496 59.7505 3.19959 66.2416C1.22931 77.1738 2.96175 88.4508 8.12266 98.2875C4.58572 103.652 2.17326 109.678 1.03109 116.001C-0.145494 122.623 0.0117537 129.412 1.49361 135.971C2.97547 142.531 5.75212 148.729 9.66073 154.201C26.1343 177.782 58.6729 184.772 82.1937 169.78L123.509 143.447C129.091 139.937 133.878 135.299 137.565 129.833C141.252 124.366 143.758 118.19 144.922 111.699C146.895 100.768 145.167 89.4906 140.011 79.6517C143.546 74.287 145.957 68.2617 147.098 61.9394C148.276 55.3184 148.12 48.5288 146.638 41.969C145.157 35.4093 142.379 29.2116 138.47 23.7397" fill="#FF3E00"/>
    <path d="M61.8916 156.42C55.3898 158.11 48.526 157.764 42.2271 155.43C35.9281 153.095 30.4974 148.883 26.6681 143.363C24.318 140.073 22.6485 136.347 21.7574 132.403C20.8663 128.459 20.7717 124.376 21.479 120.395C21.7183 119.088 22.0481 117.8 22.4658 116.538L23.2435 114.162L25.3613 115.716C30.2478 119.309 35.712 122.041 41.5181 123.795L43.053 124.26L42.9121 125.794C42.7256 127.972 43.3165 130.147 44.58 131.932C45.733 133.596 47.3691 134.865 49.2672 135.569C51.1652 136.273 53.2336 136.377 55.1928 135.868C56.0892 135.629 56.9438 135.256 57.7272 134.759L99.0411 108.423C100.052 107.787 100.92 106.947 101.588 105.957C102.256 104.966 102.711 103.848 102.923 102.672C103.135 101.472 103.106 100.241 102.837 99.0527C102.569 97.8639 102.066 96.7406 101.358 95.7483C100.205 94.0844 98.5693 92.8145 96.6714 92.1101C94.7736 91.4056 92.7052 91.3004 90.7457 91.8089C89.8494 92.0474 88.9948 92.4213 88.2113 92.9177L72.4457 102.968C69.8512 104.616 67.0202 105.859 64.0505 106.653C57.5488 108.343 50.685 107.997 44.3859 105.662C38.0869 103.327 32.6562 99.1154 28.8271 93.5956C26.4763 90.3056 24.8063 86.5793 23.9149 82.6352C23.0235 78.6911 22.9288 74.6088 23.6364 70.6276C24.3385 66.7244 25.8475 63.0107 28.0669 59.724C30.2863 56.4373 33.1672 53.65 36.5254 51.5404L77.844 25.2096C80.4379 23.5589 83.269 22.3148 86.2392 21.5204C92.741 19.8304 99.6047 20.1762 105.904 22.5112C112.203 24.8461 117.633 29.0577 121.463 34.5773C123.813 37.8675 125.483 41.5939 126.374 45.5379C127.266 49.4819 127.36 53.5642 126.653 57.5453C126.412 58.852 126.082 60.1407 125.665 61.4024L124.887 63.7784L122.771 62.2277C117.885 58.6343 112.421 55.9022 106.614 54.1492L105.078 53.6836L105.22 52.1502C105.406 49.9703 104.816 47.7946 103.554 46.0075C102.401 44.3437 100.765 43.074 98.8667 42.3701C96.9687 41.6661 94.9003 41.5618 92.9411 42.0713C92.0448 42.3096 91.1901 42.6835 90.4067 43.1801L49.0817 69.5172C48.0708 70.1532 47.2037 70.993 46.5357 71.9831C45.8678 72.9731 45.4137 74.0916 45.2025 75.2671C44.9896 76.4673 45.018 77.6979 45.2862 78.887C45.5544 80.0761 46.0569 81.1998 46.7644 82.1924C47.9177 83.8561 49.5537 85.1258 51.4515 85.8303C53.3494 86.5347 55.4176 86.64 57.3772 86.1318C58.2733 85.8929 59.1279 85.519 59.9116 85.023L75.6755 74.9773C78.2689 73.326 81.1002 72.0824 84.0707 71.2897C90.5722 69.5996 97.4358 69.9453 103.735 72.2803C110.033 74.6153 115.464 78.827 119.293 84.3466C121.643 87.6366 123.313 91.3629 124.205 95.307C125.096 99.2511 125.191 103.333 124.483 107.315C123.783 111.218 122.275 114.932 120.058 118.22C117.841 121.507 114.962 124.296 111.605 126.408L70.2868 152.731C67.693 154.382 64.8618 155.626 61.8916 156.42Z" fill="white"/>
</svg>
