<svg viewBox="0 0 19 18" fill="none" xmlns="http://www.w3.org/2000/svg">
    <path fill-rule="evenodd" clip-rule="evenodd"
        d="M12.36 0.0380859H11.4755V0.92252H12.36V0.0380859ZM11.0864 0.0380859H10.2019V0.92252H11.0864V0.0380859ZM9.81279 0.0380859H8.92835V0.92252H9.81279V0.0380859ZM8.5392 0.0380859H7.65477V0.92252H8.5392V0.0380859ZM7.26562 0.0380859H6.38118V0.92252H7.26562V0.0380859ZM5.99203 0.0380859H5.1076V0.92252H5.99203V0.0380859ZM4.71845 1.30787H3.83401V2.1923H4.71845V1.30787ZM3.44486 2.57769H2.56043V3.46213H3.44486V2.57769ZM2.17128 3.84748H1.28684V4.73191H2.17128V3.84748ZM2.17128 5.11726H1.28684V6.00169H2.17128V5.11726ZM2.17128 6.38704H1.28684V7.27147H2.17128V6.38704ZM2.17128 7.65687H1.28684V8.5413H2.17128V7.65687ZM0.897694 8.92665H0.0132599V9.81108H0.897694V8.92665ZM0.897694 10.1964H0.0132599V11.0809H0.897694V10.1964ZM0.897694 11.4663H0.0132599V12.3507H0.897694V11.4663ZM2.17128 12.736H1.28684V13.6205H2.17128V12.736ZM3.44486 14.0058H2.56043V14.8903H3.44486V14.0058ZM4.71845 15.2756H3.83401V16.16H4.71845V15.2756ZM5.99203 16.5454H5.1076V17.4299H5.99203V16.5454ZM7.26562 16.5454H6.38118V17.4299H7.26562V16.5454ZM8.5392 15.2756H7.65477V16.16H8.5392V15.2756ZM9.81279 15.2756H8.92835V16.16H9.81279V15.2756ZM9.81279 16.5454H8.92835V17.4299H9.81279V16.5454ZM11.0864 16.5454H10.2019V17.4299H11.0864V16.5454ZM12.36 15.2756H11.4755V16.16H12.36V15.2756ZM12.36 14.0058H11.4755V14.8903H12.36V14.0058ZM13.6335 12.736H12.7491V13.6205H13.6335V12.736ZM14.9071 10.1964H14.0227V11.0809H14.9071V10.1964ZM14.9071 11.4663H14.0227V12.3507H14.9071V11.4663ZM14.9071 8.92665H14.0227V9.81108H14.9071V8.92665ZM16.1807 7.65687H15.2963V8.5413H16.1807V7.65687ZM17.4543 7.65687H16.5699V8.5413H17.4543V7.65687ZM18.7279 6.38704H17.8434V7.27147H18.7279V6.38704ZM17.4543 5.11726H16.5699V6.00169H17.4543V5.11726ZM16.1807 5.11726H15.2963V6.00169H16.1807V5.11726ZM14.9071 5.11726H14.0227V6.00169H14.9071V5.11726ZM18.7279 3.84748H17.8434V4.73191H18.7279V3.84748ZM18.7279 5.11726H17.8434V6.00169H18.7279V5.11726ZM17.4543 2.57769H16.5699V3.46213H17.4543V2.57769Z"
        fill="currentColor" />
    <path fill-rule="evenodd" clip-rule="evenodd"
        d="M17.4543 2.57793H16.5699V3.46237H17.4543V2.57793ZM16.1807 2.57793H15.2963V3.46237H16.1807V2.57793ZM13.6335 1.30811H12.7491V2.19254H13.6335V1.30811ZM12.36 2.57793H11.4755V3.46237H12.36V2.57793ZM8.53921 3.84771H7.65478V4.73215H8.53921V3.84771ZM8.53921 8.92688H7.65478V9.81132H8.53921V8.92688ZM8.53921 10.1967H7.65478V11.0811H8.53921V10.1967ZM7.26562 11.4665H6.38119V12.3509H7.26562V11.4665ZM5.99204 10.1967H5.1076V11.0811H5.99204V10.1967ZM5.99204 8.92688H5.1076V9.81132H5.99204V8.92688ZM14.9071 2.57793H14.0227V3.46237H14.9071V2.57793Z"
        fill="currentColor" />
</svg>