<svg viewBox="0 0 16 19" fill="none" xmlns="http://www.w3.org/2000/svg">
    <path
        d="M5.32514 4.17723V1.79632C5.3239 1.69119 5.34979 1.58752 5.40027 1.49538C5.45081 1.40323 5.52423 1.32572 5.61345 1.27042L7.67201 0.0799963C7.76434 0.0275738 7.86862 0 7.97472 0C8.08082 0 8.18515 0.0275738 8.27748 0.0799963L15.6611 4.35344C15.7506 4.40853 15.8242 4.486 15.8747 4.57819C15.9252 4.67039 15.951 4.77416 15.9495 4.87934V7.25735C15.9512 7.36295 15.9255 7.46721 15.875 7.55994C15.8245 7.65262 15.7508 7.73062 15.6611 7.78615L13.6055 8.97659C13.5127 9.02926 13.4079 9.05697 13.3013 9.05697C13.1947 9.05697 13.0899 9.02926 12.9971 8.97659L5.61345 4.70313C5.52403 4.64804 5.45045 4.57057 5.39991 4.47838C5.34937 4.38618 5.32359 4.2824 5.32514 4.17723Z"
        fill="currentColor" />
    <path
        d="M10.6474 13.7847V16.5152C10.6487 16.6204 10.6228 16.724 10.5722 16.8162C10.5217 16.9083 10.4483 16.9858 10.3591 17.0411L8.30348 18.2316C8.21069 18.2842 8.10589 18.3119 7.99927 18.3119C7.89266 18.3119 7.78785 18.2842 7.69512 18.2316L5.63945 17.0411C5.55024 16.9858 5.47681 16.9083 5.42627 16.8162C5.37579 16.724 5.3499 16.6204 5.35114 16.5152V7.97108C5.34959 7.86589 5.37537 7.7621 5.42591 7.66994C5.47645 7.57772 5.55003 7.50035 5.63945 7.44524L8.00647 6.07275L10.6705 7.61566L10.6474 13.7847Z"
        fill="currentColor" />
    <path
        d="M5.32805 7.26583V4.88493C5.32841 4.77794 5.30024 4.67276 5.24655 4.58032C5.1928 4.48787 5.11544 4.41149 5.02241 4.35903L2.96674 3.1686C2.8749 3.11478 2.77043 3.08643 2.66404 3.08643C2.55764 3.08643 2.45314 3.11478 2.36129 3.1686L0.305631 4.35903C0.212599 4.41149 0.135238 4.48787 0.0815136 4.58032C0.0277892 4.67276 -0.000368958 4.77794 3.65049e-06 4.88493V7.27164C0.000226718 7.37849 0.0286238 7.48337 0.0822882 7.57574C0.135952 7.66806 0.212997 7.7446 0.305631 7.79753L2.36129 8.98792C2.45362 9.04034 2.55793 9.06794 2.66404 9.06794C2.77015 9.06794 2.87442 9.04034 2.96674 8.98792L5.02241 7.79753C5.1159 7.74413 5.19347 7.66671 5.24717 7.57325C5.30092 7.47984 5.32883 7.37367 5.32805 7.26583Z"
        fill="currentColor" />
</svg>