<svg viewBox="0 0 1000 1000" fill="none"
    xmlns="http://www.w3.org/2000/svg">
    <path
        d="M500 1000C776.142 1000 1000 776.142 1000 500C1000 223.858 776.142 0 500 0C223.858 0 0 223.858 0 500C0 776.142 223.858 1000 500 1000Z"
        fill="url(#paint0_linear_114_295)" />
    <path fill-rule="evenodd" clip-rule="evenodd"
        d="M226.328 494.722C372.089 431.217 469.285 389.35 517.917 369.122C656.773 311.367 685.625 301.335 704.431 301.004C708.568 300.931 717.816 301.956 723.806 306.817C728.865 310.921 730.257 316.466 730.923 320.357C731.589 324.249 732.418 333.114 731.759 340.041C724.234 419.102 691.675 610.965 675.111 699.515C668.102 736.984 654.301 749.548 640.941 750.777C611.905 753.449 589.856 731.588 561.733 713.153C517.727 684.306 492.866 666.349 450.15 638.2C400.784 605.669 432.786 587.789 460.919 558.569C468.282 550.921 596.215 434.556 598.691 424C599.001 422.68 599.288 417.759 596.365 415.16C593.441 412.562 589.126 413.45 586.012 414.157C581.599 415.159 511.298 461.625 375.11 553.556C355.155 567.259 337.081 573.935 320.887 573.585C303.034 573.199 268.693 563.491 243.164 555.192C211.851 545.014 186.964 539.632 189.132 522.346C190.26 513.343 202.659 504.135 226.328 494.722Z"
        fill="white" />
    <defs>
        <linearGradient id="paint0_linear_114_295" x1="50000" y1="0" x2="50000" y2="99258.3"
            gradientUnits="userSpaceOnUse">
            <stop stop-color="#2AABEE" />
            <stop offset="1" stop-color="#229ED9" />
        </linearGradient>
    </defs>
</svg>