<svg viewBox="0 0 235 280" fill="none" xmlns="http://www.w3.org/2000/svg">
    <path d="M219.06 38.47H17.06V257.47H219.06V38.47Z" fill="white" />
    <path fill-rule="evenodd" clip-rule="evenodd"
        d="M234.47 157.95C234.47 158.32 234.47 158.69 234.47 159.05V159.64C234.47 159.99 234.47 160.33 234.47 160.64V160.72C234.47 160.86 234.47 161 234.47 161.14V161.24V162.19V162.3C234.47 162.42 234.47 162.54 234.47 162.66V162.87C234.47 163.02 234.47 163.17 234.47 163.31C234.47 163.46 234.47 163.6 234.47 163.75V163.87C234.47 163.98 234.47 164.08 234.47 164.19V164.31C234.47 164.45 234.47 164.59 234.47 164.72V165.13V165.2C234.47 165.65 234.38 166.1 234.32 166.58L228.25 243.58H228.2C228.027 246.385 227.622 249.171 226.99 251.91C225.4 258.56 223.68 262.91 217.31 268.78C209.43 276.05 197.77 278.51 190.91 279.02C185 279.47 142 279.43 142 279.43H92.82C92.82 279.43 49.82 279.43 43.92 279.02C37.07 278.51 25.4 276.02 17.52 268.78C11.16 262.92 9.44002 258.56 7.85002 251.91C7.04468 248.283 6.60582 244.585 6.54003 240.87L0.160021 165.39V164.94C0.160021 164.8 0.160021 164.65 0.160021 164.51V163.64C0.164938 163.6 0.164938 163.56 0.160021 163.52V163.08C0.160021 162.93 0.160021 162.78 0.160021 162.63V162.05C0.160021 161.73 0.160021 161.4 0.160021 161.05V160.97C0.160021 160.82 0.160021 160.67 0.160021 160.52V160.47C0.160021 160.13 0.160021 159.78 0.160021 159.42C0.160021 158.88 0.160021 158.34 0.160021 157.78C0.160021 157.22 0.160021 156.66 0.160021 156.09C0.100021 150.09 0.100024 143.73 0.210024 140.25C0.370024 135.01 0.500028 124.82 0.730028 117.6C0.960028 110.38 1.81002 79.47 2.08002 70.68C2.35002 61.89 3.00003 40.55 3.51003 32.55C4.28561 24.1673 8.21766 16.3926 14.51 10.8C21.3 4.96 32.43 1.23001 41.36 0.670013C49.93 0.140013 62.26 0.0700073 68.59 0.0700073H165.82C172.15 0.0700073 184.47 0.140013 193.04 0.670013C201.98 1.23001 213.11 4.96 219.89 10.8C226.181 16.3938 230.112 24.1679 230.89 32.55C231.4 40.55 232.04 61.89 232.32 70.68C232.6 79.47 233.43 110.38 233.66 117.6C233.89 124.82 234.03 135.01 234.19 140.25C234.34 143.99 234.54 151.41 234.47 157.95ZM52.21 181.8C55.63 182.08 63.99 182.99 69.31 185.55C74.36 187.98 77.03 191.24 77.86 193.65C79.14 197.34 79.19 215.17 79.36 219.08C79.49 222.02 79.68 232.08 79.81 234.75C80.19 242.47 80.13 243.68 83.64 245.93C87.55 248.44 93.46 248.56 95.19 248.63C96.92 248.7 113.04 248.63 113.04 248.63H121.66C121.66 248.63 138.1 248.71 141.01 248.55C143.92 248.39 148.89 247.28 150.91 246C152.608 245.064 153.874 243.504 154.44 241.65C154.72 240.24 155.27 217.45 155.49 211.58C155.79 203.49 156.15 196.2 156.24 195.68C156.662 193.556 157.735 191.616 159.31 190.13C161.981 187.617 165.189 185.743 168.69 184.65C173.319 183.311 178.063 182.407 182.86 181.95C185.98 181.67 191.5 181.28 194.79 181.28C197.7 181.28 204.68 179.28 208.27 176.35C207.58 142.24 205.99 67.99 205.66 54.9C205.54 49.99 200.85 46.62 195.99 46.62L38.64 46.54C33.8 46.54 29.01 49.69 28.89 54.83C28.59 67.63 27.01 142.26 26.3 176.37C29.9 179.31 36.86 181.37 39.76 181.37C41.08 181.35 47.68 181.43 52.21 181.8Z"
        fill="#2274E5" />
    <path fill-rule="evenodd" clip-rule="evenodd"
        d="M150.91 246C148.91 247.28 143.91 248.4 141.01 248.55C138.11 248.7 121.66 248.63 121.66 248.63H113.04C113.04 248.63 96.92 248.7 95.19 248.63C93.46 248.56 87.55 248.44 83.64 245.93C80.13 243.68 80.19 242.47 79.81 234.75C79.68 232.12 79.49 222.02 79.36 219.08C79.26 216.66 79.2 208.93 78.86 202.5H155.86C155.74 205.13 155.61 208.29 155.49 211.58C155.27 217.45 154.72 240.24 154.44 241.65C153.874 243.504 152.608 245.064 150.91 246Z"
        fill="#BEC2C8" />
    <path
        d="M117.48 161.23C116.74 161.23 115.09 159.93 114.27 159.14C113.45 158.35 104.82 150.19 96.42 142.47C86.01 133.03 77.69 125.22 76.59 124.14C75.49 123.06 75.84 122.67 76.08 122.43C76.91 121.55 85.38 113.96 86.08 113.51C86.27 113.37 86.72 113.51 87.26 113.96C87.32 113.96 92.68 118.06 98.4 122.5C109.4 130.99 112.2 133.44 112.2 133.44C112.2 133.44 115.82 128.65 143.68 103.32C162.46 86.25 173.01 77.91 174.29 77.06C174.587 76.8522 174.93 76.7216 175.29 76.68C175.406 76.6849 175.519 76.7175 175.62 76.7748C175.721 76.8322 175.806 76.9129 175.87 77.01C176.13 77.31 181.12 83.76 181.49 84.44C181.83 85.04 181.77 85.09 181.49 85.36C170.923 95.803 160.909 106.791 151.49 118.28C130.49 144 120.98 157.73 119.96 159.08C118.88 160.57 118.11 161.23 117.48 161.23Z"
        fill="#2C3B4A" />
</svg>