<svg viewBox="0 0 33 32" fill="none" xmlns="http://www.w3.org/2000/svg">
    <path
        d="M27.88 0H6.12C3.2923 0 1 2.2923 1 5.12V26.88C1 29.7077 3.2923 32 6.12 32H27.88C30.7077 32 33 29.7077 33 26.88V5.12C33 2.2923 30.7077 0 27.88 0Z"
        fill="#DE483A" />
    <path
        d="M7.76398 14.993L14.138 11.325L14.146 11.32L20.714 7.54001C20.991 7.38001 21.004 6.89001 20.694 6.71201L20.477 6.58801C20.16 6.40801 19.75 6.17401 19.575 6.07201C19.4217 5.98853 19.2495 5.94579 19.0749 5.94789C18.9003 5.94999 18.7292 5.99686 18.578 6.08401C18.423 6.17401 8.07698 12.122 7.73098 12.319C7.5271 12.4356 7.29632 12.4969 7.06148 12.4969C6.82663 12.4969 6.59586 12.4356 6.39198 12.319L0.927979 9.14401V11.843L0.983979 11.875C2.34798 12.67 5.57598 14.55 6.36598 14.995C6.84498 15.265 7.30298 15.259 7.76398 14.993Z"
        fill="white" />
    <path
        d="M7.76398 20.385L14.13 16.721L14.154 16.707L20.714 12.932C20.991 12.772 21.004 12.281 20.694 12.104L20.477 11.98C20.161 11.8 19.75 11.566 19.575 11.464C19.4217 11.3805 19.2495 11.3378 19.0749 11.3399C18.9003 11.342 18.7292 11.3888 18.578 11.476C18.423 11.565 8.07698 17.514 7.73098 17.71C7.5271 17.8265 7.29632 17.8878 7.06148 17.8878C6.82663 17.8878 6.59586 17.8265 6.39198 17.71C6.06598 17.522 0.927979 14.536 0.927979 14.536V17.234L0.983979 17.267C2.34898 18.062 5.57598 19.941 6.36598 20.387C6.84498 20.657 7.30298 20.651 7.76398 20.385Z"
        fill="white" />
    <path
        d="M14.139 22.108L7.76398 25.777C7.30298 26.043 6.84398 26.049 6.36598 25.779C5.57598 25.333 2.34898 23.454 0.983979 22.659L0.927979 22.626V19.928L6.39198 23.102C6.80498 23.341 7.31698 23.338 7.73098 23.102C8.07698 22.906 18.423 16.957 18.578 16.867C18.7292 16.7798 18.9003 16.7329 19.0749 16.7308C19.2495 16.7287 19.4217 16.7715 19.575 16.855C19.9472 17.0702 20.3205 17.2836 20.695 17.495C21.005 17.673 20.991 18.164 20.714 18.324L14.139 22.108Z"
        fill="white" />
</svg>