<svg viewBox="0 0 62 62" fill="none" xmlns="http://www.w3.org/2000/svg">
    <path fill-rule="evenodd" clip-rule="evenodd"
        d="M54.2198 0.530273H7.77979C5.85778 0.532919 4.01525 1.29761 2.65618 2.65667C1.29712 4.01574 0.532431 5.85827 0.529785 7.78027V54.2203C0.532431 56.1423 1.29712 57.9848 2.65618 59.3439C4.01525 60.7029 5.85778 61.4676 7.77979 61.4703H54.2198C56.1418 61.4676 57.9843 60.7029 59.3434 59.3439C60.7025 57.9848 61.4671 56.1423 61.4698 54.2203V7.78027C61.4671 5.85827 60.7025 4.01574 59.3434 2.65667C57.9843 1.29761 56.1418 0.532919 54.2198 0.530273ZM26.7798 44.4203C26.7798 45.0594 26.5259 45.6724 26.0739 46.1244C25.622 46.5764 25.009 46.8303 24.3698 46.8303H14.1898C13.5506 46.8303 12.9376 46.5764 12.4857 46.1244C12.0337 45.6724 11.7798 45.0594 11.7798 44.4203V14.1903C11.7798 13.5511 12.0337 12.9381 12.4857 12.4861C12.9376 12.0342 13.5506 11.7803 14.1898 11.7803H24.3698C25.009 11.7803 25.622 12.0342 26.0739 12.4861C26.5259 12.9381 26.7798 13.5511 26.7798 14.1903V44.4203ZM50.2198 30.5403C50.2264 30.8609 50.169 31.1797 50.0509 31.4779C49.9328 31.7761 49.7563 32.0477 49.5318 32.2768C49.3074 32.5059 49.0395 32.6879 48.7438 32.8122C48.448 32.9364 48.1305 33.0003 47.8098 33.0003H37.6298C36.9906 33.0003 36.3776 32.7464 35.9257 32.2944C35.4737 31.8424 35.2198 31.2294 35.2198 30.5903V14.1903C35.2198 13.5511 35.4737 12.9381 35.9257 12.4861C36.3776 12.0342 36.9906 11.7803 37.6298 11.7803H47.8098C48.449 11.7803 49.0619 12.0342 49.5139 12.4861C49.9659 12.9381 50.2198 13.5511 50.2198 14.1903V30.5403Z"
        fill="url(#paint0_linear_149_220)" />
    <defs>
        <linearGradient id="paint0_linear_149_220" x1="30.9998" y1="61.4703" x2="30.9998"
            y2="0.530273" gradientUnits="userSpaceOnUse">
            <stop stop-color="#0052CC" />
            <stop offset="1" stop-color="#2684FF" />
        </linearGradient>
    </defs>
</svg>