<svg viewBox="0 0 103 103" fill="none" xmlns="http://www.w3.org/2000/svg">
    <path
        d="M51.16 0C22.95 0 0 22.95 0 51.16C0 56.61 0.859997 61.85 2.45 66.78C2.6 67.24 2.76 67.7 2.92 68.16C3 68.38 3.06999 68.61 3.14999 68.83C5.94999 76.52 10.55 83.27 16.4 88.65C16.57 88.81 16.74 88.97 16.91 89.13C17.1 89.3 17.29 89.46 17.48 89.63C26.48 97.52 38.26 102.32 51.15 102.32C79.36 102.32 102.31 79.37 102.31 51.16C102.31 22.95 79.36 0 51.15 0H51.16ZM50.79 97.52C50.79 97.52 50.77 97.52 50.76 97.52C44.79 97.47 39.08 96.28 33.85 94.15C31.92 93.33 31.8 93.26 30.45 92.61C15.32 85 4.92 69.33 4.92 51.27C4.92 25.76 25.67 5.01 51.18 5.01C64.93 5.01 74.48 8.59 83.67 17.62C83.69 17.64 83.71 17.67 83.73 17.69H83.59C74.43 8.71 64.89 5 51.18 5C64.92 5 74.2 9.18 83.46 17.69L36.45 17.76C36.45 17.76 35.14 17.83 35.15 17.82C26.75 18.48 17.65 24.75 13.79 33.86C13.73 34 7.46 48.06 18.14 58.94C18.43 59.21 23.78 64.67 32.72 64.86C41.71 65.05 49.23 58.7 50.8 52.81V97.51L50.79 97.52ZM62.29 96.56C62.29 96.48 62.29 96.38 62.29 96.3C62.29 96.25 62.29 96.2 62.29 96.15C62.29 96.29 62.29 96.43 62.29 96.56ZM69.97 93.48C68.86 93.97 67.74 94.43 66.59 94.83V48.77C66.59 47.84 67.35 47.08 68.28 47.08C69.21 47.08 69.97 47.84 69.97 48.77V93.47V93.48ZM80 87.84L80.02 87.46V87.38V87.81L80 87.83V87.84ZM86.03 81.62C85.47 82.26 84.89 82.89 84.3 83.5L84.36 83.58L84.29 83.65V83.51C84.29 83.51 84.29 83.51 84.3 83.5V83.48L84.29 48.76C84.29 47.83 85.05 47.07 85.98 47.07C86.91 47.07 87.67 47.83 87.67 48.76V79.63C87.14 80.31 86.6 80.97 86.03 81.62ZM87.65 79.85L87.68 79.61V79.8L87.65 79.85ZM97.43 51.26C97.43 54.24 97.15 57.15 96.61 59.97C96.07 62.79 95.27 65.52 94.24 68.14C93.78 69.31 93.26 70.45 92.71 71.57C92.71 71.59 92.69 71.6 92.69 71.62L92.25 72.19L92.18 72.28L92.16 72.31L91.93 72.61V73.16C91.93 73.16 91.91 73.18 91.91 73.19C91.91 71.91 91.91 70.52 91.91 69.07C91.91 67.62 91.91 66.11 91.91 64.59C91.91 62.03 91.91 59.44 91.9 57.04C91.9 55.59 91.89 54.21 91.88 52.95C91.88 52.79 91.88 52.64 91.88 52.49C91.88 51.33 91.86 50.28 91.85 49.4C91.85 48.83 91.83 48.31 91.82 47.88C91.78 46.15 90.41 42.55 86.35 42.34C83.91 42.22 80.37 43.77 80.07 47.9C80.07 47.92 80.07 47.97 80.07 48.03C80.03 50.07 80.04 72.77 80.02 87.09C80.02 86.55 80.02 85.97 80.02 85.4C80.02 86.11 80.02 86.79 80.02 87.43C79.82 87.59 79.61 87.73 79.4 87.89C77.75 89.17 76.02 90.34 74.2 91.39V88.28C74.2 88.03 74.2 87.77 74.2 87.5C74.2 82.5 74.22 75.46 74.23 68.6C74.23 67.59 74.23 66.58 74.23 65.59C74.23 64.62 74.23 63.66 74.23 62.72C74.23 60.94 74.23 59.22 74.23 57.6C74.23 57.46 74.23 57.33 74.23 57.19C74.23 55.75 74.22 54.41 74.21 53.18C74.19 50.95 74.17 49.11 74.14 47.89C74.09 46.16 72.73 42.56 68.67 42.35C66.23 42.23 62.69 43.78 62.39 47.91C62.39 47.95 62.39 48.08 62.39 48.25C62.39 48.31 62.39 48.36 62.39 48.44C62.39 48.43 62.39 48.41 62.39 48.4C62.39 48.48 62.39 48.59 62.39 48.69C62.39 48.6 62.39 48.51 62.39 48.44C62.35 53.03 62.38 84.97 62.32 96.15C62.34 92.43 62.35 85.34 62.36 77.72C62.36 85.45 62.34 92.6 62.32 96.15C62.32 96.15 62.29 96.15 62.27 96.16C62.03 96.22 61.79 96.28 61.54 96.34C60.76 96.52 59.97 96.67 59.18 96.81C58.85 96.87 58.53 96.93 58.2 96.98C58.09 97 57.97 97 57.85 97.02H57.83C56.87 97.16 55.91 97.29 54.93 97.36C54.93 96.61 54.92 95.32 54.91 93.63C54.91 83.84 54.94 65.25 54.81 54.73C54.81 52.93 54.8 51.29 54.79 49.91C54.64 47.87 54.24 45.9 53.64 44.02C53.51 43.6 53.38 43.18 53.23 42.78C53.16 42.6 53.09 42.43 53.02 42.25C51.45 38.25 48.94 35.25 45.82 33.12C42.52 30.88 38.55 29.89 34.81 30.2C40.4 28.35 47.74 30.07 58.13 32.84C68.17 35.52 80.85 38.83 95.47 38.57C96.75 42.77 97.45 47 97.45 51.25L97.43 51.26ZM94.32 35.28C80.61 35.35 68.55 32.24 58.96 29.68C43.74 25.61 29.14 23.22 23.44 36.09C23.3 36.4 23.19 36.72 23.08 37.05C23.04 37.16 23.01 37.27 22.97 37.39C22.94 37.49 22.91 37.58 22.89 37.68C22.87 37.77 22.84 37.87 22.82 37.97C22.71 38.4 22.62 38.85 22.55 39.29C22.38 40.3 22.28 41.38 22.29 42.23C22.29 42.41 22.3 42.61 22.32 42.81C22.32 42.9 22.32 42.98 22.33 43.07C22.36 43.68 22.42 44.15 22.49 44.44C22.57 44.92 22.66 45.39 22.78 45.79C25.35 54.15 32.23 54.44 35.05 53.96C41.09 52.94 43.3 47.61 41.93 42.99C41.75 42.38 40.43 39.18 36.71 38.94C36.58 38.93 36.46 38.92 36.33 38.91C36.45 38.91 36.57 38.92 36.68 38.94C36.47 38.93 36.26 38.92 36.04 38.92C35.88 38.92 35.59 38.94 35.44 38.96C35.2 38.99 34.96 39.03 34.73 39.09C34.66 39.11 34.6 39.11 34.53 39.13C34.4 39.17 34.28 39.22 34.16 39.27C34.08 39.3 34 39.33 33.92 39.36C33.64 39.48 33.37 39.63 33.11 39.8C33.05 39.84 33 39.88 32.94 39.93C32.74 40.07 32.56 40.23 32.38 40.39C32.31 40.46 32.24 40.53 32.17 40.6C31.99 40.79 31.81 41 31.66 41.22C31.64 41.25 31.61 41.28 31.59 41.32C31.41 41.58 31.26 41.87 31.13 42.16C31.1 42.22 31.08 42.28 31.06 42.34C30.88 42.74 30.79 43.22 30.74 43.63C30.74 43.52 30.75 43.41 30.77 43.31C30.77 43.35 30.75 43.4 30.74 43.44C30.72 43.56 30.74 43.68 30.72 43.8C30.72 43.78 30.72 43.77 30.72 43.75C30.72 43.78 30.72 43.8 30.72 43.83C30.72 43.82 30.72 43.81 30.72 43.8C30.7 43.98 30.66 44.16 30.66 44.35C30.66 44.41 30.68 44.47 30.68 44.53C30.68 44.7 30.71 44.85 30.73 45.02C30.76 45.24 30.79 45.46 30.84 45.67C30.88 45.83 30.93 45.98 30.98 46.13C31.05 46.33 31.13 46.53 31.22 46.72C31.29 46.86 31.37 47 31.45 47.14C31.56 47.32 31.68 47.49 31.81 47.66C31.91 47.78 32 47.91 32.11 48.02C32.25 48.18 32.41 48.32 32.57 48.46C32.69 48.56 32.8 48.66 32.92 48.75C33.1 48.88 33.29 48.99 33.49 49.1C34.65 49.75 36.2 49.81 36.52 49.67C35.96 50.16 35.15 50.35 34.54 50.45C34.23 50.5 33.92 50.53 33.61 50.53C33.3 50.53 32.98 50.5 32.67 50.45C32.36 50.4 32.04 50.32 31.73 50.23C30.8 49.94 29.89 49.45 29.08 48.83C28.77 48.59 28.48 48.33 28.21 48.04C27.81 47.61 27.45 47.12 27.16 46.6C26.87 46.08 26.62 45.52 26.45 44.94C26.33 44.56 26.24 44.16 26.18 43.77C26 42.58 26.08 41.36 26.48 40.24C26.74 39.52 27.15 38.53 27.85 37.54C28.08 37.21 28.34 36.88 28.64 36.56C29.84 35.27 31.6 34.13 34.23 33.73C35.72 33.5 37.27 33.6 38.77 33.97C39.77 34.22 40.74 34.59 41.64 35.08C42.09 35.32 42.53 35.59 42.94 35.89C43.77 36.48 44.51 37.19 45.13 37.98C45.46 38.4 45.76 38.84 46.03 39.29C46.85 40.65 47.42 42.14 47.75 43.7C48.18 45.77 48.15 47.96 47.66 50.07C47.33 51.48 46.82 52.87 46.03 54.15C41.86 60.88 27.52 65.18 18.89 53.91C13.27 46.57 16.61 33.28 22.85 27.64C24.61 26.01 26.59 24.75 28.57 23.82C32.09 22.17 35.79 21.79 37.85 21.62H86.91C87.54 22.52 88.12 23.43 88.7 24.34C91.02 27.96 92.89 31.63 94.3 35.32L94.32 35.28ZM36.16 47.02C34.72 47.02 33.55 45.85 33.55 44.41C33.55 42.97 34.72 41.8 36.16 41.8C37.6 41.8 38.77 42.97 38.77 44.41C38.77 45.85 37.6 47.02 36.16 47.02Z"
        fill="currentColor" />
</svg>