<svg viewBox="0 0 32 25" fill="none" xmlns="http://www.w3.org/2000/svg">
    <path
        d="M15.8767 24.62H3.59874C1.61121 24.62 0 23.0088 0 21.0212V7.04946C0 5.06192 1.61121 3.45068 3.59874 3.45068H21.169L15.8767 24.62Z"
        fill="#006DA8" />
    <path
        d="M15.97 0H28.248C30.2355 0 31.8467 1.61123 31.8467 3.59879V17.5705C31.8467 19.5581 30.2355 21.1693 28.248 21.1693H10.6777L15.97 0Z"
        fill="#9F73FF" />
    <path
        d="M15.97 0H28.248C30.2355 0 31.8467 1.61123 31.8467 3.59879V17.5705C31.8467 19.5581 30.2355 21.1693 28.248 21.1693H10.6777L15.97 0Z"
        fill="url(#paint0_linear_144_90)" />
    <defs>
        <linearGradient id="paint0_linear_144_90" x1="17.9038" y1="17.3271" x2="35.298" y2="3.15949"
            gradientUnits="userSpaceOnUse">
            <stop stop-color="#01A4FF" />
            <stop offset="0.791667" stop-color="#01FFC2" />
        </linearGradient>
    </defs>
</svg>