<svg viewBox="0 0 291 184" fill="none"
    xmlns="http://www.w3.org/2000/svg">
    <path d="M199.26 183.24C175.07 183.24 152.28 173.87 135.09 156.86L84.85 106.62C79 100.77 75.79 92.99 75.82 84.72C75.85 76.45 79.1 68.69 84.98 62.88C97 51 116.51 51.06 128.46 63.01L174.47 109.02C179.86 114.41 188.65 114.43 194.06 109.07C196.71 106.45 198.17 102.96 198.18 99.23C198.19 95.51 196.75 92 194.11 89.37L143.94 39.2C129.92 25.33 111.3 17.69 91.56 17.75C71.42 17.8 52.62 25.71 38.62 40.02C24.6 54.35 17.1 73.34 17.5 93.49C18.29 133.6 51.59 166.24 91.73 166.24C98.91 166.24 106 165.22 112.81 163.21C117.31 161.88 122.04 164.45 123.36 168.95C124.69 173.45 122.12 178.18 117.62 179.51C109.25 181.98 100.54 183.24 91.73 183.24C42.4 183.24 1.48003 143.13 0.510028 93.83C0.0200278 69.08 9.24003 45.75 26.47 28.14C43.69 10.54 66.79 0.809998 91.52 0.759998C115.67 0.699998 138.66 10.07 155.91 27.14L206.13 77.36C211.98 83.22 215.2 91 215.18 99.28C215.16 107.56 211.9 115.33 206.02 121.15C193.98 133.06 174.44 133.01 162.46 121.03L116.45 75.02C111.08 69.65 102.33 69.63 96.93 74.96C94.29 77.57 92.83 81.05 92.82 84.77C92.81 88.48 94.25 91.98 96.87 94.6L147.06 144.8C161.03 158.62 179.58 166.25 199.26 166.25C240.16 166.25 273.47 132.98 273.51 92.08C273.53 72.26 265.81 53.6 251.77 39.54C237.73 25.48 219.08 17.74 199.26 17.74C192.94 17.74 186.67 18.53 180.61 20.1C179.73 20.33 178.85 20.57 177.98 20.83C173.48 22.17 168.75 19.61 167.41 15.12C166.07 10.62 168.63 5.89 173.12 4.55C174.19 4.23 175.27 3.93 176.35 3.65C183.79 1.73 191.5 0.75 199.25 0.75C223.61 0.75 246.53 10.26 263.78 27.53C281.03 44.8 290.52 67.73 290.49 92.09C290.44 142.35 249.5 183.23 199.25 183.23L199.26 183.24Z" fill="#006EB9"/>
</svg>
