<svg viewBox="0 0 48 48" fill="none" xmlns="http://www.w3.org/2000/svg">
    <path
        d="M48 24C48 26.5665 47.7937 29.0831 47.3996 31.5369C46.0949 39.6602 39.6601 46.0949 31.5368 47.3996C29.0829 47.7937 26.5663 48 24 48C21.4337 48 18.9171 47.7937 16.4632 47.3996C8.33985 46.0949 1.90516 39.6602 0.60043 31.5369C0.20631 29.0831 0 26.5665 0 24C0 21.4335 0.20631 18.9169 0.60043 16.4631C1.90515 8.33977 8.33985 1.90512 16.4632 0.60043C18.9171 0.20631 21.4337 0 24 0C26.5663 0 29.0829 0.20631 31.5368 0.60043C39.6601 1.90512 46.0948 8.33977 47.3996 16.4631C47.7937 18.9169 48 21.4335 48 24Z"
        fill="url(#paint0_linear_109_204)" />
    <path
        d="M38.25 39H13.952C12.2473 39 10.7241 37.9822 10.0717 36.4072C9.41938 34.8322 9.7768 33.0354 10.9823 31.8302L27.8125 15H15.75C12.4363 15 9.74998 12.3137 9.74998 9H32.158C33.8626 9 35.3857 10.0175 36.0381 11.5925C36.6907 13.1675 36.3335 14.964 35.1281 16.1698L18.2978 33H32.25C35.5637 33 38.25 35.6863 38.25 39Z"
        fill="white" />
    <defs>
        <linearGradient id="paint0_linear_109_204" x1="11.3597" y1="45.8936" x2="36.6403"
            y2="2.10636" gradientUnits="userSpaceOnUse">
            <stop stop-color="#0845BF" />
            <stop offset="0.6" stop-color="#0B5CFF" />
            <stop offset="1" stop-color="#4F90EE" />
        </linearGradient>
    </defs>
</svg>